<svg xmlns="http://www.w3.org/2000/svg" viewBox="0 0 100 100"><defs><style>.cls-1{fill:#e4e7f1;}.cls-2{fill:#b2bad7;opacity:0.5;isolation:isolate;}.cls-3{fill:#7d7bbd;}.cls-4{fill:#1a044e;}.cls-5{fill:#fbd040;}.cls-6,.cls-7{fill:none;stroke-linecap:round;stroke-width:2px;}.cls-6{stroke:#fff;stroke-linejoin:round;}.cls-7{stroke:#1a044e;stroke-miterlimit:10;}</style></defs><g id="Layer_1" data-name="Layer 1"><g id="Layer_1-2" data-name="Layer 1"><path class="cls-1" d="M77.5,50.18654V15.092a2,2,0,0,0-2-2h-51a2,2,0,0,0-2,2V80.5a2,2,0,0,0,2,2H45.18652Z"/><path class="cls-1" d="M67.81348,82.5H75.5a2.00006,2.00006,0,0,0,2-2V72.8135Z"/><rect class="cls-2" x="27.5" y="40.02952" width="29" height="2"/><polygon class="cls-2" points="54.249 48.03 27.5 48.03 27.5 50.03 54.249 50.03 54.249 48.03"/><rect class="cls-2" x="27.5" y="52.02952" width="17" height="2"/><rect class="cls-2" x="27.5" y="67.02952" width="17" height="2"/><rect class="cls-2" x="27.5" y="26.02952" width="34" height="2"/><rect class="cls-2" x="27.5" y="20.02952" width="26" height="4"/><rect class="cls-2" x="27.5" y="44.02952" width="23" height="2"/><rect class="cls-2" x="27.5" y="36.02952" width="28" height="2"/><rect class="cls-3" x="50" y="68.00002" width="30" height="12" transform="translate(-33.28786 67.63605) rotate(-45)"/><polygon class="cls-4" points="45.908 93.092 48.737 81.778 57.222 90.263 45.908 93.092"/><path class="cls-3" d="M84.09188,52.07972l2.82843,2.82843a4,4,0,0,1,0,5.65685l-5.65685,5.65685h0l-8.48528-8.48528h0L78.435,52.07972A4,4,0,0,1,84.09188,52.07972Z"/></g><circle class="cls-5" cx="82" cy="82" r="8"/><polyline class="cls-6" points="79.5 82.781 80.932 84.213 84.5 80.645"/><path class="cls-7" d="M28.98718,64.61992c2.28407-.16043-1.39839-3.24887.23377-4.2748s5.02032-.78637,4.08766,1.35875.1829,3.02747,1.22151,3.02747a2.01547,2.01547,0,0,0,2.00331-1.80918c0-.87536,3.03141-1.37953,2.67108-.23419-.77417,2.46079,2.20616,2.73473,2.85657.8902.56236-1.59483,2.52914-.90589,3.784-.88092"/></g></svg>