<svg xmlns="http://www.w3.org/2000/svg" xmlns:xlink="http://www.w3.org/1999/xlink" viewBox="0 0 100 100"><defs><style>.cls-1,.cls-13{fill:none;}.cls-2{fill:#ffd86b;}.cls-3{fill:#1b014c;}.cls-4{fill:#b1b9d5;}.cls-5{fill:#87acfc;}.cls-6{clip-path:url(#clip-path);}.cls-7{fill:#b2bad7;}.cls-8{fill:#e4e7f1;}.cls-9{fill:#14003d;}.cls-10{fill:#c6d7fc;}.cls-11{clip-path:url(#clip-path-2);}.cls-12,.cls-14{fill:#7d7bbd;}.cls-13,.cls-14{stroke:#7d7bbd;stroke-linejoin:round;stroke-width:2px;}.cls-14{stroke-linecap:round;}</style><clipPath id="clip-path"><path class="cls-1" d="M45,66.42186l-.0141,4.9787c-.00626,2.20839-1.45765,4.41336-4.35634,6.09789-5.83638,3.3917-15.32977,3.39287-21.2043.00123C16.46959,75.79323,14.99368,73.55335,15,71.31679l.01411-4.97861c-.00635,2.23655,1.46957,4.47642,4.42521,6.18287,5.87452,3.39166,15.368,3.39049,21.20429-.00123C43.54241,70.83522,44.99371,68.63025,45,66.42186Z"/></clipPath><clipPath id="clip-path-2"><path class="cls-1" d="M45,71.40056l-.0141,4.97861c-.00626,2.20841-1.45765,4.41337-4.35634,6.09791-5.83638,3.3917-15.32977,3.39287-21.2043.00121C16.46959,80.77186,14.99368,78.532,15,76.29542l.01411-4.97863c-.00635,2.23656,1.46957,4.47644,4.42521,6.18289,5.87452,3.39164,15.368,3.39047,21.20429-.00123C43.54241,75.81386,44.99371,73.60888,45,71.40056Z"/></clipPath></defs><g id="Layer_1" data-name="Layer 1"><path class="cls-2" d="M75.31558,44.0004a1.003,1.003,0,0,0,1.00074-.81463,4.99994,4.99994,0,0,1,.96028-2.22114l4.72267-6.05523a15.09677,15.09677,0,0,0,3.00028-8.99952v-.5975A15.20336,15.20336,0,0,0,70.42106,10.006,15.00025,15.00025,0,0,0,55.00537,24.579h0q-.00591.21059-.00591.42127v.90955a15.09677,15.09677,0,0,0,3.00028,8.99949l4.72267,6.05526a5,5,0,0,1,.96027,2.22113,1.003,1.003,0,0,0,1.00075.81463Z"/><path class="cls-3" d="M66.99949,53.50043a3.75,3.75,0,0,0,6,0Z"/><path class="cls-4" d="M66.99949,53.50043h6c3.25,0,3.25-2.84733,3.25-4.75v-3.75a1,1,0,0,0-1-1h-10.5a1,1,0,0,0-1,1v3.75C63.74949,50.6531,63.74949,53.50043,66.99949,53.50043Z"/><path class="cls-5" d="M45,66.42186l-.0141,4.9787c-.00626,2.20839-1.45765,4.41336-4.35634,6.09789-5.83638,3.3917-15.32977,3.39287-21.2043.00123C16.46959,75.79323,14.99368,73.55335,15,71.31679l.01411-4.97861c-.00635,2.23655,1.46957,4.47642,4.42521,6.18287,5.87452,3.39166,15.368,3.39049,21.20429-.00123C43.54241,70.83522,44.99371,68.63025,45,66.42186Z"/><g class="cls-6"><path class="cls-7" d="M45,66.42186l-.0141,4.9787c-.00626,2.20839-1.45765,4.41336-4.35634,6.09789-5.83638,3.3917-15.32977,3.39287-21.2043.00123C16.46959,75.79323,14.99368,73.55335,15,71.31679l.01411-4.97861c-.00635,2.23655,1.46957,4.47642,4.42521,6.18287,5.87452,3.39166,15.368,3.39049,21.20429-.00123,2.8987-1.68453,4.35008-3.8895,4.35634-6.09789"/></g><path class="cls-8" d="M40.57451,60.23856c5.87452,3.39166,5.90354,8.89062.06913,12.28118-5.83632,3.39172-15.32977,3.39289-21.2043.00123s-5.90351-8.89062-.06718-12.28231C25.20656,56.84809,34.7,56.84692,40.57451,60.23856Z"/><path class="cls-9" d="M45,76.37911l-.0141,4.97862c-.00626,2.20839-1.45765,4.41337-4.35634,6.0979-5.83638,3.39171-15.32977,3.39287-21.2043.00122C16.46959,85.75041,14.99368,83.51054,15,81.274l.01411-4.97863c-.00635,2.23655,1.46957,4.47644,4.42521,6.18287,5.87452,3.39165,15.368,3.39048,21.20429-.00122C43.54241,80.79247,44.99371,78.58751,45,76.37911Z"/><path class="cls-10" d="M45,71.40056l-.0141,4.97861c-.00626,2.20841-1.45765,4.41337-4.35634,6.09791-5.83638,3.3917-15.32977,3.39287-21.2043.00121C16.46959,80.77186,14.99368,78.532,15,76.29542l.01411-4.97863c-.00635,2.23656,1.46957,4.47644,4.42521,6.18289,5.87452,3.39164,15.368,3.39047,21.20429-.00123C43.54241,75.81386,44.99371,73.60888,45,71.40056Z"/><g class="cls-11"><path class="cls-12" d="M45,71.40056l-.0141,4.97861c-.00626,2.20841-1.45765,4.41337-4.35634,6.09791-5.83638,3.3917-15.32977,3.39287-21.2043.00121C16.46959,80.77186,14.99368,78.532,15,76.29542l.01411-4.97863c-.00635,2.23656,1.46957,4.47644,4.42521,6.18289,5.87452,3.39164,15.368,3.39047,21.20429-.00123,2.8987-1.68453,4.35008-3.8895,4.35634-6.09789"/></g><path class="cls-13" d="M49.00052,75H65.34315a4,4,0,0,0,2.82842-6.82843L31.82843,31.82843A4,4,0,0,1,34.65685,25H50.99948"/><polygon class="cls-14" points="44.072 21 50.999 25 44.072 29 44.072 21"/></g></svg>