<svg xmlns="http://www.w3.org/2000/svg" viewBox="0 0 100 100"><defs><style>.cls-1,.cls-4,.cls-5{fill:none;}.cls-1{stroke:#b2bad7;}.cls-1,.cls-4{stroke-linecap:round;}.cls-1,.cls-5{stroke-miterlimit:10;stroke-width:4px;}.cls-2{fill:#fdd850;}.cls-3{fill:#7e7bbd;}.cls-4{stroke:#fff;stroke-linejoin:round;stroke-width:2px;}.cls-5{stroke:#14003d;}</style></defs><g id="Layer_1" data-name="Layer 1"><path class="cls-1" d="M83.17207,38.80715A34.96447,34.96447,0,1,1,61.193,16.828"/><path class="cls-2" d="M39.85974,69.83238,44.02736,74a4,4,0,0,0,5.65685,0L77,46.68421a4,4,0,0,0,1.17157-2.82843V25.82843a4,4,0,0,0-4-4H56.14422A4,4,0,0,0,53.31579,23L26,50.31579a4,4,0,0,0,0,5.65685l4.38605,4.38605ZM71.08915,31.91085a3,3,0,1,1,3-3A3,3,0,0,1,71.08915,31.91085Z"/><circle class="cls-3" cx="50" cy="50" r="13"/><path class="cls-4" d="M46.75948,55.18244c3.15545,2.83712,6.8301.334,6.58247-2.2658-.19063-2.00129-1.75885-2.63057-3.45534-3.03483-2.38283-.5677-3.151-1.70865-3.23655-3.23337-.13632-2.4301,3.34945-4.78872,6.328-1.38183"/><line class="cls-4" x1="49.99999" y1="41" x2="49.99999" y2="43.57492"/><line class="cls-4" x1="49.99999" y1="56.42508" x2="49.99999" y2="59"/><line class="cls-5" x1="50" y1="20" x2="50" y2="10"/><line class="cls-5" x1="50" y1="90" x2="50" y2="80"/><line class="cls-5" x1="80" y1="50" x2="90" y2="50"/><line class="cls-5" x1="10" y1="50" x2="20" y2="50"/></g></svg>