<svg xmlns="http://www.w3.org/2000/svg" viewBox="0 0 100 100"><defs><style>.cls-1{fill:#fdd850;}.cls-2{fill:#b2bad7;}.cls-3{fill:#14003d;}.cls-4{fill:#fff;}</style></defs><g id="Layer_1" data-name="Layer 1"><path class="cls-1" d="M86,40H60V53.5a6.00677,6.00677,0,0,1-6,6H48V76a4,4,0,0,0,4,4H86a4,4,0,0,0,4-4V44a3.99992,3.99992,0,0,0-3.99984-4Z"/><polygon class="cls-1" points="57 90 74 80 59 80 57 90"/><rect class="cls-2" x="10" y="10" width="48" height="47.5" rx="4"/><polygon class="cls-2" points="42 67.5 25 57.5 40 57.5 42 67.5"/><circle class="cls-3" cx="41" cy="33.75" r="2"/><circle class="cls-3" cx="34" cy="33.75" r="2"/><circle class="cls-3" cx="27" cy="33.75" r="2"/><circle class="cls-4" cx="76" cy="60" r="2"/><circle class="cls-4" cx="69" cy="60" r="2"/><circle class="cls-4" cx="62" cy="60" r="2"/></g></svg>