<svg xmlns="http://www.w3.org/2000/svg" viewBox="0 0 100 100"><defs><style>.cls-1,.cls-5{fill:none;}.cls-1{stroke:#b2bad7;}.cls-1,.cls-4,.cls-5{stroke-linecap:round;stroke-width:2px;}.cls-1,.cls-4{stroke-linejoin:round;}.cls-2{fill:#b2bad7;}.cls-3{fill:#6a65ae;}.cls-4{fill:#14003d;}.cls-4,.cls-5{stroke:#14003d;}.cls-5{stroke-miterlimit:10;}</style></defs><g id="Layer_1" data-name="Layer 1"><path class="cls-1" d="M30,10H14a4,4,0,0,0-4,4V30"/><path class="cls-1" d="M10,70V86a4,4,0,0,0,4,4H30"/><path class="cls-1" d="M70,90H86a4,4,0,0,0,4-4V70"/><path class="cls-1" d="M90,30V14a4,4,0,0,0-4-4H70"/><circle class="cls-2" cx="65" cy="56.42105" r="8.42105"/><path class="cls-2" d="M77.63158,80a12.63158,12.63158,0,0,0-25.26316,0"/><circle class="cls-3" cx="35" cy="56.42105" r="8.42105"/><path class="cls-3" d="M47.63158,80a12.63158,12.63158,0,0,0-25.26316,0"/><polygon class="cls-4" points="67.337 35 65 39.047 62.663 35 67.337 35"/><polygon class="cls-4" points="37.337 35 35 39.047 32.663 35 37.337 35"/><path class="cls-5" d="M50,20q-.14892,0-.2971.00286A15.00016,15.00016,0,0,0,35,35"/><path class="cls-5" d="M50,20q.14892,0,.2971.00286A15.00016,15.00016,0,0,1,65,35"/></g></svg>