<svg xmlns="http://www.w3.org/2000/svg" viewBox="0 0 100 100"><defs><style>.cls-1{fill:#fbd040;}.cls-2,.cls-3{fill:none;stroke-linecap:round;stroke-miterlimit:10;stroke-width:2px;}.cls-2{stroke:#1a044e;}.cls-3{stroke:#dfe1ee;}.cls-4{fill:#1a044e;}.cls-5{fill:#b2bad7;}</style></defs><g id="Layer_1" data-name="Layer 1"><path class="cls-1" d="M59.45067,70.44426a1.78315,1.78315,0,0,0,1.77908-1.4482,8.889,8.889,0,0,1,1.70713-3.94865L71.33264,54.2827a26.83839,26.83839,0,0,0,5.33375-15.99892V37.22157c0-14.53017-11.39224-26.81254-25.917-27.21084A26.66676,26.66676,0,0,0,23.34413,35.9179q-.01052.37437-.01052.74893v1.617a26.83828,26.83828,0,0,0,5.33377,15.99887l8.39574,10.76476a8.889,8.889,0,0,1,1.70713,3.94865,1.78315,1.78315,0,0,0,1.77908,1.4482Z"/><line class="cls-2" x1="80.21044" y1="37.75277" x2="85.55519" y2="37.75277"/><line class="cls-2" x1="76.17299" y1="22.64199" x2="80.80168" y2="19.96962"/><line class="cls-2" x1="23.82772" y1="22.64199" x2="19.19904" y2="19.96961"/><line class="cls-2" x1="23.82772" y1="52.86356" x2="19.19903" y2="55.53592"/><line class="cls-2" x1="76.17298" y1="52.86355" x2="80.80166" y2="55.53592"/><line class="cls-2" x1="19.78956" y1="37.75275" x2="14.44481" y2="37.75275"/><path class="cls-3" d="M44.54933,70.44426c0-7.65821-5-30.222-5-30.222"/><path class="cls-3" d="M55.45067,70.44426c0-7.65821,5-30.222,5-30.222"/><path class="cls-4" d="M44.66672,87.333a6.6666,6.6666,0,0,0,10.66656,0Z"/><path class="cls-5" d="M44.66672,87.333H55.33328c5.77772,0,5.77772-5.06185,5.77772-8.44436V72.222a1.77776,1.77776,0,0,0-1.77776-1.77775H40.66676A1.77776,1.77776,0,0,0,38.889,72.222v6.6666C38.889,82.27112,38.889,87.333,44.66672,87.333Z"/><line class="cls-3" x1="40.17672" y1="44.01439" x2="59.67584" y2="44.01439"/></g></svg>