<svg xmlns="http://www.w3.org/2000/svg" viewBox="0 0 100 100"><defs><style>.cls-1{fill:#e4e7f1;}.cls-2{fill:none;stroke:#fdd850;stroke-miterlimit:10;stroke-width:10px;}.cls-3{fill:#fdd850;}.cls-4{fill:#b2bad7;}</style></defs><g id="Layer_1" data-name="Layer 1"><path class="cls-1" d="M50,14A36,36,0,1,1,31.60269,80.94336l-2.03448-1.21249L27.52683,80.9317,25.675,82.021l.49-2.44989.429-2.145-1.57453-1.51856A35.98956,35.98956,0,0,1,50,14m0-4A39.98954,39.98954,0,0,0,22.24265,78.78665L20,90l9.55493-5.62054A39.99973,39.99973,0,1,0,50,10Z"/><path class="cls-2" d="M73,76V69.4872a3.99817,3.99817,0,0,1,3.00959-3.86773A12.00138,12.00138,0,1,0,61,54"/><circle class="cls-3" cx="73.00001" cy="84" r="6"/><path class="cls-4" d="M71.5477,26.31369l-8.42908-.00006.00006,8.42908H54.68961v8.429h-8.429V51.6008l-2.99866,2.9986A17,17,0,1,1,31.94827,43.28574L60.234,15H71.5477ZM25.53553,61.01219a5,5,0,1,0,0,7.07107A5,5,0,0,0,25.53553,61.01219Z"/></g></svg>