<svg xmlns="http://www.w3.org/2000/svg" viewBox="0 0 100 100"><defs><style>.cls-1{fill:#f9ca2b;}.cls-2{fill:#14003d;}.cls-3,.cls-4{fill:none;stroke-linecap:round;}.cls-3{stroke:#b2bad7;stroke-miterlimit:10;stroke-width:6px;}.cls-4{stroke:#fff;stroke-linejoin:round;stroke-width:2px;}</style></defs><g id="Layer_1" data-name="Layer 1"><path class="cls-1" d="M52.891,26.68276l2.42215-2.6585a1.60563,1.60563,0,0,1,2.26825-.10553q.0552.05028.10553.10553l2.42208,2.6585a1.60567,1.60567,0,0,0,1.67408.44857L65.21,26.04008a1.60564,1.60564,0,0,1,2.01713,1.04276q.02265.07114.03863.14416l.76839,3.5134a1.60562,1.60562,0,0,0,1.22551,1.22551l3.51339.76839a1.60564,1.60564,0,0,1,1.22549,1.91163q-.016.07288-.0386.14407l-1.09125,3.42688a1.60563,1.60563,0,0,0,.44856,1.67408l2.6585,2.42215a1.60563,1.60563,0,0,1,.10552,2.26825q-.05028.05519-.10552.10552L73.31723,47.109a1.60566,1.60566,0,0,0-.44857,1.67408L73.95992,52.21a1.60564,1.60564,0,0,1-1.04277,2.01712q-.07115.02265-.14415.03862l-3.5134.76839a1.60562,1.60562,0,0,0-1.22551,1.22551L67.26573,59.773a1.60564,1.60564,0,0,1-1.91159,1.22555q-.07293-.01594-.14415-.03862l-3.42688-1.09125a1.60563,1.60563,0,0,0-1.67408.44856l-2.42215,2.6585a1.60561,1.60561,0,0,1-2.26824.10553q-.0552-.0503-.10553-.10553L52.891,60.31724a1.60565,1.60565,0,0,0-1.67408-.44857L47.79,60.95992a1.60564,1.60564,0,0,1-2.01713-1.04276q-.02265-.07115-.03863-.14416l-.76839-3.5134a1.60562,1.60562,0,0,0-1.22551-1.22551L40.227,54.26574a1.60565,1.60565,0,0,1-1.22556-1.91159q.016-.07294.03862-.14415l1.09126-3.42688a1.60562,1.60562,0,0,0-.44856-1.67408l-2.6585-2.42215a1.60562,1.60562,0,0,1-.10552-2.26825q.05026-.05519.10552-.10552L39.68275,39.891a1.60565,1.60565,0,0,0,.44857-1.67408L39.04008,34.79a1.60564,1.60564,0,0,1,1.04276-2.01713q.07115-.02265.14416-.03862l3.5134-.76839a1.60564,1.60564,0,0,0,1.22551-1.22551L45.7343,27.227a1.60563,1.60563,0,0,1,1.91163-1.22549q.07288.01593.14407.0386l3.42688,1.09125A1.60561,1.60561,0,0,0,52.891,26.68276Z"/><rect class="cls-2" x="54.5" y="31.5" width="4" height="16"/><rect class="cls-2" x="54.5" y="51.5" width="4" height="4"/><circle class="cls-3" cx="56.5" cy="43.5" r="30"/><line class="cls-3" x1="13.5" y1="86.5" x2="34.40812" y2="65.59188"/><circle class="cls-2" cx="78.5" cy="21.5" r="8"/><polyline class="cls-4" points="76 22.281 77.432 23.713 81 20.145"/></g></svg>