<svg xmlns="http://www.w3.org/2000/svg" viewBox="0 0 100 100"><defs><style>.cls-1{fill:#ebedf4;}.cls-2{fill:#7d7ab9;}.cls-3{fill:#ffd85f;}.cls-4,.cls-5{fill:none;stroke-linecap:round;}.cls-4{stroke:#fff;stroke-linejoin:round;stroke-width:2px;}.cls-5{stroke:#e6e6e6;stroke-miterlimit:10;stroke-width:2.66667px;stroke-dasharray:0 8.10521;}</style></defs><g id="Layer_1" data-name="Layer 1"><circle class="cls-1" cx="30" cy="24" r="10"/><path class="cls-1" d="M45,52a15,15,0,0,0-30,0"/><circle class="cls-2" cx="70" cy="57" r="10"/><path class="cls-2" d="M85,85a15,15,0,0,0-30,0"/><circle class="cls-3" cx="50" cy="50" r="9"/><line class="cls-4" x1="47" y1="50.02343" x2="53" y2="50.00586"/><line class="cls-4" x1="50" y1="47.01463" x2="50" y2="53.01466"/><path class="cls-3" d="M58.00708,37.33113c-.33752-.2138-.67993-.41955-1.03516-.60644l-1.50268,2.60284q.53539.27511,1.03906.59967Z"/><path class="cls-3" d="M56.64355,40.49214l-.35351-.229c-.32324-.20947-.65918-.40185-1.00391-.57959l-.374-.19189,1.90527-3.30079.34082.1792c.36524.19239.7168.40332,1.06348.623l.32422.20557Zm-.62109-1.32275q.17431.09667.3457.19922l1.09766-1.90234q-.16992-.10328-.34277-.20215Z"/><path class="cls-3" d="M50.59961,38.03023v-3C50.39917,35.0223,50.20239,35,50,35s-.39917.02234-.59961.03027v3C49.60034,38.02034,49.79761,38,50,38S50.39966,38.02034,50.59961,38.03023Z"/><path class="cls-3" d="M51,38.45064l-.63379-.03369a5.39216,5.39216,0,0,0-.73242,0L49,38.45064V34.645l.60938-.02784a5.49066,5.49066,0,0,1,.78124,0L51,34.645Zm-1-.85107c.06641,0,.13281.002.19922.00537V35.40718a3.39077,3.39077,0,0,0-.39844,0v2.19776C49.86719,37.60152,49.93359,37.59957,50,37.59957Z"/><path class="cls-3" d="M62,50c0,.20245-.02039.39966-.03027.59961h3C64.97766,50.39907,65,50.20241,65,50s-.02234-.39911-.03027-.59961h-3C61.97961,49.6003,62,49.7975,62,50Z"/><path class="cls-3" d="M65.35449,51H61.54883l.03418-.63233c.00781-.12207.0166-.24365.0166-.36767s-.00879-.24561-.0166-.36768L61.54883,49h3.80566l.02832.60937c.00879.1294.01758.25879.01758.39063s-.00879.26123-.01758.39062Zm-2.959-.80078h2.19726c.00391-.06592.00684-.13233.00684-.19922s-.00293-.1333-.00684-.19922H62.39551c.00293.06592.00488.13232.00488.19922S62.39844,50.13326,62.39551,50.19918Z"/><path class="cls-3" d="M60.67236,44.53035l2.60279-1.50274c-.18677-.35486-.39246-.697-.60608-1.03431L60.073,43.49214Q60.39819,43.9946,60.67236,44.53035Z"/><path class="cls-3" d="M60.50684,45.08736l-.19141-.37451a11.49057,11.49057,0,0,0-.57813-1.00293l-.22949-.354,3.294-1.90185.20508.32471c.21972.34619.42968.69775.623,1.062l.17969.34082Zm.125-1.45557c.06836.11377.13378.22852.19824.34473l1.90527-1.09961q-.09815-.17285-.20215-.34326Z"/><path class="cls-3" d="M43.4917,39.9272q.5028-.32547,1.03906-.59967l-1.50268-2.60284c-.35523.18689-.69764.39264-1.03516.60644Z"/><path class="cls-3" d="M43.35645,40.49214,41.4541,37.19869l.32422-.20557c.34668-.21973.69824-.43066,1.06348-.623l.34082-.1792,1.90527,3.30079-.374.19189c-.34473.17774-.68067.37012-1.00391.57959Zm-.82227-3.02587,1.09766,1.90234q.17138-.10254.3457-.19922L42.877,37.26412Q42.70411,37.363,42.53418,37.46627Z"/><path class="cls-3" d="M38,50c0-.20246.02039-.39966.03027-.59961h-3C35.02234,49.60085,35,49.7975,35,50s.02234.39911.03027.59961h3C38.02039,50.39962,38,50.20241,38,50Z"/><path class="cls-3" d="M38.45117,51H34.64551l-.02832-.60938c-.00879-.12939-.01758-.25879-.01758-.39062s.00879-.26123.01758-.39063L34.64551,49h3.80566l-.03418.63232c-.00781.12207-.0166.24365-.0166.36768s.00879.2456.0166.36767Zm-3.04394-.80078h2.19726c-.00293-.06592-.00488-.13233-.00488-.19922s.002-.1333.00488-.19922H35.40723c-.00391.06592-.00684.13232-.00684.19922S35.40332,50.13326,35.40723,50.19918Z"/><path class="cls-3" d="M39.927,56.50783q-.32519-.50244-.59936-1.03827l-2.60279,1.50275c.18677.35486.39246.69708.60608,1.03436Z"/><path class="cls-3" d="M37.19824,58.54586l-.20508-.32471c-.21972-.34619-.42968-.69776-.623-1.062l-.17969-.34082,3.30273-1.90577.19141.37452A11.49352,11.49352,0,0,0,40.2627,56.29l.22949.354Zm.06641-1.42286q.09815.17286.20215.34327l1.90136-1.09815c-.06836-.11377-.13378-.22851-.19824-.34473Z"/><path class="cls-3" d="M60.67236,55.46956q-.275.53521-.59936,1.03827l2.59607,1.49884c.21362-.33728.41931-.6795.60608-1.03436Z"/><path class="cls-3" d="M62.80176,58.54586l-3.294-1.90186.22949-.354a11.49352,11.49352,0,0,0,.57813-1.00293l.19141-.37452,3.30273,1.90577-.17969.34082c-.19336.36425-.40332.71582-.623,1.062Zm-2.16992-2.17774,1.90136,1.09815q.104-.17066.20215-.34327l-1.90527-1.09961C60.76562,56.13961,60.7002,56.25435,60.63184,56.36812Z"/><path class="cls-3" d="M56.50806,60.07283a11.98593,11.98593,0,0,1-1.03894.59967l1.50268,2.60279c.3551-.18689.69763-.39258,1.035-.60639Z"/><path class="cls-3" d="M56.81738,63.809l-1.90625-3.30127.375-.1919a11.20223,11.20223,0,0,0,1.00391-.5791l.35351-.22949,1.90235,3.29395-.32422.20556c-.34668.21973-.69824.43067-1.06348.623Zm-.79492-2.97852,1.10059,1.90528q.17285-.09888.34277-.20215L56.36816,60.6313Q56.19678,60.73384,56.02246,60.83052Z"/><path class="cls-3" d="M39.32764,44.53035q.275-.53521.59936-1.03821L37.33093,41.9933c-.21362.33728-.41931.67945-.60608,1.03431Z"/><path class="cls-3" d="M39.49316,45.08736,36.19043,43.1816l.17969-.34082c.19336-.36426.40332-.71582.623-1.062l.20508-.32471,3.294,1.90185-.22949.354a11.49057,11.49057,0,0,0-.57813,1.00293Zm-2.22851-2.21045,1.90527,1.09961c.06446-.11621.12988-.231.19824-.34473L37.4668,42.53365Q37.36279,42.7043,37.26465,42.87691Z"/><path class="cls-3" d="M44.53088,60.6725a11.98593,11.98593,0,0,1-1.03894-.59967L41.99316,62.6689c.33741.21381.67994.4195,1.035.60639Z"/><path class="cls-3" d="M43.18262,63.809l-.34082-.1792c-.36524-.19238-.7168-.40332-1.06348-.623l-.32422-.20556,1.90235-3.29395.35351.22949a11.20223,11.20223,0,0,0,1.00391.5791l.375.1919Zm-.64844-1.27539q.16992.10327.34277.20215l1.10059-1.90528q-.17431-.09667-.3457-.19922Z"/><path class="cls-3" d="M50.59961,64.96968v-3C50.39966,61.97957,50.20239,62,50,62s-.39966-.02039-.59961-.03028v3C49.60083,64.97762,49.79761,65,50,65S50.39917,64.97762,50.59961,64.96968Z"/><path class="cls-3" d="M50,65.40035c-.13184,0-.26172-.0083-.39062-.01758L49,65.35494V61.54927l.63379.03369a5.38892,5.38892,0,0,0,.73242,0L51,61.54927v3.80567l-.60938.02783C50.26172,65.39205,50.13184,65.40035,50,65.40035Zm-.19922-.80762a3.39077,3.39077,0,0,0,.39844,0V62.395a3.87651,3.87651,0,0,1-.39844,0Z"/><path class="cls-5" d="M83.56836,71.74092A39.99469,39.99469,0,0,0,37.2937,12.07283"/><path class="cls-5" d="M16.60547,27.988A40.01194,40.01194,0,0,0,58.915,89.00022"/></g></svg>