<svg xmlns="http://www.w3.org/2000/svg" xmlns:xlink="http://www.w3.org/1999/xlink" viewBox="0 0 100 100"><defs><style>.cls-1{fill:none;}.cls-2{clip-path:url(#clip-path);}.cls-3{clip-path:url(#clip-path-2);}.cls-4{clip-path:url(#clip-path-3);}.cls-5{clip-path:url(#clip-path-4);}.cls-6{fill:#b2bad7;opacity:0.35;}.cls-7{fill:#fccf20;}.cls-8{fill:#1a044e;}.cls-9{fill:#9c9cd5;}.cls-10{fill:#fff;}.cls-11{opacity:0.5;}.cls-12{fill:#fdd850;}.cls-13{opacity:0.75;}</style><clipPath id="clip-path"><circle class="cls-1" cx="220" cy="251.73711" r="55"/></clipPath><clipPath id="clip-path-2"><circle class="cls-1" cx="50" cy="251.73711" r="55"/></clipPath><clipPath id="clip-path-3"><circle class="cls-1" cx="-120" cy="251.73711" r="55"/></clipPath><clipPath id="clip-path-4"><circle class="cls-1" cx="-290" cy="251.73711" r="55"/></clipPath></defs><g id="Layer_1" data-name="Layer 1"><circle class="cls-6" cx="49.97033" cy="50.28229" r="40"/><polygon class="cls-7" points="50 65 32.679 95 67.321 95 50 65"/><path class="cls-7" d="M8.88721,70.01461a1,1,0,0,1-.207-1.978L90.84473,50.57173a.9999.9999,0,0,1,.416,1.95606L9.09619,69.99263A.99029.99029,0,0,1,8.88721,70.01461Z"/><rect class="cls-8" x="60" y="11.55001" width="35" height="35" rx="4"/><polygon class="cls-9" points="64.87 39.509 62.042 36.681 72.456 26.266 77.456 31.266 85.042 23.681 87.87 26.509 77.456 36.923 72.456 31.923 64.87 39.509"/><polygon class="cls-9" points="80.986 22.102 92.545 19.005 89.448 30.564 80.986 22.102"/><rect class="cls-9" x="5" y="23.55001" width="35" height="35" rx="4"/><path class="cls-10" d="M9,56.55h4.25v-9H7v7A2,2,0,0,0,9,56.55Z"/><g class="cls-11"><rect class="cls-10" x="15.25" y="33.55001" width="6.25" height="23"/></g><rect class="cls-12" x="23.5" y="40.55001" width="6.25" height="16"/><g class="cls-13"><path class="cls-8" d="M31.34454,56.55h4.25a2,2,0,0,0,2-2v-27h-6.25Z"/></g></g></svg>