<?xml version="1.0" encoding="utf-8"?>
<!-- Generator: Adobe Illustrator 24.1.0, SVG Export Plug-In . SVG Version: 6.00 Build 0)  -->
<svg version="1.1" id="Layer_1" xmlns="http://www.w3.org/2000/svg" xmlns:xlink="http://www.w3.org/1999/xlink" x="0px" y="0px"
	 viewBox="0 0 100 100" style="enable-background:new 0 0 100 100;" xml:space="preserve">
<style type="text/css">
	.st0{opacity:0.35;fill:#B2BAD7;enable-background:new    ;}
	.st1{fill:#B2BAD7;}
	.st2{fill:#E4E7F1;}
	.st3{fill:#9C9CD5;}
	.st4{fill:#1A044E;}
	.st5{fill:#7D7BBD;}
	.st6{fill:#FCCF20;}
</style>
<g id="Layer_1_1_">
	<circle class="st0" cx="50" cy="50" r="40"/>
	<path class="st1" d="M50,90c19.6,0,36.4-14.2,39.5-33.6c-25.6-8.5-53.3-8.5-79,0C13.6,75.8,30.4,90,50,90z"/>
	<ellipse class="st2" cx="25" cy="82.6" rx="20" ry="12.4"/>
	<circle class="st3" cx="25" cy="82.6" r="9.3"/>
	<circle class="st4" cx="26.1" cy="80.7" r="4.7"/>
	<path class="st4" d="M50,21c-0.6,0-1-0.4-1-1v-8.5c0-0.6,0.4-1,1-1s1,0.4,1,1V20C51,20.6,50.6,21,50,21z"/>
	<polygon class="st4" points="53.5,11.9 50,5.9 46.5,11.9 	"/>
	<path class="st4" d="M53.5,13h-6.9c-0.6,0-1.2-0.5-1.2-1.2c0-0.2,0.1-0.4,0.2-0.6l3.5-6c0.4-0.6,1.1-0.7,1.7-0.3
		c0.1,0.1,0.2,0.2,0.3,0.3l3.5,6c0.3,0.6,0.1,1.3-0.4,1.6C53.9,13,53.7,13,53.5,13z M48.5,10.7h2.9L50,8.2L48.5,10.7z"/>
	<path class="st4" d="M88.5,51H80c-0.6,0-1-0.4-1-1s0.4-1,1-1h8.5c0.6,0,1,0.4,1,1S89.1,51,88.5,51z"/>
	<polygon class="st4" points="88.1,53.5 94.1,50 88.1,46.5 	"/>
	<path class="st4" d="M88.1,54.6c-0.6,0-1.2-0.5-1.2-1.2v-6.9c0-0.6,0.5-1.2,1.2-1.2c0.2,0,0.4,0.1,0.6,0.2l6,3.5
		c0.6,0.3,0.7,1,0.4,1.6c-0.1,0.2-0.2,0.3-0.4,0.4l-6,3.5C88.5,54.6,88.3,54.6,88.1,54.6z M89.3,48.5v2.9l2.5-1.5L89.3,48.5z"/>
	<polyline class="st5" points="38.3,54.8 41.6,70 42.9,56.5 65.7,30 37.3,47.1 	"/>
	<polygon class="st6" points="37.5,54.8 65.7,30 24.3,50.7 	"/>
	<polygon class="st6" points="49.4,57 41.6,70 42.9,56.5 	"/>
	<polygon class="st6" points="57.4,61 65.7,30 42.9,56.5 	"/>
	<path class="st4" d="M20,51h-8.5c-0.6,0-1-0.4-1-1s0.4-1,1-1H20c0.6,0,1,0.4,1,1S20.6,51,20,51z"/>
	<polygon class="st4" points="11.9,46.5 5.9,50 11.9,53.5 	"/>
	<path class="st4" d="M11.9,54.6c-0.2,0-0.4-0.1-0.6-0.2l-6-3.5c-0.6-0.3-0.7-1-0.4-1.6C5,49.2,5.1,49.1,5.3,49l6-3.5
		c0.6-0.3,1.3-0.1,1.6,0.4c0.1,0.2,0.2,0.4,0.2,0.6v6.9C13,54.1,12.5,54.6,11.9,54.6L11.9,54.6z M8.2,50l2.5,1.5v-2.9L8.2,50z"/>
</g>
</svg>
