<?xml version="1.0" encoding="utf-8"?>
<!-- Generator: Adobe Illustrator 24.1.0, SVG Export Plug-In . SVG Version: 6.00 Build 0)  -->
<svg version="1.1" id="Layer_1" xmlns="http://www.w3.org/2000/svg" xmlns:xlink="http://www.w3.org/1999/xlink" x="0px" y="0px"
	 viewBox="0 0 100 100" style="enable-background:new 0 0 100 100;" xml:space="preserve">
<style type="text/css">
	.st0{opacity:0.35;}
	.st1{fill:#B2BAD7;}
	.st2{fill:#1A044E;}
	.st3{fill:#FCCF20;}
	.st4{fill:#7D7BBD;}
	.st5{fill:#FFFFFF;}
</style>
<g id="Layer_1_1_">
	<g class="st0">
		<path class="st1" d="M92.9,45.9c-2.4-5.7-6.9-10.3-12.5-12.7c-4.6-16.8-21.9-26.6-38.7-22c-7.9,2.2-14.6,7.3-18.7,14.3
			C10.5,27.2,1.8,38.8,3.6,51.3c1.6,11.4,11.5,19.7,23,19.5c0.2,0.6,0.4,1.3,0.7,1.9C32.5,85.3,47,91.3,59.6,86.1
			c3.8-1.6,7.2-4.1,9.8-7.3c13.1,0.8,24.5-9.1,25.3-22.3C94.9,52.9,94.3,49.2,92.9,45.9z"/>
	</g>
	<polyline class="st2" points="80,57.1 49.9,39.7 20,57.1 50.1,74.4 80,57.1 	"/>
	<polyline class="st3" points="80,50.1 49.9,32.8 20,50.1 50.1,67.5 80,50.1 	"/>
	<polyline class="st4" points="80,42.9 49.9,25.6 20,42.9 50.1,60.3 80,42.9 	"/>
	<circle class="st1" cx="23.3" cy="86.7" r="6.1"/>
	<circle class="st1" cx="9.1" cy="90.9" r="4"/>
	<circle class="st1" cx="81" cy="19" r="9"/>
	<path class="st5" d="M79.4,23.3c-0.3,0-0.5-0.1-0.7-0.3l-2.1-2.1c-0.4-0.4-0.4-1,0-1.4s1-0.4,1.4,0c0,0,0,0,0,0l1.4,1.4l4.6-4.6
		c0.4-0.4,1-0.4,1.4,0c0.4,0.4,0.4,1,0,1.4c0,0,0,0,0,0L80.1,23C79.9,23.2,79.7,23.3,79.4,23.3z"/>
</g>
</svg>
