<svg xmlns="http://www.w3.org/2000/svg" xmlns:xlink="http://www.w3.org/1999/xlink" viewBox="0 0 70 70"><defs><style>.cls-1{fill:none;}.cls-2{clip-path:url(#clip-path);}.cls-3{clip-path:url(#clip-path-2);}.cls-4{fill:url(#linear-gradient);}.cls-5{fill:#1a044e;}.cls-6{fill:#fccf20;}</style><clipPath id="clip-path"><circle class="cls-1" cx="85" cy="-124.74785" r="55"/></clipPath><clipPath id="clip-path-2"><circle class="cls-1" cx="-85" cy="-124.74785" r="55"/></clipPath><linearGradient id="linear-gradient" x1="10.25126" y1="10.25126" x2="59.74874" y2="59.74874" gradientUnits="userSpaceOnUse"><stop offset="0" stop-color="#e9c5b7"/><stop offset="0.3" stop-color="#f5e0c6"/><stop offset="1" stop-color="#e0a891"/></linearGradient></defs><g id="Layer_4" data-name="Layer 4"><circle class="cls-4" cx="35" cy="35" r="35"/></g><g id="Layer_1" data-name="Layer 1"><path class="cls-5" d="M19.4585,49.038a.99973.99973,0,0,1-1-1V37.96178a5.00588,5.00588,0,0,1,5-5H47.43066a3.00328,3.00328,0,0,0,3-3V18.75768a1,1,0,0,1,2,0v11.2041a5.00588,5.00588,0,0,1-5,5H23.4585a3.00328,3.00328,0,0,0-3,3V48.038A.99974.99974,0,0,1,19.4585,49.038Z"/><path class="cls-5" d="M20.43066,25.162a1,1,0,0,1-.707-1.707l6-6A.9999.9999,0,0,1,27.1377,18.869l-6,6A.99679.99679,0,0,1,20.43066,25.162Z"/><path class="cls-5" d="M26.43066,25.162a.99677.99677,0,0,1-.707-.293l-6-6a.9999.9999,0,1,1,1.41407-1.41407l6,6a1,1,0,0,1-.707,1.707Z"/><path class="cls-5" d="M44.43066,51.23717a1,1,0,0,1-.707-1.707l6-6A.99989.99989,0,0,1,51.1377,44.9442l-6,6A.9968.9968,0,0,1,44.43066,51.23717Z"/><path class="cls-5" d="M50.43066,51.23717a.99678.99678,0,0,1-.707-.293l-6-6a.99989.99989,0,0,1,1.41407-1.41406l6,6a1,1,0,0,1-.707,1.707Z"/><circle class="cls-6" cx="19.45832" cy="50" r="5"/><path class="cls-5" d="M19.4585,55.99987a6,6,0,1,1,6-6A6.00656,6.00656,0,0,1,19.4585,55.99987Zm0-10a4,4,0,1,0,4,4A4.00426,4.00426,0,0,0,19.4585,45.99987Z"/><polygon class="cls-5" points="54.895 21 51.431 15 47.966 21 54.895 21"/><path class="cls-5" d="M54.895,22.15807h-6.9292a1.15821,1.15821,0,0,1-1.00293-1.73731l3.46484-6a1.15839,1.15839,0,0,1,1.00293-.5791h0a1.15837,1.15837,0,0,1,1.00293.5791l3.46436,6A1.15821,1.15821,0,0,1,54.895,22.15807Zm-4.92334-2.31641h2.91748l-1.4585-2.52637Z"/><circle class="cls-1" cx="35" cy="35" r="35"/></g></svg>