<svg xmlns="http://www.w3.org/2000/svg" xmlns:xlink="http://www.w3.org/1999/xlink" viewBox="0 0 70 70"><defs><style>.cls-1{fill:none;}.cls-2{clip-path:url(#clip-path);}.cls-3{clip-path:url(#clip-path-2);}.cls-4{clip-path:url(#clip-path-3);}.cls-5{clip-path:url(#clip-path-4);}.cls-6{fill:url(#linear-gradient);}.cls-7,.cls-9{fill:#1a044e;}.cls-8{fill:#fccf20;}.cls-9{fill-rule:evenodd;}</style><clipPath id="clip-path"><circle class="cls-1" cx="185" cy="-124.74785" r="55"/></clipPath><clipPath id="clip-path-2"><circle class="cls-1" cx="15" cy="-124.74785" r="55"/></clipPath><clipPath id="clip-path-3"><circle class="cls-1" cx="-155" cy="-124.74785" r="55"/></clipPath><clipPath id="clip-path-4"><circle class="cls-1" cx="-325" cy="-124.74785" r="55"/></clipPath><linearGradient id="linear-gradient" x1="10.25126" y1="10.25126" x2="59.74874" y2="59.74874" gradientUnits="userSpaceOnUse"><stop offset="0" stop-color="#d5c37b"/><stop offset="0.3" stop-color="#f8e4cb"/><stop offset="0.99921" stop-color="#ded29b"/></linearGradient></defs><g id="Layer_4" data-name="Layer 4"><circle class="cls-6" cx="35" cy="35" r="35"/></g><g id="Layer_1" data-name="Layer 1"><rect class="cls-7" x="24" y="9.99987" width="2" height="29"/><polygon class="cls-8" points="45 22 25 22 25 10 45 10 40 16 45 22"/><path class="cls-7" d="M45,22.99987H25a.99974.99974,0,0,1-1-1v-12a.99973.99973,0,0,1,1-1H45a1.00013,1.00013,0,0,1,.76807,1.64062l-4.46631,5.35938,4.46631,5.35937A1.00014,1.00014,0,0,1,45,22.99987Zm-19-2H42.86475l-3.63282-4.35938a1.00111,1.00111,0,0,1,0-1.28125l3.63282-4.35937H26Z"/><path class="cls-9" d="M25,33,44,52l-4-6,4-4L57.18787,55.18791c-.31629.347-.63929.68988-.97474,1.02527a29.99977,29.99977,0,0,1-42.42626,0l-.00232-.00238a30.10188,30.10188,0,0,1-5.13471-6.86059Z"/></g></svg>