<svg xmlns="http://www.w3.org/2000/svg" xmlns:xlink="http://www.w3.org/1999/xlink" viewBox="0 0 110 110"><defs><style>.cls-1{fill:none;}.cls-2{clip-path:url(#clip-path);}.cls-3{clip-path:url(#clip-path-2);}.cls-4{clip-path:url(#clip-path-3);}.cls-5{fill:#fff;}.cls-6{fill:#b2bad7;opacity:0.35;}.cls-7{fill:#9c9cd5;}.cls-8{fill:#1a044e;}.cls-9{fill:#fccf20;}</style><clipPath id="clip-path"><circle class="cls-1" cx="225" cy="55" r="55"/></clipPath><clipPath id="clip-path-2"><circle class="cls-1" cx="55" cy="55" r="55"/></clipPath><clipPath id="clip-path-3"><rect class="cls-1" x="-122" y="-1435" width="1024" height="4038"/></clipPath></defs><g id="Layer_4" data-name="Layer 4"><g class="cls-3"><g class="cls-4"><rect class="cls-5" x="-5" y="-5" width="120" height="120"/></g></g></g><g id="Layer_1" data-name="Layer 1"><circle class="cls-6" cx="55" cy="55" r="40"/><polygon class="cls-7" points="12.154 63.144 19.765 60.088 18.274 68.698 12.154 63.144"/><path class="cls-7" d="M83.655,95.16886,81.989,93.21154a.519.519,0,0,0-.4483-.17991l-2.55684.26273a.519.519,0,0,1-.49515-.78827l1.34672-2.18925a.519.519,0,0,0,.03257-.48195l-1.04-2.35052a.519.519,0,0,1,.59668-.71449l2.49826.60429a.519.519,0,0,0,.46843-.118l1.9141-1.71542a.519.519,0,0,1,.86391.34668l.19729,2.56272a.51906.51906,0,0,0,.25695.40906l2.223,1.29032a.519.519,0,0,1-.06275.92876l-2.37633.97956a.519.519,0,0,0-.30963.37077l-.54024,2.51289A.519.519,0,0,1,83.655,95.16886Z"/><circle class="cls-7" cx="94.25708" cy="39.67047" r="3.58847"/><rect class="cls-7" x="36.88763" y="15.79291" width="5.52745" height="5.52745" transform="translate(-1.50791 33.47286) rotate(-45)"/><rect class="cls-8" x="62.98678" y="43.70767" width="5.18455" height="16.94971" rx="2.59227" transform="translate(-17.69096 61.65528) rotate(-44.99999)"/><path class="cls-9" d="M42.70665,42.92448,53.63473,54.15362a.9308.9308,0,0,0,1.3984-.07339l4.183-5.31314a17.272,17.272,0,0,1,2.89307-2.89169l5.33372-4.19505a.93081.93081,0,0,0,.085-1.38753L56.37157,29.05952a.9308.9308,0,0,0-1.415.11093l-3.39042,4.69443A18.81056,18.81056,0,0,1,47.682,37.84043l-4.87073,3.69319A.93079.93079,0,0,0,42.70665,42.92448Z"/><path class="cls-9" d="M80.705,52.09883h0a4.63239,4.63239,0,0,1,4.63239,4.63239V77.8858A4.63238,4.63238,0,0,1,80.705,82.51818h0a4.63239,4.63239,0,0,1-4.63239-4.63239V56.73121A4.63238,4.63238,0,0,1,80.705,52.09883Z" transform="translate(-23.95635 76.78122) rotate(-44.99997)"/><rect class="cls-9" x="41.81602" y="62.7968" width="8.182" height="33.82585" rx="4.091" transform="translate(-33.8027 125.61675) rotate(-90)"/><path class="cls-8" d="M45.907,62.91421h0a5.04816,5.04816,0,0,1,5.04816,5.04816v37.83546A5.04815,5.04815,0,0,1,45.907,110.846h0a5.04816,5.04816,0,0,1-5.04816-5.04816V67.96236A5.04816,5.04816,0,0,1,45.907,62.91421Z" transform="translate(-40.97307 132.78711) rotate(-90)"/><rect class="cls-8" x="38.58767" y="38.1033" width="11.28653" height="26.49881" rx="5.64326" transform="translate(-23.35691 46.31686) rotate(-45.00001)"/><rect class="cls-8" x="58.0495" y="18.56393" width="11.44161" height="26.49881" rx="5.7208" transform="translate(-3.81754 54.41031) rotate(-44.99999)"/></g></svg>