<?xml version="1.0" encoding="UTF-8"?>
<svg width="190px" height="35px" viewBox="0 0 190 35" version="1.1" xmlns="http://www.w3.org/2000/svg" xmlns:xlink="http://www.w3.org/1999/xlink">
    <title>platformable-logo-blue-vector</title>
    <defs>
        <polygon id="path-1" points="0 0.0606561162 32.0900855 0.0606561162 32.0900855 32.1506623 0 32.1506623"></polygon>
    </defs>
    <g id="Page-1" stroke="none" stroke-width="1" fill="none" fill-rule="evenodd">
        <g id="OB-OF-Quarterly-Report-Landing-Page" transform="translate(-122.000000, -63.000000)">
            <g id="platformable-logo-blue-vector" transform="translate(122.000000, 63.267045)">
                <path d="M54.5267919,13.6998484 C54.5267919,12.4437075 54.0817766,11.8679386 52.4330352,11.8679386 L49.4497007,11.8679386 L49.4497007,17.1281982 L52.4330352,17.1281982 C54.160342,17.1281982 54.5267919,16.4738638 54.5267919,15.2178362 L54.5267919,13.6998484 Z M52.4330352,20.5303972 L49.4497007,20.5303972 L49.4497007,25.8168076 L45.5242605,25.8168076 L45.5242605,8.3872873 L52.6423542,8.3872873 C56.8821692,8.3872873 58.4523453,10.0621795 58.4523453,13.3335117 L58.4523453,15.6103236 C58.4523453,18.8816558 56.6727369,20.5303972 52.4330352,20.5303972 L52.4330352,20.5303972 Z" id="Fill-1" fill="#1B014C"></path>
                <polygon id="Fill-3" fill="#1B014C" points="60.8333073 25.8167736 60.8333073 7.86389906 64.601843 7.34054477 64.601843 25.8167736"></polygon>
                <path d="M74.1797585,21.2368746 L72.3739994,21.2368746 C71.5626474,21.2368746 71.248499,21.4464201 71.248499,22.1529427 C71.248499,22.8594653 71.5363835,23.1473498 72.2691701,23.1473498 C73.0544845,23.1473498 73.6039895,22.9642947 74.1797585,22.7023345 L74.1797585,21.2368746 Z M74.8601304,25.8167623 L74.5985098,25.0055235 C73.1329367,25.8167623 71.824268,26.078496 70.9606145,26.078496 C68.6054637,26.078496 67.6370941,24.3772267 67.6370941,22.2053574 C67.6370941,19.6404346 68.8146695,18.6198768 71.4317806,18.6198768 L74.1797585,18.6198768 L74.1797585,17.6516204 C74.1797585,16.3430649 73.9441755,15.8981628 71.9289841,15.8981628 C70.8037101,15.8981628 69.678323,16.0291429 68.4745968,16.2647259 L67.97728,13.4380693 C69.1811194,13.0718459 71.0915946,12.8099989 72.5571678,12.8099989 C76.9799247,12.8099989 77.9482942,14.1448184 77.9482942,17.6777711 L77.9482942,25.8167623 L74.8601304,25.8167623 Z" id="Fill-5" fill="#1B014C"></path>
                <path d="M85.3800269,26.0784508 C82.9461975,26.0784508 81.5331522,25.1624959 81.5331522,22.8071186 L81.5331522,16.1075498 L79.8057321,16.1075498 L79.8057321,13.0718006 L81.5331522,13.0718006 L81.5331522,10.0099007 L85.3014615,9.48654639 L85.3014615,13.0718006 L88.2064571,13.0718006 L87.9970248,16.1075498 L85.3014615,16.1075498 L85.3014615,22.2836511 C85.3014615,22.8071186 85.61561,22.9902869 86.0865496,22.9902869 C86.5053009,22.9902869 87.1073338,22.9379854 87.6568388,22.7548171 L88.1016277,25.6073979 C87.2643514,25.8952824 86.2435672,26.0784508 85.3800269,26.0784508" id="Fill-7" fill="#1B014C"></path>
                <path d="M98.0457893,10.6641558 C97.5222086,10.5594397 96.815686,10.4809875 96.3708971,10.4809875 C95.1669445,10.4809875 95.0886055,11.0043417 95.0886055,11.8417312 L95.0886055,13.3334551 L98.0979776,13.3334551 L97.836357,16.421619 L95.0886055,16.421619 L95.0886055,25.816751 L91.3200698,25.816751 L91.3200698,16.421619 L89.3832174,16.421619 L89.3832174,13.3334551 L91.3200698,13.3334551 L91.3200698,11.4230931 C91.3200698,8.80598205 92.5499467,7.34052213 95.6381105,7.34052213 C96.711083,7.34052213 97.4962843,7.49753974 98.5167289,7.70685881 L98.0457893,10.6641558 Z" id="Fill-9" fill="#1B014C"></path>
                <path d="M107.205135,21.0274876 L107.205135,17.8609847 C107.205135,16.6571454 106.576951,15.9766603 105.216094,15.9766603 C103.85535,15.9766603 103.227167,16.6571454 103.227167,17.8609847 L103.227167,21.0274876 C103.227167,22.2315534 103.85535,22.9119253 105.216094,22.9119253 C106.576951,22.9119253 107.205135,22.2315534 107.205135,21.0274876 M99.4586308,20.9228847 L99.4586308,17.9655877 C99.4586308,15.3484766 100.688734,12.8101574 105.216094,12.8101574 C109.74368,12.8101574 110.973783,15.3484766 110.973783,17.9655877 L110.973783,20.9228847 C110.973783,23.5397693 109.74368,26.0784281 105.216094,26.0784281 C100.688734,26.0784281 99.4586308,23.5397693 99.4586308,20.9228847" id="Fill-11" fill="#1B014C"></path>
                <path d="M117.515452,18.0442097 L117.515452,25.816751 L113.746916,25.816751 L113.746916,13.0718346 L116.887268,13.0718346 L117.149115,14.3018247 C117.93409,13.7783572 119.556794,13.0195331 120.577352,12.8101008 L120.891274,16.3693175 C119.766226,16.8142196 118.32669,17.4684407 117.515452,18.0442097" id="Fill-13" fill="#1B014C"></path>
                <path d="M130.233731,25.8167736 L130.233731,17.389898 C130.233731,16.8142422 129.971884,16.4739431 129.317776,16.4739431 C128.637177,16.4739431 127.38115,16.9449959 126.569911,17.389898 L126.569911,25.8167736 L122.801375,25.8167736 L122.801375,13.071744 L125.601541,13.071744 L125.994142,14.0401136 C127.564318,13.2811763 129.605547,12.8101235 131.071007,12.8101235 C132.196394,12.8101235 132.955331,13.2550255 133.400347,14.0401136 C134.839769,13.3334777 136.750131,12.8101235 138.503475,12.8101235 C140.675684,12.8101235 141.434622,14.432601 141.434622,16.8926944 L141.434622,25.8167736 L137.666086,25.8167736 L137.666086,17.389898 C137.666086,16.8142422 137.404352,16.4739431 136.750131,16.4739431 C136.069759,16.4739431 134.813392,16.9449959 134.002266,17.389898 L134.002266,25.8167736 L130.233731,25.8167736 Z" id="Fill-15" fill="#1B014C"></path>
                <path d="M150.881229,21.2368746 L149.075583,21.2368746 C148.264231,21.2368746 147.950196,21.4464201 147.950196,22.1529427 C147.950196,22.8594653 148.237967,23.1473498 148.970754,23.1473498 C149.756068,23.1473498 150.30546,22.9642947 150.881229,22.7023345 L150.881229,21.2368746 Z M151.561601,25.8167623 L151.29998,25.0055235 C149.834294,25.8167623 148.525738,26.078496 147.662198,26.078496 C145.307047,26.078496 144.338564,24.3772267 144.338564,22.2053574 C144.338564,19.6404346 145.516366,18.6198768 148.13359,18.6198768 L150.881229,18.6198768 L150.881229,17.6516204 C150.881229,16.3430649 150.645646,15.8981628 148.630568,15.8981628 C147.505294,15.8981628 146.379906,16.0291429 145.176067,16.2647259 L144.67875,13.4380693 C145.882816,13.0718459 147.793065,12.8099989 149.258751,12.8099989 C153.681395,12.8099989 154.649765,14.1448184 154.649765,17.6777711 L154.649765,25.8167623 L151.561601,25.8167623 Z" id="Fill-17" fill="#1B014C"></path>
                <path d="M161.584339,22.7547718 C162.133844,22.8070733 162.604897,22.8070733 163.128251,22.8070733 C165.012576,22.8070733 165.352762,21.9435331 165.352762,20.7396937 L165.352762,17.4422107 C165.352762,16.6048213 164.986425,16.0813538 163.992018,16.0813538 C163.180779,16.0813538 162.290862,16.4216529 161.584339,16.7878764 L161.584339,22.7547718 Z M162.997384,26.0784055 C161.636527,26.0784055 159.569034,25.9476518 157.815803,25.6597673 L157.815803,7.86379717 L161.584339,7.34044289 L161.584339,13.5166574 C162.604897,13.1240568 163.808736,12.8100216 165.195744,12.8100216 C168.022174,12.8100216 169.121297,14.5635924 169.121297,17.41606 L169.121297,20.7136562 C169.121297,23.7491789 168.257757,26.0784055 162.997384,26.0784055 L162.997384,26.0784055 Z" id="Fill-19" fill="#1B014C"></path>
                <polygon id="Fill-21" fill="#1B014C" points="171.894656 25.8167736 171.894656 7.86389906 175.663305 7.34054477 175.663305 25.8167736"></polygon>
                <path d="M185.502671,17.3899546 C185.502671,16.5001504 185.241051,15.7673638 183.932608,15.7673638 C182.624053,15.7673638 182.205302,16.5001504 182.205302,17.3899546 L182.205302,17.9394596 L185.502671,17.9394596 L185.502671,17.3899546 Z M182.205302,20.7658897 L182.205302,21.1322264 C182.205302,22.5977995 182.78107,22.9902869 184.508377,22.9902869 C185.68584,22.9902869 187.256129,22.781081 188.381516,22.4407819 L188.931021,25.267212 C187.779483,25.6858501 185.921423,26.0784508 184.141927,26.0784508 C180.006942,26.0784508 178.436653,24.0371087 178.436653,20.8967566 L178.436653,17.9133088 C178.436653,15.1654441 179.666756,12.8100668 183.906344,12.8100668 C188.145933,12.8100668 189.061775,15.3224617 189.061775,18.0964772 L189.061775,20.7658897 L182.205302,20.7658897 Z" id="Fill-23" fill="#1B014C"></path>
                <g id="Group-27" transform="translate(0.000000, 0.052641)">
                    <mask id="mask-2" fill="white">
                        <use xlink:href="#path-1"></use>
                    </mask>
                    <g id="Clip-26"></g>
                    <polygon id="Fill-25" fill="#1B014C" mask="url(#mask-2)" points="12.8360138 3.26961146 3.20892138 12.8967039 -3.39619912e-05 16.1056592 3.20892138 19.3146146 16.0450824 32.1506623 19.2540377 28.941707 6.41798992 16.1056592 16.0450824 6.47868 25.6720616 16.1056592 19.2540377 22.5236831 22.4631062 25.7326385 28.8810169 19.3146146 32.0900855 16.1056592 28.8810169 12.8967039 19.2540377 3.26961146 16.0449691 0.0606561162"></polygon>
                </g>
                <polygon id="Fill-28" fill="#1B014C" points="16.0450484 12.6284155 12.5151522 16.1583116 16.0450484 19.6882078 19.5749445 16.1583116"></polygon>
            </g>
        </g>
    </g>
</svg>