<svg xmlns="http://www.w3.org/2000/svg" xmlns:xlink="http://www.w3.org/1999/xlink" viewBox="0 0 70 70"><defs><style>.cls-1{fill:none;}.cls-2{clip-path:url(#clip-path);}.cls-3{clip-path:url(#clip-path-2);}.cls-4{clip-path:url(#clip-path-3);}.cls-5{fill:url(#linear-gradient);}.cls-6{fill:#1a044e;}.cls-7{fill:#fccf20;}</style><clipPath id="clip-path"><circle class="cls-1" cx="135" cy="-124.74785" r="55"/></clipPath><clipPath id="clip-path-2"><circle class="cls-1" cx="-35" cy="-124.74785" r="55"/></clipPath><clipPath id="clip-path-3"><circle class="cls-1" cx="-205" cy="-124.74785" r="55"/></clipPath><linearGradient id="linear-gradient" x1="10.25126" y1="10.25126" x2="59.74874" y2="59.74874" gradientUnits="userSpaceOnUse"><stop offset="0" stop-color="#ced5e2"/><stop offset="0.3" stop-color="#efeae4"/><stop offset="1" stop-color="#ccd1d3"/></linearGradient></defs><g id="Layer_4" data-name="Layer 4"><circle class="cls-5" cx="35" cy="35" r="35"/></g><g id="Layer_1" data-name="Layer 1"><path class="cls-6" d="M35,10.99987a.99974.99974,0,0,1-1-1v-5a1,1,0,0,1,2,0v5A.99974.99974,0,0,1,35,10.99987Z"/><path class="cls-6" d="M35,65.99987a.99974.99974,0,0,1-1-1v-5a1,1,0,0,1,2,0v5A.99974.99974,0,0,1,35,65.99987Z"/><path class="cls-6" d="M65,35.99987H60a1,1,0,0,1,0-2h5a1,1,0,0,1,0,2Z"/><path class="cls-6" d="M10,35.99987H5a1,1,0,0,1,0-2h5a1,1,0,0,1,0,2Z"/><circle class="cls-6" cx="35" cy="35" r="5"/><polyline class="cls-7" points="38.536 38.536 51.971 18.029 31.464 31.464"/><path class="cls-6" d="M38.53467,39.536a.99957.99957,0,0,1-.83545-1.54785L48.50391,21.496,32.01221,32.30162a1.00029,1.00029,0,0,1-1.09571-1.67383L51.42285,17.19225A1.00013,1.00013,0,0,1,52.80713,18.577L39.37207,39.08385A.99882.99882,0,0,1,38.53467,39.536Z"/><circle class="cls-6" cx="35" cy="35" r="5"/><path class="cls-6" d="M35,40.99987a6,6,0,1,1,6-6A6.00657,6.00657,0,0,1,35,40.99987Zm0-10a4,4,0,1,0,4,4A4.00426,4.00426,0,0,0,35,30.99987Z"/><path class="cls-6" d="M18.02979,52.97057a1,1,0,0,1-.83692-1.54785L30.62793,30.91686a.99987.99987,0,1,1,1.67285,1.0957L21.49609,48.50377l16.4917-10.80469a1.00029,1.00029,0,0,1,1.09571,1.67383L18.57715,52.80748A.99937.99937,0,0,1,18.02979,52.97057Z"/></g></svg>