<svg xmlns="http://www.w3.org/2000/svg" xmlns:xlink="http://www.w3.org/1999/xlink" viewBox="0 0 70 70"><defs><style>.cls-1{fill:none;}.cls-2{clip-path:url(#clip-path);}.cls-3{clip-path:url(#clip-path-2);}.cls-4{fill:#8987cd;}.cls-5{fill:#fccf20;}.cls-6{fill:#1a044e;}</style><clipPath id="clip-path"><circle class="cls-1" cx="205" cy="-124.74785" r="55"/></clipPath><clipPath id="clip-path-2"><circle class="cls-1" cx="35" cy="-124.74785" r="55"/></clipPath></defs><g id="Layer_4" data-name="Layer 4"><circle class="cls-4" cx="35" cy="35" r="35"/></g><g id="Layer_1" data-name="Layer 1"><path class="cls-5" d="M32.007,41.11921h6.004v0A2.6416,2.6416,0,0,1,39.3174,38.8678c2.06677-1.24891,2.82428-3.51634,2.82428-6.10734a7.13325,7.13325,0,0,0-14.23025-.718c-.28513,2.9173.56489,5.5181,2.86278,6.86925A2.552,2.552,0,0,1,32.007,41.11921Z"/><path class="cls-6" d="M38.01123,42.119H32.00684a.99974.99974,0,0,1-1-1,1.55128,1.55128,0,0,0-.73926-1.34473c-2.47412-1.45508-3.69531-4.30859-3.35108-7.8291a8.18011,8.18011,0,0,1,7.565-7.30078,8.05376,8.05376,0,0,1,6.09228,2.18554,8.16351,8.16351,0,0,1,2.56787,5.93067c0,3.248-1.14355,5.65625-3.30713,6.96289a1.63983,1.63983,0,0,0-.82324,1.39551A.99974.99974,0,0,1,38.01123,42.119Zm-5.00439-1h0Zm-.14014-1h4.2876a3.67084,3.67084,0,0,1,1.6455-2.10645c1.5542-.93945,2.3418-2.706,2.3418-5.252a6.1331,6.1331,0,0,0-6.53369-6.12012,6.16327,6.16327,0,0,0-5.70117,5.5c-.15576,1.59375-.0542,4.48047,2.37451,5.90918A3.522,3.522,0,0,1,32.8667,40.119Z"/><path class="cls-6" d="M35.00879,48.90026a2.56672,2.56672,0,0,1-2.209-1.2793.99988.99988,0,0,1,1.7295-1.00391.5662.5662,0,0,0,.96-.001.99994.99994,0,1,1,1.72851,1.00586A2.56906,2.56906,0,0,1,35.00879,48.90026Z"/><path class="cls-6" d="M38.01123,45.119H32.00684a1,1,0,1,1,0-2h6.00439a1,1,0,0,1,0,2Z"/><line class="cls-5" x1="42.10196" y1="24.67677" x2="43.23036" y2="23.332"/><path class="cls-6" d="M42.10156,25.67662a1.00033,1.00033,0,0,1-.76562-1.64258l1.12842-1.34472a.99991.99991,0,0,1,1.53222,1.28515L42.86816,25.3192A.99641.99641,0,0,1,42.10156,25.67662Z"/><line class="cls-5" x1="27.94607" y1="24.67677" x2="26.81767" y2="23.332"/><path class="cls-6" d="M27.94678,25.67662a.99641.99641,0,0,1-.7666-.35742l-1.12842-1.34473A.99991.99991,0,0,1,27.584,22.68932L28.7124,24.034a1.00033,1.00033,0,0,1-.76562,1.64258Z"/><line class="cls-5" x1="38.79011" y1="22.76467" x2="39.39052" y2="21.11507"/><path class="cls-6" d="M38.79,23.76451a1,1,0,0,1-.93945-1.34179l.60058-1.64942a.9997.9997,0,1,1,1.87891.6836l-.60059,1.64941A.99965.99965,0,0,1,38.79,23.76451Z"/><path class="cls-6" d="M35.02393,23.10045a.99973.99973,0,0,1-1-1V20.34557a1,1,0,0,1,2,0v1.75488A.99974.99974,0,0,1,35.02393,23.10045Z"/><line class="cls-5" x1="31.25792" y1="22.76467" x2="30.65751" y2="21.11507"/><path class="cls-6" d="M31.25781,23.76451a1.00028,1.00028,0,0,1-.93994-.6582l-.6001-1.64941a1.00016,1.00016,0,0,1,1.87989-.6836l.60009,1.64942a1.00082,1.00082,0,0,1-.93994,1.34179Z"/></g></svg>