<svg xmlns="http://www.w3.org/2000/svg" viewBox="0 0 100 100"><defs><style>.cls-1,.cls-6{fill:#ffd85f;}.cls-1{stroke:#ffd85f;stroke-width:2.66667px;}.cls-1,.cls-5{stroke-linecap:round;stroke-miterlimit:10;}.cls-2{fill:#e4e6f2;}.cls-3{fill:#b1b9d5;}.cls-4{fill:#9b9ad2;}.cls-5{fill:none;stroke:#e6e6e6;stroke-width:2px;}.cls-7{fill:#14003d;}</style></defs><g id="info"><g id="info-2" data-name="info"><circle class="cls-1" cx="52.91064" cy="47.77908" r="4"/><path class="cls-2" d="M33.32777,82.93933a2.09733,2.09733,0,0,1-2.76663-.46451L18.53821,68.14644a2.06713,2.06713,0,0,1-.24369-2.41943,2.00622,2.00622,0,0,1,3.23925-.23349L33.7166,80.01245a2.00039,2.00039,0,0,1-.24686,2.8182Q33.40122,82.88814,33.32777,82.93933Z"/><path class="cls-2" d="M34.45985,84.58832a4.14068,4.14068,0,0,1-5.47222-.87729l-11.978-14.27487A4.00092,4.00092,0,1,1,22.981,64.10955q.04327.0485.08494.09839l12.1828,14.51894a4.00446,4.00446,0,0,1-.4999,5.641Q34.60939,84.48462,34.45985,84.58832ZM20.00168,66.77909,32.18639,81.29646Z"/><path class="cls-3" d="M15.00167,58.11884l8.66025-5h0l10,17.32051h0l-8.66025,5a10,10,0,0,1-13.66025-3.66026h0A10,10,0,0,1,15.00167,58.11884Z"/><polygon class="cls-4" points="46.143 32.057 23.662 53.119 33.662 70.439 63.143 61.501 46.143 32.057"/><line class="cls-5" x1="83.14269" y1="61.50142" x2="68.14269" y2="61.50152"/><line class="cls-5" x1="68.14269" y1="55.50152" x2="78.10465" y2="54.62997"/><line class="cls-5" x1="56.14278" y1="14.7362" x2="48.6427" y2="27.72653"/><line class="cls-5" x1="53.83885" y1="30.72653" x2="59.5746" y2="22.53503"/></g><circle class="cls-6" cx="83.86325" cy="28.75" r="5"/><polygon class="cls-7" points="83.863 36.75 78.09 46.75 89.637 46.75 83.863 36.75"/><rect class="cls-4" x="66.86325" y="24.75" width="8" height="8"/><rect class="cls-3" x="66.97416" y="37.86091" width="7.77818" height="7.77818" transform="translate(-8.76634 62.33618) rotate(-45)"/></g></svg>