<svg xmlns="http://www.w3.org/2000/svg" viewBox="0 0 100 140"><defs><style>.cls-1{fill:#fff;}.cls-2{fill:#7d5bae;}.cls-3{fill:#606060;opacity:0.2;}.cls-4{fill:#d8c1fb;}.cls-5{fill:#632fae;}</style></defs><g id="info"><rect class="cls-1" width="100" height="140"/><rect class="cls-2" x="10" y="35" width="30" height="4"/><rect class="cls-3" x="10" y="65" width="61.95328" height="2"/><rect class="cls-3" x="10" y="69" width="61.43972" height="2"/><rect class="cls-3" x="10" y="73" width="60.05217" height="2"/><rect class="cls-3" x="10" y="77" width="65" height="2"/><rect class="cls-3" x="10" y="81" width="61.97604" height="2"/><rect class="cls-3" x="10" y="85" width="64.60568" height="2"/><rect class="cls-3" x="10" y="93" width="64.60568" height="2"/><rect class="cls-3" x="10" y="89" width="61.61338" height="2"/><rect class="cls-3" x="10" y="125" width="61.04106" height="2"/><rect class="cls-3" x="10" y="121" width="60.54216" height="2"/><rect class="cls-3" x="10" y="117" width="59.19422" height="2"/><rect class="cls-3" x="10" y="113" width="64.0008" height="2"/><rect class="cls-3" x="10" y="105" width="61.06317" height="2"/><rect class="cls-3" x="10" y="109" width="63.61773" height="2"/><rect class="cls-3" x="10" y="101" width="63.61773" height="2"/><rect class="cls-3" x="10" y="97" width="60.71086" height="2"/><rect class="cls-4" x="10" y="47" width="35" height="4"/><rect class="cls-2" x="10" y="41" width="40" height="4"/><rect class="cls-4" x="10" y="53" width="22.81871" height="4"/><polygon class="cls-5" points="26 0 10 0 10 25 18.5 17 26 25 26 0"/></g></svg>