<svg xmlns="http://www.w3.org/2000/svg" viewBox="0 0 100 100"><defs><style>.cls-1{fill:#a2aacd;}.cls-2{fill:#6a65ae;}.cls-3,.cls-4,.cls-5,.cls-7{fill:none;stroke-width:2px;}.cls-3,.cls-4,.cls-5{stroke:#b2bad7;}.cls-3,.cls-5,.cls-7{stroke-linecap:round;}.cls-3{stroke-linejoin:round;}.cls-4,.cls-5,.cls-7{stroke-miterlimit:10;}.cls-6{fill:#f9cf23;}.cls-7{stroke:#e6e6e6;stroke-dasharray:0 8.10521;}</style></defs><g id="info"><circle class="cls-1" cx="29" cy="24" r="10"/><path class="cls-1" d="M44,52a15,15,0,0,0-30,0"/><rect class="cls-2" x="54" y="80" width="30" height="6"/><line class="cls-3" x1="53" y1="65" x2="85" y2="65"/><line class="cls-3" x1="53" y1="77" x2="85" y2="77"/><line class="cls-4" x1="55.28571" y1="65" x2="55.28571" y2="74"/><line class="cls-4" x1="59.85714" y1="65" x2="59.85714" y2="74"/><line class="cls-4" x1="64.42857" y1="65" x2="64.42857" y2="74"/><line class="cls-4" x1="69" y1="65" x2="69" y2="74"/><line class="cls-4" x1="73.57143" y1="65" x2="73.57143" y2="74"/><line class="cls-4" x1="78.14286" y1="65" x2="78.14286" y2="74"/><line class="cls-4" x1="82.71429" y1="65" x2="82.71429" y2="74"/><path class="cls-2" d="M76.00012,39.49984c-2.89349-.77429-4.34009-.58056-7.2337-4.83826-.00037,3.87073-.00037,5.80591,0,9.67676C71.66,44.72518,73.10669,42.59628,76.00012,39.49984Z"/><path class="cls-2" d="M76.00012,39.49984c2.8935.77429,4.3407.58057,7.234,4.8385V34.66158C80.34082,34.27438,78.89355,36.40341,76.00012,39.49984Z"/><path class="cls-2" d="M76.00012,39.49984c-2.89343,3.09644-4.34009,5.22534-7.2337,4.8385,5.7876,4.64453,8.68115-4.645,14.46765,0C80.34082,40.08041,78.89362,40.27413,76.00012,39.49984Z"/><path class="cls-2" d="M76.00012,39.49984c-2.89349-.77429-4.34009-.58056-7.2337-4.83826,5.7876,4.64466,8.68115-4.64514,14.46765,0C80.34082,34.27438,78.89355,36.40341,76.00012,39.49984Z"/><line class="cls-5" x1="69" y1="34.5" x2="69" y2="49.5"/><path class="cls-6" d="M81.5,62a12.5,12.5,0,0,0-25,0"/><path class="cls-7" d="M21.08716,57.99984A30.017,30.017,0,0,0,46.59277,79.8019"/><path class="cls-7" d="M69.9082,27.56557a29.9331,29.9331,0,0,0-25.30737-7.07165"/></g></svg>