<svg xmlns="http://www.w3.org/2000/svg" viewBox="0 0 100 100"><defs><style>.cls-1{fill:#e4e6f2;}.cls-2{fill:#b1b9d5;}.cls-3,.cls-7{fill:none;stroke-linecap:round;stroke-miterlimit:10;stroke-width:2px;}.cls-3{stroke:#14003d;}.cls-4{fill:#9b9ad2;}.cls-5{fill:#ffd86b;}.cls-6{fill:#1b014c;}.cls-7{stroke:#ffd86b;}</style></defs><g id="info"><path class="cls-1" d="M66.175,55.88A4.00006,4.00006,0,0,0,62.783,54h-.60028l.07849.89716a1.99887,1.99887,0,0,1-1.81787,2.166L40.51953,58.80631c-.0581.00488-.11621.00781-.17432.00781A1.99915,1.99915,0,0,1,38.353,56.988L38.09167,54H37.217a4.00006,4.00006,0,0,0-3.392,1.88L25,70H75Z"/><rect class="cls-2" x="25" y="70" width="50" height="20"/><line class="cls-3" x1="38.73326" y1="62" x2="61.26674" y2="62"/><rect class="cls-4" x="39.00001" y="26.00001" width="19.99999" height="29.99998" transform="translate(-3.38694 4.42667) rotate(-5.00003)"/><path class="cls-5" d="M51.799,45.88571a.44577.44577,0,0,0,.41152-.39943,2.222,2.222,0,0,1,.33913-1.0206l1.85639-2.86387a6.70962,6.70962,0,0,0,.97977-4.10072l-.02315-.26454a6.75693,6.75693,0,0,0-7.04747-6.21214,6.66668,6.66668,0,0,0-6.26076,7.04926h0q.00555.09346.01371.18675l.03523.4027a6.70958,6.70958,0,0,0,1.677,3.86827l2.3255,2.498a2.22213,2.22213,0,0,1,.51119.9462.44576.44576,0,0,0,.47463.32191Z"/><path class="cls-6" d="M48.4851,50.414a1.66665,1.66665,0,0,0,2.65648-.23242Z"/><path class="cls-2" d="M48.4851,50.414l2.65648-.23242c1.43892-.12589,1.32863-1.38653,1.25493-2.22893l-.14526-1.6603a.44443.44443,0,0,0-.48148-.404l-4.64884.40672a.44444.44444,0,0,0-.404.48148l.14526,1.6603C46.93588,49.27919,47.04617,50.53983,48.4851,50.414Z"/><line class="cls-7" x1="47.69266" y1="21.05709" x2="47.69266" y2="11.11438"/><line class="cls-7" x1="52.67363" y1="23.02131" x2="52.67363" y2="15.85568"/><line class="cls-7" x1="42.71168" y1="23.89287" x2="42.71168" y2="16.72724"/></g></svg>