<svg xmlns="http://www.w3.org/2000/svg" xmlns:xlink="http://www.w3.org/1999/xlink" viewBox="0 0 100 100"><defs><style>.cls-1,.cls-17{fill:none;}.cls-2{fill:#87acfc;}.cls-3{clip-path:url(#clip-path);}.cls-4{fill:#8d8cbf;}.cls-5{fill:#9b9ad2;}.cls-6{fill:#e6e6e6;}.cls-7{fill:#c6d7fc;}.cls-8{clip-path:url(#clip-path-2);}.cls-9{fill:#b4c4e6;}.cls-10{clip-path:url(#clip-path-3);}.cls-11{clip-path:url(#clip-path-4);}.cls-12{fill:#a2aacd;}.cls-13{fill:#e4e7f1;}.cls-14{fill:#9c9cd5;}.cls-15{fill:#1a044e;}.cls-16{fill:#fccf20;}.cls-17{stroke:#fccf20;stroke-miterlimit:10;stroke-width:2px;}</style><clipPath id="clip-path"><path class="cls-1" d="M70.89474,57.156l-.01967,6.93513c-.00872,3.07626-2.03046,6.14774-6.0683,8.49428-8.12991,4.72459-21.35413,4.72629-29.53725.0017-4.11716-2.37706-6.17308-5.49718-6.16425-8.61265l.01966-6.93514c-.00883,3.11548,2.0471,6.2356,6.16425,8.61264,8.18311,4.72452,21.40733,4.7229,29.53725-.00169C68.86426,63.30374,70.886,60.23226,70.89474,57.156Z"/></clipPath><clipPath id="clip-path-2"><path class="cls-1" d="M70.89474,64.09114l-.01967,6.93513c-.00872,3.07626-2.03046,6.14774-6.0683,8.49428-8.12991,4.72459-21.35413,4.72628-29.53725.00169-4.11716-2.377-6.17308-5.49716-6.16425-8.61264l.01966-6.93513c-.00883,3.11547,2.0471,6.23559,6.16425,8.61265,8.18311,4.72452,21.40733,4.72289,29.53725-.0017C68.86426,70.23888,70.886,67.1674,70.89474,64.09114Z"/></clipPath><clipPath id="clip-path-3"><path class="cls-1" d="M29.10527,57.156l.01967,6.93513c.00871,3.07626,2.03046,6.14774,6.0683,8.49428,8.12991,4.72459,21.35413,4.72629,29.53725.0017,4.11716-2.37706,6.17308-5.49718,6.16425-8.61265l-.01966-6.93514c.00883,3.11548-2.04711,6.2356-6.16425,8.61264-8.18312,4.72452-21.40734,4.7229-29.53725-.00169C31.13574,63.30374,29.114,60.23226,29.10527,57.156Z"/></clipPath><clipPath id="clip-path-4"><path class="cls-1" d="M29.10527,64.09114l.01967,6.93513c.00871,3.07626,2.03046,6.14774,6.0683,8.49428,8.12991,4.72459,21.35413,4.72628,29.53725.00169,4.11716-2.377,6.17308-5.49716,6.16425-8.61264l-.01966-6.93513c.00883,3.11547-2.04711,6.23559-6.16425,8.61265-8.18312,4.72452-21.40734,4.72286-29.53725-.0017C31.13574,70.23888,29.114,67.1674,29.10527,64.09114Z"/></clipPath></defs><g id="info"><path class="cls-2" d="M70.89474,57.156l-.01967,6.93513c-.00872,3.07626-2.03046,6.14774-6.0683,8.49428-8.12991,4.72459-21.35413,4.72629-29.53725.0017-4.11716-2.37706-6.17308-5.49718-6.16425-8.61265l.01966-6.93514c-.00883,3.11548,2.0471,6.2356,6.16425,8.61264,8.18311,4.72452,21.40733,4.7229,29.53725-.00169C68.86426,63.30374,70.886,60.23226,70.89474,57.156Z"/><g class="cls-3"><path class="cls-4" d="M70.89474,57.156l-.01966,6.93513c-.00873,3.07626-2.03048,6.14774-6.06831,8.49428-8.12991,4.72459-21.35413,4.72629-29.53725.0017-4.11716-2.37706-6.17308-5.49718-6.16425-8.61265l.01966-6.93514c-.00883,3.11548,2.0471,6.2356,6.16425,8.61264,8.18311,4.72452,21.40733,4.7229,29.53725-.00169,4.03783-2.34654,6.05957-5.418,6.06831-8.49427"/></g><path class="cls-5" d="M64.73012,48.54276c8.18312,4.72452,8.22353,12.38449.09631,17.10752-8.12992,4.72459-21.35414,4.72628-29.53725.00169s-8.2235-12.38448-.09359-17.10906C43.32281,43.81987,56.547,43.81824,64.73012,48.54276Z"/><path class="cls-6" d="M70.89474,71.02629l-.01967,6.93514c-.00872,3.07626-2.03046,6.14776-6.0683,8.49428-8.12991,4.72459-21.35413,4.72629-29.53725.0017-4.11716-2.37706-6.17308-5.49718-6.16425-8.61265l.01966-6.93514c-.00883,3.11548,2.0471,6.23559,6.16425,8.61264,8.18311,4.72452,21.40733,4.7229,29.53725-.0017C68.86426,77.174,70.886,74.10255,70.89474,71.02629Z"/><path class="cls-7" d="M70.89474,64.09114l-.01967,6.93513c-.00872,3.07626-2.03046,6.14774-6.0683,8.49428-8.12991,4.72459-21.35413,4.72628-29.53725.00169-4.11716-2.377-6.17308-5.49716-6.16425-8.61264l.01966-6.93513c-.00883,3.11547,2.0471,6.23559,6.16425,8.61265,8.18311,4.72452,21.40733,4.72289,29.53725-.0017C68.86426,70.23888,70.886,67.1674,70.89474,64.09114Z"/><g class="cls-8"><path class="cls-9" d="M70.89474,64.09114l-.01966,6.93513c-.00873,3.07626-2.03048,6.14774-6.06831,8.49428-8.12991,4.72459-21.35413,4.72628-29.53725.00169-4.11716-2.377-6.17308-5.49716-6.16425-8.61264l.01966-6.93513c-.00883,3.11547,2.0471,6.23559,6.16425,8.61265,8.18311,4.72452,21.40733,4.72289,29.53725-.0017,4.03783-2.34654,6.05957-5.418,6.06831-8.49428"/></g><path class="cls-2" d="M29.10527,57.156l.01967,6.93513c.00871,3.07626,2.03046,6.14774,6.0683,8.49428,8.12991,4.72459,21.35413,4.72629,29.53725.0017,4.11716-2.37706,6.17308-5.49718,6.16425-8.61265l-.01966-6.93514c.00883,3.11548-2.04711,6.2356-6.16425,8.61264-8.18312,4.72452-21.40734,4.7229-29.53725-.00169C31.13574,63.30374,29.114,60.23226,29.10527,57.156Z"/><g class="cls-10"><path class="cls-4" d="M29.10527,57.156l.01965,6.93513c.00873,3.07626,2.03048,6.14774,6.06831,8.49428,8.12992,4.72459,21.35414,4.72629,29.53725.0017,4.11716-2.37706,6.17308-5.49718,6.16426-8.61265l-.01966-6.93514c.00883,3.11548-2.04711,6.2356-6.16425,8.61264-8.18312,4.72452-21.40734,4.7229-29.53725-.00169-4.03784-2.34654-6.05957-5.418-6.06831-8.49427"/></g><path class="cls-5" d="M35.26987,48.54276c-8.18311,4.72452-8.22352,12.38449-.0963,17.10752,8.12991,4.72459,21.35413,4.72628,29.53725.00169s8.2235-12.38448.09358-17.10906C56.67719,43.81987,43.453,43.81824,35.26987,48.54276Z"/><path class="cls-6" d="M29.10527,71.02629l.01967,6.93514c.00871,3.07626,2.03046,6.14776,6.0683,8.49428,8.12991,4.72459,21.35413,4.72629,29.53725.0017,4.11716-2.37706,6.17308-5.49718,6.16425-8.61265l-.01966-6.93514c.00883,3.11548-2.04711,6.23559-6.16425,8.61264-8.18312,4.72452-21.40734,4.7229-29.53725-.0017C31.13574,77.174,29.114,74.10255,29.10527,71.02629Z"/><path class="cls-7" d="M29.10527,64.09114l.01967,6.93513c.00871,3.07626,2.03046,6.14774,6.0683,8.49428,8.12991,4.72459,21.35413,4.72628,29.53725.00169,4.11716-2.377,6.17308-5.49716,6.16425-8.61264l-.01966-6.93513c.00883,3.11547-2.04711,6.23559-6.16425,8.61265-8.18312,4.72452-21.40734,4.72286-29.53725-.0017C31.13574,70.23888,29.114,67.1674,29.10527,64.09114Z"/><g class="cls-11"><path class="cls-12" d="M29.10527,64.09114l.01965,6.93513c.00873,3.07626,2.03048,6.14774,6.06831,8.49428,8.12992,4.72459,21.35414,4.72628,29.53725.00169,4.11716-2.377,6.17308-5.49716,6.16426-8.61264l-.01966-6.93513c.00883,3.11547-2.04711,6.23559-6.16425,8.61265-8.18312,4.72452-21.40734,4.72286-29.53725-.0017-4.03784-2.34654-6.05957-5.418-6.06831-8.49428"/></g><ellipse class="cls-13" cx="30" cy="31" rx="20" ry="12.40351"/><circle class="cls-14" cx="30" cy="31.00001" r="9.30262"/><circle class="cls-15" cx="32" cy="33" r="4.65131"/><circle class="cls-16" cx="70" cy="30.58293" r="5"/><circle class="cls-16" cx="85" cy="22.1412" r="5"/><circle class="cls-16" cx="85" cy="39.8588" r="5"/><polyline class="cls-17" points="85 21.923 70 30.583 85 39.243"/></g></svg>