<svg xmlns="http://www.w3.org/2000/svg" viewBox="0 0 100 100"><defs><style>.cls-1{fill:#7d7ab9;}.cls-2,.cls-5{fill:#a2aacd;}.cls-3,.cls-4,.cls-7{fill:none;}.cls-3{stroke:#e6e6e6;stroke-dasharray:0 8.10521;}.cls-3,.cls-4,.cls-5,.cls-7{stroke-linecap:round;}.cls-3,.cls-6,.cls-8{stroke-miterlimit:10;}.cls-3,.cls-4,.cls-5,.cls-6,.cls-7,.cls-8{stroke-width:2px;}.cls-4{stroke:#fff;}.cls-4,.cls-5,.cls-7{stroke-linejoin:round;}.cls-5,.cls-7{stroke:#a2aacd;}.cls-6{fill:#fbd040;stroke:#fbd040;}.cls-8{fill:#14003d;stroke:#14003d;}</style></defs><g id="info"><circle class="cls-1" cx="75" cy="62" r="10"/><path class="cls-1" d="M90,90a15,15,0,0,0-30,0"/><circle class="cls-2" cx="25" cy="20" r="10"/><path class="cls-2" d="M40,48a15,15,0,0,0-30,0"/><path class="cls-3" d="M89.95013,52.06523A40.00263,40.00263,0,0,0,40.64474,11.1099"/><path class="cls-3" d="M10.48053,56.08018A40.01292,40.01292,0,0,0,52.00009,89.95154"/><g id="info-2" data-name="info"><g id="Layer_2-2" data-name="Layer 2"><line class="cls-4" x1="53.39355" y1="50.55297" x2="50.78693" y2="53.15958"/><polyline class="cls-5" points="43.384 66.873 67.923 42.333 61.667 36.077 37.128 60.616"/><path class="cls-6" d="M70.0083,40.24758l3.12794-3.128a2.949,2.949,0,0,0,0-4.17057L71.051,30.86375a2.94905,2.94905,0,0,0-4.17058,0l-3.12793,3.12794Z"/><polyline class="cls-6" points="37.128 60.616 34 70 43.384 66.873"/><line class="cls-7" x1="37.12795" y1="60.6162" x2="43.38382" y2="66.87207"/><polygon class="cls-8" points="34 70 34.782 67.654 36.346 69.219 34 70"/></g></g></g></svg>