<svg xmlns="http://www.w3.org/2000/svg" viewBox="0 0 100 100"><defs><style>.cls-1,.cls-2{fill:none;stroke-width:4px;}.cls-1,.cls-3{stroke:#15003b;stroke-linejoin:round;}.cls-2{stroke:#fdcf3f;stroke-miterlimit:10;}.cls-3{fill:#15003b;stroke-linecap:round;stroke-width:2px;}.cls-4{fill:#e4e6f2;}.cls-5{fill:#b1b9d5;}.cls-6{fill:#9b9ad2;}.cls-7{fill:#14003d;}</style></defs><g id="info"><path class="cls-1" d="M70.54,16.19619V38.877a5,5,0,0,1-5,5h-26a5,5,0,0,0-5,5v5"/><line class="cls-2" x1="19.54" y1="28.70004" x2="31.54" y2="16.70004"/><line class="cls-2" x1="19.54" y1="16.70004" x2="31.54" y2="28.70004"/><line class="cls-2" x1="69.54" y1="81.30006" x2="81.54" y2="69.30006"/><line class="cls-2" x1="69.54" y1="69.30006" x2="81.54" y2="81.30006"/><polygon class="cls-3" points="70.54 14.268 75.54 22.928 65.54 22.928 70.54 14.268"/><g id="info-2" data-name="info"><rect class="cls-4" x="14.54" y="55.87702" width="32" height="34"/><rect class="cls-5" x="16.54" y="77.87702" width="21" height="4"/><rect class="cls-6" x="16.54" y="71.87702" width="19" height="4"/><rect class="cls-5" x="16.54" y="83.87702" width="18" height="4"/><polygon class="cls-7" points="28.54 55.877 16.54 55.877 16.54 69.877 22.915 63.877 28.54 69.877 28.54 55.877"/></g></g></svg>