<svg xmlns="http://www.w3.org/2000/svg" viewBox="0 0 100 100"><defs><style>.cls-1,.cls-4{fill:none;stroke-miterlimit:10;}.cls-1{stroke:#fccf20;stroke-linecap:round;stroke-width:4px;}.cls-2{fill:#7d7ab9;}.cls-3{fill:#a2aacd;}.cls-4{stroke:#1a044e;stroke-width:2px;}.cls-5{fill:#fccf20;}</style></defs><g id="info"><line class="cls-1" x1="12" y1="50" x2="88" y2="50"/><circle class="cls-2" cx="68" cy="18.94737" r="8.94737"/><path class="cls-2" d="M81.421,44A13.42105,13.42105,0,1,0,54.579,44"/><circle class="cls-3" cx="31" cy="18.94737" r="8.94737"/><path class="cls-3" d="M44.42105,44A13.42105,13.42105,0,0,0,17.579,44"/><polyline class="cls-4" points="20 79 40 66 60 81 80 71"/><circle class="cls-3" cx="40" cy="66" r="4"/><circle class="cls-3" cx="60" cy="81" r="4"/><circle class="cls-3" cx="80" cy="71" r="4"/><circle class="cls-3" cx="20" cy="79" r="4"/><path class="cls-5" d="M60,87a5.96992,5.96992,0,0,1-5.95337-6.71515L42.356,71.51662a5.96588,5.96588,0,0,1-1.55957.42389L30.36951,90h39.261L65.626,83.06417A6.00015,6.00015,0,0,1,60,87Z"/><path class="cls-5" d="M46,66a6.01541,6.01541,0,0,1-.04675.71527L57.644,75.48317a5.83034,5.83034,0,0,1,3.38172-.38659L50,56l-4.45459,7.71521A5.96392,5.96392,0,0,1,46,66Z"/></g></svg>