<svg xmlns="http://www.w3.org/2000/svg" viewBox="0 0 100 100"><defs><style>.cls-1{fill:#b1b9d5;}.cls-2{fill:#e4e6f2;}.cls-3{fill:#1a044e;}.cls-4{fill:#87acfc;}.cls-5{fill:#c6d7fc;}.cls-6{fill:#9b9ad2;}.cls-7{fill:none;stroke:#fff;stroke-linecap:round;stroke-linejoin:round;stroke-width:2px;}.cls-8{fill:#ffd85f;}</style></defs><g id="info"><path class="cls-1" d="M60.3,62.8612a25.15079,25.15079,0,1,1-25.1508-25.15076h0A25.15077,25.15077,0,0,1,60.3,62.8612"/><path class="cls-2" d="M39.70005,62.86121A25.15079,25.15079,0,1,1,64.85083,88.012h0A25.15078,25.15078,0,0,1,39.70005,62.86122h0"/><path class="cls-3" d="M24.84923,37.13883A25.15078,25.15078,0,1,1,50,62.28961h0A25.15077,25.15077,0,0,1,24.84923,37.13883"/><g id="Layer_1-2" data-name="Layer 1"><path class="cls-4" d="M25.93985,54.5113A24.06015,24.06015,0,1,1,50,78.57144h0A24.06015,24.06015,0,0,1,25.93985,54.5113"/><path class="cls-5" d="M25.93985,54.5113A24.06015,24.06015,0,1,1,50,78.57144h0A24.06015,24.06015,0,0,1,25.93985,54.5113"/><path class="cls-6" d="M23.53384,54.5113A26.46616,26.46616,0,1,1,50,80.97746h0A26.46616,26.46616,0,0,1,23.53384,54.5113"/><path class="cls-7" d="M45.45807,61.775c4.4227,3.97651,9.57311.46812,9.226-3.17576-.26718-2.805-2.4652-3.68707-4.843-4.25358-3.33979-.7957-4.41649-2.39485-4.53637-4.53192-.19106-3.406,4.6946-6.71189,8.86941-1.93678"/><line class="cls-7" x1="50" y1="41.89683" x2="50" y2="45.50585"/><line class="cls-7" x1="50" y1="63.51674" x2="50" y2="67.12576"/><circle class="cls-8" cx="68.04511" cy="36.46618" r="10.82707"/><line class="cls-7" x1="64.43609" y1="36.49437" x2="71.65413" y2="36.47323"/><line class="cls-7" x1="68.04511" y1="32.87476" x2="68.04511" y2="40.09284"/></g></g></svg>