<svg xmlns="http://www.w3.org/2000/svg" viewBox="0 0 100 100"><defs><style>.cls-1{fill:#14003d;}.cls-2{fill:#8987ca;}.cls-3{fill:#fff;}.cls-10,.cls-4{fill:none;stroke-linecap:round;stroke-width:2px;}.cls-4{stroke:#fbd040;stroke-linejoin:round;}.cls-5{fill:#b2bad7;}.cls-6{fill:#b1b9d5;}.cls-7{fill:#15003b;}.cls-8{fill:#fcd052;}.cls-9{fill:#6a64aa;}.cls-10{stroke:#b1b9d5;stroke-miterlimit:10;}</style></defs><g id="info"><g id="Layer_1-2" data-name="Layer 1"><circle class="cls-1" cx="34.99906" cy="18.00065" r="8"/><circle class="cls-1" cx="65.00094" cy="18.00065" r="8"/><path class="cls-2" d="M69.18529,15.53236a16.18438,16.18438,0,0,0-10.90849.951,19.638,19.638,0,0,1-16.5536,0,16.18439,16.18439,0,0,0-10.90849-.951A15.79828,15.79828,0,0,0,18.999,31.03438c.01791,8.78393,7.17449.96615,16,.96615.25977,0,.57959.01336.94251.03705l.06194.00417A6.93177,6.93177,0,0,1,40.772,34.67124a11.99748,11.99748,0,0,0,18.456,0,6.93178,6.93178,0,0,1,4.76852-2.62949l.06194-.00417c.36292-.02369.68274-.03705.94251-.03705,8.8255,0,15.98208,7.81778,16-.96615A15.79829,15.79829,0,0,0,69.18529,15.53236Z"/><circle class="cls-1" cx="26.00063" cy="38.00191" r="16"/><circle class="cls-3" cx="26.00063" cy="38.00191" r="12"/><circle class="cls-3" cx="26.00063" cy="38.00191" r="10"/><path class="cls-4" d="M26.00063,45.00191a7,7,0,0,0,7-7"/><circle class="cls-1" cx="73.99937" cy="38.00191" r="16"/><circle class="cls-3" cx="73.99937" cy="38.00191" r="12"/><circle class="cls-5" cx="50" cy="28.00128" r="4"/><circle class="cls-3" cx="74.00365" cy="38.00191" r="10"/><path class="cls-4" d="M74.00365,45.00191a7,7,0,0,0,7-7"/><path class="cls-6" d="M33.97292,72.81894,44.18014,83.02615,54.38735,72.81894c10.20721-10.20721,8.506-18.71322,8.506-18.71322s-8.506-1.70121-18.71322,8.506Z"/><circle class="cls-7" cx="50.98494" cy="66.01413" r="3.84938"/><polygon class="cls-8" points="40.437 84.727 32.272 76.562 36.355 75.201 41.798 80.644 40.437 84.727"/><path class="cls-9" d="M40.08146,66.7103a14.43759,14.43759,0,0,0-12.5744,2.52662.48043.48043,0,0,0,.38181.84607,14.37851,14.37851,0,0,1,7.75032,1.06958Z"/><path class="cls-9" d="M50.28879,76.91761A14.43758,14.43758,0,0,1,47.76217,89.492a.48044.48044,0,0,1-.84609-.38181,14.37831,14.37831,0,0,0-1.06956-7.75032Z"/><line class="cls-10" x1="31.08257" y1="80.47266" x2="27.68017" y2="83.87506"/><line class="cls-10" x1="36.52642" y1="85.9165" x2="33.12401" y2="89.31892"/><line class="cls-10" x1="33.80449" y1="83.19458" x2="26.99969" y2="89.99939"/></g></g></svg>