<svg xmlns="http://www.w3.org/2000/svg" viewBox="0 0 100 100"><defs><style>.cls-1{fill:#1a044e;}.cls-2{fill:none;stroke:#fccf20;stroke-linecap:round;stroke-miterlimit:10;stroke-width:2px;}.cls-3{fill:#8987cd;}.cls-4{fill:#e4e6f2;}.cls-5{fill:#b1b9d5;}</style></defs><g id="info"><rect class="cls-1" x="40" y="18.5" width="20" height="13" rx="2"/><path class="cls-2" d="M36,43.5V42.02534a4,4,0,0,1,4-4H50v0H60a4,4,0,0,1,4,4V43.5"/><rect class="cls-3" x="26" y="43.5" width="20" height="13" rx="2"/><rect class="cls-3" x="54" y="43.5" width="20" height="13" rx="2"/><rect class="cls-1" x="26" y="43.5" width="20" height="13" rx="2"/><path class="cls-2" d="M22,68.5V67.02534a4,4,0,0,1,4-4H36v0H46a4,4,0,0,1,4,4V68.5"/><rect class="cls-3" x="12" y="68.5" width="20" height="13" rx="2"/><path class="cls-2" d="M50,68.5V67.02534a4,4,0,0,1,4-4H64v0H74a4,4,0,0,1,4,4V68.5"/><rect class="cls-4" x="68" y="68.5" width="20" height="13" rx="2"/><rect class="cls-5" x="40" y="68.5" width="20" height="13" rx="2"/></g></svg>