<svg xmlns="http://www.w3.org/2000/svg" viewBox="0 0 100 100"><defs><style>.cls-1{fill:#e4e6f2;}.cls-2{fill:#b2bad7;}.cls-3{fill:#fccf20;}.cls-4,.cls-6{fill:none;stroke-linejoin:round;}.cls-4{stroke:#fff;stroke-linecap:round;stroke-width:2px;}.cls-5{fill:#14003d;}.cls-6{stroke:#9b9ad2;stroke-width:4px;}</style></defs><g id="info"><path class="cls-1" d="M85.85138,90a14.98322,14.98322,0,0,0-29.70276,0Z"/><path class="cls-1" d="M43.85138,90a14.98322,14.98322,0,0,0-29.70276,0Z"/><circle class="cls-1" cx="29" cy="64.00002" r="10"/><circle class="cls-1" cx="71" cy="64.00002" r="10"/><circle class="cls-2" cx="50" cy="72.00002" r="10"/><path class="cls-2" d="M61.158,90a14.95,14.95,0,0,0-22.316,0Z"/><g id="Layer_1-2" data-name="Layer 1"><circle class="cls-3" cx="65" cy="36" r="14"/><path class="cls-4" d="M61.51021,41.58109c3.39817,3.05536,7.35549.35969,7.08881-2.44009-.20529-2.15524-1.89414-2.83292-3.72113-3.26828-2.56613-.61137-3.39339-1.84008-3.48552-3.48209-.1468-2.617,3.6071-5.15708,6.81477-1.48812"/><line class="cls-4" x1="64.99999" y1="26.30769" x2="64.99999" y2="29.08068"/><line class="cls-4" x1="64.99999" y1="42.91932" x2="64.99999" y2="45.69231"/></g><path class="cls-5" d="M44.68146,35.40775l3.07883-2.706L44.98705,27.8982l-3.97094,1.34342a9.80555,9.80555,0,0,0-2.47379-1.39591L37.7732,24H32.2265l-.77062,3.85358a8.91475,8.91475,0,0,0-2.464,1.39082L25.013,27.89858l-2.77331,4.80336,3.07171,2.69959a9.80472,9.80472,0,0,0,.00705,3.19132l-3.07876,2.70559L25.013,46.102l3.97072-1.34335a9.79609,9.79609,0,0,0,2.47393,1.396L32.22673,50h5.54654l.77048-3.85305a8.91008,8.91008,0,0,0,2.46418-1.3912L44.987,46.102l2.77323-4.80359-3.07178-2.69944A9.80408,9.80408,0,0,0,44.68146,35.40775ZM35,42.92226a5.92226,5.92226,0,0,1-.00007-11.84452H35a5.92223,5.92223,0,0,1,5.92218,5.92219h-.00008A5.92225,5.92225,0,0,1,35,42.92226Z"/><polyline class="cls-6" points="15 23.2 50 12 85 23.2"/></g></svg>