<svg xmlns="http://www.w3.org/2000/svg" viewBox="0 0 100 100"><defs><style>.cls-1,.cls-5{fill:#a2aacd;}.cls-2{fill:#e4e6f2;}.cls-3,.cls-7{fill:none;}.cls-3,.cls-4{stroke:#fff;}.cls-3,.cls-4,.cls-5,.cls-7{stroke-linecap:round;stroke-linejoin:round;}.cls-3,.cls-5,.cls-6,.cls-7,.cls-8{stroke-width:2px;}.cls-4{fill:#fff;stroke-width:2px;}.cls-5,.cls-7{stroke:#a2aacd;}.cls-6{fill:#fbd040;stroke:#fbd040;}.cls-6,.cls-8{stroke-miterlimit:10;}.cls-8{fill:#14003d;stroke:#14003d;}</style></defs><g id="info"><g id="Layer_2" data-name="Layer 2"><rect class="cls-1" x="22.32188" y="72.67767" width="5" height="5"/><rect class="cls-1" x="27.32188" y="67.67767" width="5" height="5"/><rect class="cls-2" x="42.32278" y="7.67767" width="20" height="80" transform="translate(-18.38822 50.96226) rotate(-45)"/><line class="cls-3" x1="38.18064" y1="19.3934" x2="31.10958" y2="26.46447"/><line class="cls-3" x1="45.2517" y1="26.46447" x2="41.71617" y2="30"/><line class="cls-3" x1="59.39385" y1="40.6066" x2="55.85831" y2="44.14214"/><rect class="cls-4" x="42.32279" y="37.67767" width="19.99998" height="20" transform="translate(-18.38822 50.96227) rotate(-45.00001)"/><line class="cls-3" x1="73.53598" y1="54.74874" x2="70.00045" y2="58.28427"/><line class="cls-3" x1="80.60705" y1="61.81981" x2="73.53598" y2="68.89087"/><polyline class="cls-5" points="45.817 62.742 79.101 29.457 70.616 20.972 37.332 54.256"/><path class="cls-6" d="M81.92963,26.62867,86.17227,22.386a4,4,0,0,0,0-5.65685l-2.82843-2.82843a4,4,0,0,0-5.65685,0l-4.24264,4.24264Z"/><polyline class="cls-6" points="37.332 54.256 33.089 66.984 45.817 62.742"/><line class="cls-7" x1="37.33166" y1="54.25609" x2="45.81694" y2="62.74137"/><polygon class="cls-8" points="33.089 66.984 34.15 63.802 36.271 65.924 33.089 66.984"/><rect class="cls-1" x="17.32189" y="77.67767" width="5" height="5"/><rect class="cls-1" x="17.32189" y="67.67767" width="5" height="5"/><rect class="cls-1" x="32.32188" y="82.67767" width="5" height="5"/><rect class="cls-1" x="37.32189" y="77.67767" width="5" height="5"/><rect class="cls-1" x="12.32189" y="52.67767" width="5" height="5"/><rect class="cls-1" x="22.32188" y="82.67767" width="5" height="5"/><rect class="cls-1" x="52.32189" y="82.67767" width="5" height="5"/></g></g></svg>