<svg xmlns="http://www.w3.org/2000/svg" viewBox="0 0 100 100"><defs><style>.cls-1{fill:#b1b9d5;}.cls-2{fill:#e4e7f1;}.cls-3{fill:#9c9cd5;}.cls-4{fill:#a2aacd;}.cls-5{fill:#fdd850;}.cls-6{opacity:0.75;}.cls-7{fill:#1a044e;}</style></defs><g id="info"><path class="cls-1" d="M15,67.5a78.86165,78.86165,0,0,1,70,0v-35a78.41655,78.41655,0,0,1-35,8.19228A78.41655,78.41655,0,0,1,15,32.5"/><rect class="cls-2" x="35" y="55" width="30" height="30" rx="3.42857"/><path class="cls-3" d="M38.42857,83.2857h3.64286V75.57142H36.71429v6A1.71428,1.71428,0,0,0,38.42857,83.2857Z"/><rect class="cls-4" x="43.78571" y="63.57143" width="5.35714" height="19.71429"/><rect class="cls-5" x="50.85714" y="69.57143" width="5.35714" height="13.71429"/><g class="cls-6"><path class="cls-7" d="M57.581,83.2857h3.64286a1.71429,1.71429,0,0,0,1.71429-1.71428V58.42856H57.581Z"/></g><ellipse class="cls-2" cx="50" cy="32.40351" rx="20" ry="12.40351"/><circle class="cls-3" cx="50" cy="32.40352" r="9.30262"/><circle class="cls-7" cx="50" cy="32.40351" r="4.65131"/></g></svg>