<svg xmlns="http://www.w3.org/2000/svg" viewBox="0 0 100 100"><defs><style>.cls-1{fill:#e4e6f2;}.cls-2,.cls-4{fill:#b2bad7;}.cls-3{fill:none;stroke-linecap:square;stroke-miterlimit:10;}.cls-3,.cls-4{stroke:#b2bad7;stroke-width:2px;}.cls-4{stroke-linecap:round;stroke-linejoin:round;}.cls-5{fill:#14003d;}.cls-6{fill:#9b9ad2;}.cls-7{fill:#fdd850;}</style></defs><g id="info"><circle class="cls-1" cx="50" cy="21.71575" r="10"/><circle class="cls-2" cx="50" cy="78.2843" r="10"/><line class="cls-3" x1="28.7868" y1="57.07109" x2="35.68629" y2="63.97059"/><polygon class="cls-4" points="32.891 65.418 37.133 61.175 38.686 66.971 32.891 65.418"/><line class="cls-3" x1="57.07107" y1="71.21323" x2="63.97056" y2="64.31373"/><polygon class="cls-4" points="65.418 67.109 61.175 62.867 66.971 61.314 65.418 67.109"/><line class="cls-3" x1="71.2132" y1="42.92896" x2="64.31371" y2="36.02946"/><polygon class="cls-4" points="67.109 34.582 62.867 38.825 61.314 33.029 67.109 34.582"/><path class="cls-5" d="M58.93673,48.53023l2.842-2.49788-2.55991-4.434-3.66549,1.24008a9.05145,9.05145,0,0,0-2.28349-1.28854L52.55987,38h-5.12l-.71135,3.55715A8.229,8.229,0,0,0,44.454,42.841l-3.67276-1.2423-2.56,4.43388,2.83542,2.49193a9.05068,9.05068,0,0,0,.00651,2.94583l-2.84193,2.49747,2.55991,4.434,3.66528-1.24A9.0428,9.0428,0,0,0,46.7301,58.4504l.71,3.5496h5.11988l.71121-3.55667a8.225,8.225,0,0,0,2.27464-1.28417l3.673,1.24264,2.55991-4.43408-2.83549-2.49179A9.04988,9.04988,0,0,0,58.93673,48.53023ZM50,55.4667a5.4667,5.4667,0,0,1-.00007-10.9334H50a5.46666,5.46666,0,0,1,5.46663,5.46663h-.00007A5.46669,5.46669,0,0,1,50,55.4667Z"/><circle class="cls-6" cx="21.71573" cy="50.00002" r="10"/><circle class="cls-7" cx="78.28427" cy="50.00002" r="10"/></g></svg>