<svg xmlns="http://www.w3.org/2000/svg" viewBox="0 0 100 100"><defs><style>.cls-1{opacity:0.5;}.cls-2{fill:#fccf20;}.cls-3{opacity:0.25;}.cls-4{fill:#1a044e;}.cls-5{fill:#7d7bbd;}</style></defs><g id="Layer_1" data-name="Layer 1"><g class="cls-1"><polyline class="cls-2" points="50 54.344 35 45.656 35 27.656 50 36.344 50 54.344"/></g><g class="cls-3"><polyline class="cls-2" points="65 27.656 50 18.967 35 27.656 50 36.344 65 27.656"/></g><polyline class="cls-2" points="50 54.344 65 45.656 65 27.656 50 36.344 50 54.344"/><g class="cls-3"><polyline class="cls-4" points="50 54.344 35 45.655 20 54.344 35 63.032 50 54.344"/></g><g class="cls-1"><polyline class="cls-4" points="35 81.032 20 72.344 20 54.344 35 63.032 35 81.032"/></g><polyline class="cls-4" points="35 81.032 50 72.344 50 54.344 35 63.032 35 81.032"/><g class="cls-3"><polyline class="cls-5" points="80 54.345 65 45.656 50 54.345 65 63.033 80 54.345"/></g><g class="cls-1"><polyline class="cls-5" points="65 81.033 50 72.345 50 54.345 65 63.033 65 81.033"/></g><polyline class="cls-5" points="65 81.033 80 72.345 80 54.345 65 63.033 65 81.033"/></g></svg>