<svg xmlns="http://www.w3.org/2000/svg" viewBox="0 0 100 100"><defs><style>.cls-1{fill:#b2bad7;opacity:0.35;isolation:isolate;}.cls-2{fill:#9c9cd5;}.cls-3{fill:#1a044e;}.cls-4{fill:#fccf20;}</style></defs><g id="Layer_1" data-name="Layer 1"><circle class="cls-1" cx="50" cy="50.00002" r="40"/><polygon class="cls-2" points="7.154 58.144 14.765 55.088 13.274 63.698 7.154 58.144"/><path class="cls-2" d="M78.655,90.16889l-1.666-1.95733a.519.519,0,0,0-.4483-.1799l-2.55684.26273a.519.519,0,0,1-.49515-.78827l1.34672-2.18925a.519.519,0,0,0,.03257-.48195l-1.04-2.35051a.519.519,0,0,1,.59667-.7145l2.49827.60429a.519.519,0,0,0,.46843-.118l1.9141-1.71542a.519.519,0,0,1,.8639.34668l.19729,2.56272a.51908.51908,0,0,0,.257.40906l2.223,1.29032a.519.519,0,0,1-.06275.92876l-2.37633.97956a.519.519,0,0,0-.30963.37077l-.54024,2.51289a.519.519,0,0,1-.90266.22735Z"/><circle class="cls-2" cx="89.25708" cy="34.6705" r="3.58847"/><rect class="cls-2" x="31.88762" y="10.79294" width="5.52745" height="5.52745" transform="translate(0.56314 28.47286) rotate(-45)"/><rect class="cls-3" x="57.98678" y="38.70769" width="5.18455" height="16.94971" rx="2.59227" transform="translate(-15.6199 56.65529) rotate(-44.99999)"/><path class="cls-4" d="M37.70665,37.9245,48.63473,49.15365a.93077.93077,0,0,0,1.3984-.0734l4.183-5.31314a17.27241,17.27241,0,0,1,2.89307-2.89169l5.33372-4.195a.93088.93088,0,0,0,.085-1.38754L51.37157,24.05954a.93082.93082,0,0,0-1.415.11093L46.56615,28.8649A18.81066,18.81066,0,0,1,42.682,32.84046l-4.87073,3.69319a.93078.93078,0,0,0-.10462,1.39085Z"/><path class="cls-4" d="M64.95016,51.55367h0a4.6324,4.6324,0,0,1,6.55119,0h0L86.45989,66.51223a4.63238,4.63238,0,0,1,0,6.55118h0a4.63238,4.63238,0,0,1-6.55117,0L64.95015,58.10484A4.63238,4.63238,0,0,1,64.95016,51.55367Z"/><path class="cls-4" d="M23.9941,74.70976h0a4.091,4.091,0,0,1,4.091-4.091H53.729a4.091,4.091,0,0,1,4.091,4.091h0a4.091,4.091,0,0,1-4.091,4.091H28.0851A4.091,4.091,0,0,1,23.9941,74.70976Z"/><path class="cls-3" d="M16.94114,81.88013h0A5.04816,5.04816,0,0,1,21.9893,76.832H59.82477a5.04815,5.04815,0,0,1,5.04816,5.04814v0h0a5.04816,5.04816,0,0,1-5.04815,5.04816H21.98929A5.04816,5.04816,0,0,1,16.94114,81.88013Z"/><rect class="cls-3" x="33.58767" y="33.10332" width="11.28653" height="26.49881" rx="5.64326" transform="translate(-21.28585 41.31688) rotate(-45.00002)"/><rect class="cls-3" x="53.0495" y="13.56395" width="11.44161" height="26.49881" rx="5.7208" transform="translate(-1.74649 49.41032) rotate(-44.99999)"/></g></svg>