<svg xmlns="http://www.w3.org/2000/svg" viewBox="0 0 100 100"><defs><style>.cls-1{fill:#a2aacd;}.cls-2{fill:#7d7bbd;}.cls-3{fill:#f9ca2b;}.cls-4{fill:none;stroke:#fff;stroke-linecap:round;stroke-linejoin:round;stroke-width:4px;}</style></defs><g id="info"><polygon class="cls-1" points="36.616 85.935 41.423 81.705 44.494 87.324 53.97 33.582 46.092 32.193 36.616 85.935"/><polygon class="cls-2" points="63.49 86.04 58.682 81.811 55.611 87.429 46.135 33.687 54.014 32.298 63.49 86.04"/><path class="cls-3" d="M46.391,15.75328l2.42215-2.6585a1.60562,1.60562,0,0,1,2.26825-.10552q.0552.05028.10553.10552l2.42208,2.6585a1.60565,1.60565,0,0,0,1.67408.44857L58.71,15.1106a1.60564,1.60564,0,0,1,2.01713,1.04276q.02265.07115.03863.14416l.76839,3.5134a1.60561,1.60561,0,0,0,1.22551,1.22551l3.51339.76839a1.60564,1.60564,0,0,1,1.22549,1.91163q-.016.0729-.0386.14407L66.36868,27.2874a1.60562,1.60562,0,0,0,.44856,1.67408l2.6585,2.42215a1.60563,1.60563,0,0,1,.10552,2.26825q-.05028.05519-.10552.10552l-2.65851,2.42212a1.60567,1.60567,0,0,0-.44857,1.67408l1.09126,3.42692a1.60565,1.60565,0,0,1-1.04277,2.01713q-.07115.02265-.14415.03862l-3.5134.76838a1.60562,1.60562,0,0,0-1.22551,1.22551l-.76836,3.51336a1.60563,1.60563,0,0,1-1.91159,1.22555q-.07293-.01595-.14415-.03862L55.28311,48.9392a1.60563,1.60563,0,0,0-1.67408.44857l-2.42215,2.6585a1.60562,1.60562,0,0,1-2.26824.10552q-.0552-.05029-.10553-.10552L46.391,49.38776a1.60565,1.60565,0,0,0-1.67408-.44857L41.29,50.03044a1.60564,1.60564,0,0,1-2.01713-1.04276q-.02265-.07115-.03863-.14416l-.76839-3.51339a1.6056,1.6056,0,0,0-1.22551-1.22551L33.727,43.33626a1.60565,1.60565,0,0,1-1.22556-1.91159q.016-.07293.03862-.14415l1.09126-3.42688a1.60562,1.60562,0,0,0-.44856-1.67408l-2.6585-2.42215a1.60562,1.60562,0,0,1-.10552-2.26825q.05026-.05519.10552-.10552l2.65849-2.42212a1.60565,1.60565,0,0,0,.44857-1.67408l-1.09124-3.42692a1.60564,1.60564,0,0,1,1.04276-2.01713q.07115-.02265.14416-.03862l3.5134-.76839a1.60564,1.60564,0,0,0,1.22551-1.22551l.76839-3.51339A1.60564,1.60564,0,0,1,41.14593,15.072q.07288.01595.14407.0386l3.42688,1.09125A1.60559,1.60559,0,0,0,46.391,15.75328Z"/><polyline class="cls-4" points="44 33.844 47.437 37.281 56 28.718"/></g></svg>