<svg xmlns="http://www.w3.org/2000/svg" xmlns:xlink="http://www.w3.org/1999/xlink" viewBox="0 0 100 100"><defs><style>.cls-1,.cls-14{fill:none;}.cls-2{fill:#87acfc;}.cls-3{clip-path:url(#clip-path);}.cls-4{fill:#8d8cbf;}.cls-5{fill:#9b9ad2;}.cls-6{fill:#e6e6e6;}.cls-7{fill:#c6d7fc;}.cls-8{clip-path:url(#clip-path-2);}.cls-9{fill:#b4c4e6;}.cls-10{clip-path:url(#clip-path-3);}.cls-11{clip-path:url(#clip-path-4);}.cls-12{fill:#a2aacd;}.cls-13{fill:#fbd040;}.cls-14{stroke:#fff;stroke-linecap:round;stroke-linejoin:round;stroke-width:2px;}</style><clipPath id="clip-path"><path class="cls-1" d="M77.85965,46.208l-.02623,9.24684c-.01162,4.10168-2.70727,8.197-8.09106,11.32571-10.83988,6.29945-28.47218,6.30171-39.383.00226-5.48955-3.16941-8.23078-7.32956-8.219-11.48353l.02621-9.24684c-.01178,4.154,2.72947,8.31412,8.219,11.48351,10.91082,6.29936,28.54312,6.29721,39.383-.00226C75.15234,54.405,77.848,50.30968,77.85965,46.208Z"/></clipPath><clipPath id="clip-path-2"><path class="cls-1" d="M77.85965,55.45485l-.02623,9.24685c-.01162,4.10168-2.70727,8.197-8.09106,11.32569-10.83988,6.29947-28.47218,6.30172-39.383.00227-5.48955-3.16939-8.23078-7.32955-8.219-11.48352l.02621-9.24685c-.01178,4.154,2.72947,8.31412,8.219,11.48353,10.91082,6.29936,28.54312,6.29719,39.383-.00226C75.15234,63.65184,77.848,59.55653,77.85965,55.45485Z"/></clipPath><clipPath id="clip-path-3"><path class="cls-1" d="M22.14035,46.208l.02623,9.24684c.01163,4.10168,2.70729,8.197,8.09107,11.32571,10.83988,6.29945,28.47218,6.30171,39.383.00226,5.48955-3.16941,8.23078-7.32956,8.219-11.48353l-.02621-9.24684c.01177,4.154-2.72948,8.31412-8.219,11.48351-10.91082,6.29936-28.54312,6.29721-39.383-.00226C24.84765,54.405,22.152,50.30968,22.14035,46.208Z"/></clipPath><clipPath id="clip-path-4"><path class="cls-1" d="M22.14035,55.45485l.02623,9.24685c.01163,4.10168,2.70729,8.197,8.09107,11.32569,10.83988,6.29947,28.47218,6.30172,39.383.00227,5.48955-3.16939,8.23078-7.32955,8.219-11.48352l-.02621-9.24685c.01177,4.154-2.72948,8.31412-8.219,11.48353-10.91083,6.29936-28.54312,6.29715-39.383-.00226C24.84765,63.65184,22.152,59.55653,22.14035,55.45485Z"/></clipPath></defs><g id="info"><path class="cls-2" d="M77.85965,46.208l-.02623,9.24684c-.01162,4.10168-2.70727,8.197-8.09106,11.32571-10.83988,6.29945-28.47218,6.30171-39.383.00226-5.48955-3.16941-8.23078-7.32956-8.219-11.48353l.02621-9.24684c-.01178,4.154,2.72947,8.31412,8.219,11.48351,10.91082,6.29936,28.54312,6.29721,39.383-.00226C75.15234,54.405,77.848,50.30968,77.85965,46.208Z"/><g class="cls-3"><path class="cls-4" d="M77.85965,46.208l-.02621,9.24684c-.01164,4.10168-2.70731,8.197-8.09108,11.32571-10.83988,6.29945-28.47218,6.30171-39.383.00226-5.48955-3.16941-8.23078-7.32956-8.219-11.48353l.02621-9.24684c-.01178,4.154,2.72947,8.31412,8.219,11.48351,10.91082,6.29936,28.54312,6.29721,39.383-.00226,5.38377-3.12871,8.07942-7.224,8.09108-11.32569"/></g><path class="cls-5" d="M69.64017,34.72368c10.91081,6.29937,10.9647,16.51265.1284,22.81-10.83988,6.29947-28.47218,6.30172-39.383.00226S19.4209,41.02333,30.26079,34.72387C41.09708,28.4265,58.72938,28.42432,69.64017,34.72368Z"/><path class="cls-6" d="M77.85965,64.70173l-.02623,9.24684c-.01162,4.10168-2.70727,8.197-8.09106,11.32571-10.83988,6.29945-28.47218,6.30171-39.383.00226-5.48955-3.16941-8.23078-7.32956-8.219-11.48353l.02621-9.24685c-.01178,4.154,2.72947,8.31413,8.219,11.48352,10.91082,6.29936,28.54312,6.2972,39.383-.00226C75.15234,72.89871,77.848,68.8034,77.85965,64.70173Z"/><path class="cls-7" d="M77.85965,55.45485l-.02623,9.24685c-.01162,4.10168-2.70727,8.197-8.09106,11.32569-10.83988,6.29947-28.47218,6.30172-39.383.00227-5.48955-3.16939-8.23078-7.32955-8.219-11.48352l.02621-9.24685c-.01178,4.154,2.72947,8.31412,8.219,11.48353,10.91082,6.29936,28.54312,6.29719,39.383-.00226C75.15234,63.65184,77.848,59.55653,77.85965,55.45485Z"/><g class="cls-8"><path class="cls-9" d="M77.85965,55.45485l-.02621,9.24685c-.01164,4.10168-2.70731,8.197-8.09108,11.32569-10.83988,6.29947-28.47218,6.30172-39.383.00227-5.48955-3.16939-8.23078-7.32955-8.219-11.48352l.02621-9.24685c-.01178,4.154,2.72947,8.31412,8.219,11.48353,10.91082,6.29936,28.54312,6.29719,39.383-.00226,5.38377-3.12872,8.07942-7.224,8.09108-11.32571"/></g><path class="cls-2" d="M22.14035,46.208l.02623,9.24684c.01163,4.10168,2.70729,8.197,8.09107,11.32571,10.83988,6.29945,28.47218,6.30171,39.383.00226,5.48955-3.16941,8.23078-7.32956,8.219-11.48353l-.02621-9.24684c.01177,4.154-2.72948,8.31412-8.219,11.48351-10.91082,6.29936-28.54312,6.29721-39.383-.00226C24.84765,54.405,22.152,50.30968,22.14035,46.208Z"/><g class="cls-10"><path class="cls-4" d="M22.14035,46.208l.02622,9.24684c.01164,4.10168,2.7073,8.197,8.09107,11.32571,10.83989,6.29945,28.47218,6.30171,39.383.00226,5.48955-3.16941,8.23078-7.32956,8.219-11.48353l-.02621-9.24684c.01177,4.154-2.72948,8.31412-8.219,11.48351-10.91082,6.29936-28.54312,6.29721-39.383-.00226C24.84766,54.405,22.152,50.30971,22.14036,46.208"/></g><path class="cls-5" d="M30.35983,34.72368c-10.91082,6.29937-10.9647,16.51265-.1284,22.81,10.83988,6.29947,28.47217,6.30172,39.383.00226s10.96466-16.51263.12478-22.81209C58.90291,28.4265,41.27062,28.42432,30.35983,34.72368Z"/><path class="cls-6" d="M22.14035,64.70173l.02623,9.24684c.01163,4.10168,2.70729,8.197,8.09107,11.32571,10.83988,6.29945,28.47218,6.30171,39.383.00226,5.48955-3.16941,8.23078-7.32956,8.219-11.48353l-.02621-9.24685c.01177,4.154-2.72948,8.31413-8.219,11.48352-10.91082,6.29936-28.54312,6.2972-39.383-.00226C24.84765,72.89871,22.152,68.8034,22.14035,64.70173Z"/><path class="cls-7" d="M22.14035,55.45485l.02623,9.24685c.01163,4.10168,2.70729,8.197,8.09107,11.32569,10.83988,6.29947,28.47218,6.30172,39.383.00227,5.48955-3.16939,8.23078-7.32955,8.219-11.48352l-.02621-9.24685c.01177,4.154-2.72948,8.31412-8.219,11.48353-10.91083,6.29936-28.54312,6.29715-39.383-.00226C24.84765,63.65184,22.152,59.55653,22.14035,55.45485Z"/><g class="cls-11"><path class="cls-12" d="M22.14035,55.45485l.02622,9.24685c.01164,4.10168,2.7073,8.197,8.09107,11.32569,10.83989,6.29947,28.47218,6.30172,39.383.00227,5.48955-3.16939,8.23078-7.32955,8.219-11.48352l-.02621-9.24685c.01177,4.154-2.72948,8.31412-8.219,11.48353-10.91083,6.29936-28.54312,6.29715-39.383-.00226-5.38378-3.12872-8.07942-7.224-8.09108-11.32571"/></g><circle class="cls-13" cx="50" cy="25" r="15"/><polygon class="cls-14" points="47.402 28 50 32.5 52.598 28 47.402 28"/><line class="cls-14" x1="49.98219" y1="32.48221" x2="49.99999" y2="17.5"/></g></svg>