<svg xmlns="http://www.w3.org/2000/svg" xmlns:xlink="http://www.w3.org/1999/xlink" viewBox="0 0 110 110"><defs><style>.cls-1{fill:none;}.cls-2{clip-path:url(#clip-path);}.cls-3{clip-path:url(#clip-path-2);}.cls-4{clip-path:url(#clip-path-3);}.cls-5{fill:#fff;}.cls-6{clip-path:url(#clip-path-4);}.cls-7{clip-path:url(#clip-path-5);}.cls-8{fill:#b2bad7;opacity:0.35;}.cls-9{fill:#1a044e;}.cls-10{fill:#fccf20;}.cls-11{fill:#8987cd;}.cls-12{fill:#f9ca2b;}</style><clipPath id="clip-path"><circle class="cls-1" cx="225" cy="55" r="55"/></clipPath><clipPath id="clip-path-2"><circle class="cls-1" cx="55" cy="55" r="55"/></clipPath><clipPath id="clip-path-3"><rect class="cls-1" x="-122" y="-1435" width="1024" height="4038"/></clipPath><clipPath id="clip-path-4"><circle class="cls-1" cx="-115" cy="55" r="55"/></clipPath><clipPath id="clip-path-5"><circle class="cls-1" cx="-285" cy="55" r="55"/></clipPath></defs><g id="Layer_4" data-name="Layer 4"><g class="cls-3"><g class="cls-4"><rect class="cls-5" x="-5" y="-5" width="120" height="120"/></g></g></g><g id="Layer_1" data-name="Layer 1"><circle class="cls-8" cx="55" cy="55" r="40"/><rect class="cls-9" x="45" y="20" width="20" height="13" rx="2"/><path class="cls-10" d="M79,45.99966a.99973.99973,0,0,1-1-1v-1.4746a3.00328,3.00328,0,0,0-3-3H35a3.00328,3.00328,0,0,0-3,3v1.4746a1,1,0,1,1-2,0v-1.4746a5.00588,5.00588,0,0,1,5-5H54V33.00162h2v5.52344H75a5.00588,5.00588,0,0,1,5,5v1.4746A.99973.99973,0,0,1,79,45.99966Z"/><rect class="cls-11" x="21" y="45" width="20" height="13" rx="2"/><rect class="cls-11" x="69" y="45" width="20" height="13" rx="2"/><path class="cls-5" d="M75,66A20,20,0,0,1,55,86c-3.54276,0-10.7612,1.61585-13.64722,0-1.87679-1.05079.324-4.93237-1.117-6.50846A20.00005,20.00005,0,1,1,75,66Z"/><path class="cls-12" d="M69.41838,82.04917a6.644,6.644,0,0,0-6.86251-.915c-2.88277,1.2762-6.62018,3.028-8.87852,4.0957a6.03657,6.03657,0,0,1-4.1449.37316l-7.48874-2.00661a.48021.48021,0,0,1,.24858-.9277L48.007,84.2c2.16338.57968,4.82253.34183,5.49285-2.15987.71565-2.67084-1.51364-4.03725-3.677-4.61692l-4.48255-1.20109a9.4199,9.4199,0,0,1-4.01009-1.84264,11.70128,11.70128,0,0,0-5.05547-2.3214,11.387,11.387,0,0,0-8.89989.791L15,78.98213l8.20956,14.2194,4.08227-2.35688a2.45022,2.45022,0,0,1,1.85927-.24478L44.522,94.7185a8.34135,8.34135,0,0,0,5.88677-.603l18.71166-9.41461A1.591,1.591,0,0,0,69.41838,82.04917Z"/><path class="cls-9" d="M54.71387,74.50552a6.23841,6.23841,0,0,1-4.15772-1.72461.99956.99956,0,1,1,1.33692-1.48632,3.7108,3.7108,0,0,0,4.32763.8457A2.8154,2.8154,0,0,0,57.898,69.49283c-.13525-1.41992-.98877-2.11524-3.26221-2.6582-2.915-.69434-4.39941-2.22657-4.53711-4.6836a4.51691,4.51691,0,0,1,2.8667-4.30566c2.0874-.85059,4.42725-.11133,6.25733,1.98144a1.00007,1.00007,0,1,1-1.50586,1.31641c-1.25977-1.44141-2.71973-1.96875-3.99561-1.44629A2.52793,2.52793,0,0,0,52.0957,62.0397c.07276,1.29786.61133,2.2793,3.00391,2.84961,1.45117.34668,4.4707,1.06641,4.78955,4.41407a4.81824,4.81824,0,0,1-2.76855,4.623A5.31885,5.31885,0,0,1,54.71387,74.50552Z"/><path class="cls-9" d="M55,59.51431a.99973.99973,0,0,1-1-1v-3a1,1,0,1,1,2,0v3A.99973.99973,0,0,1,55,59.51431Z"/><path class="cls-9" d="M55,77.486a.99973.99973,0,0,1-1-1v-3a1,1,0,0,1,2,0v3A.99973.99973,0,0,1,55,77.486Z"/></g></svg>