<svg xmlns="http://www.w3.org/2000/svg" xmlns:xlink="http://www.w3.org/1999/xlink" viewBox="0 0 110 110"><defs><style>.cls-1{fill:none;}.cls-2{clip-path:url(#clip-path);}.cls-3{clip-path:url(#clip-path-2);}.cls-4{clip-path:url(#clip-path-3);}.cls-5{fill:#fff;}.cls-6{clip-path:url(#clip-path-4);}.cls-7{fill:#8987cd;}.cls-8{fill:#f8d02f;}</style><clipPath id="clip-path"><circle class="cls-1" cx="225" cy="55" r="55"/></clipPath><clipPath id="clip-path-2"><circle class="cls-1" cx="55" cy="55" r="55"/></clipPath><clipPath id="clip-path-3"><rect class="cls-1" x="-122" y="-1435" width="1024" height="4038"/></clipPath><clipPath id="clip-path-4"><circle class="cls-1" cx="-115" cy="55" r="55"/></clipPath></defs><g id="Layer_4" data-name="Layer 4"><g class="cls-3"><g class="cls-4"><rect class="cls-5" x="-5" y="-5" width="120" height="120"/></g></g></g><g id="Layer_1" data-name="Layer 1"><polygon class="cls-7" points="44.311 23.997 33.496 30.24 30.945 22.701 39.056 18.018 44.311 23.997"/><polygon class="cls-7" points="23.998 65.69 30.241 76.505 22.702 79.055 18.019 70.944 23.998 65.69"/><polygon class="cls-7" points="33.496 79.76 44.311 86.003 39.057 91.982 30.946 87.299 33.496 79.76"/><polygon class="cls-7" points="48.757 87.195 61.245 87.195 59.684 94.999 50.318 94.999 48.757 87.195"/><polygon class="cls-7" points="65.691 86.003 76.505 79.76 79.056 87.299 70.945 91.982 65.691 86.003"/><polygon class="cls-7" points="79.76 76.505 86.004 65.69 91.982 70.944 87.3 79.055 79.76 76.505"/><polygon class="cls-7" points="87.195 61.244 87.195 48.756 95 50.317 95 59.683 87.195 61.244"/><polygon class="cls-7" points="86.004 44.31 79.76 33.496 87.3 30.945 91.983 39.056 86.004 44.31"/><polygon class="cls-7" points="76.505 30.241 65.691 23.997 70.945 18.018 79.056 22.701 76.505 30.241"/><polygon class="cls-7" points="61.245 22.805 48.757 22.805 50.318 15.001 59.684 15.001 61.245 22.805"/><polygon class="cls-7" points="30.241 33.495 23.997 44.31 18.018 39.056 22.701 30.945 30.241 33.495"/><path class="cls-7" d="M76.12283,42.80529a24.38972,24.38972,0,1,1-33.317-8.92725A24.38973,24.38973,0,0,1,76.12283,42.80529ZM38.41853,26.27884A33.16448,33.16448,0,1,0,83.722,38.418,33.16447,33.16447,0,0,0,38.41853,26.27884Z"/><polygon class="cls-7" points="22.805 48.756 22.805 61.244 15 59.683 15 50.317 22.805 48.756"/><path class="cls-8" d="M55,32.5A22.5,22.5,0,1,1,32.5,55,22.5,22.5,0,0,1,55,32.5m0-2A24.5,24.5,0,1,0,79.5,55,24.52776,24.52776,0,0,0,55,30.5Z"/></g></svg>