<svg xmlns="http://www.w3.org/2000/svg" viewBox="0 0 100 100"><defs><style>.cls-1{fill:#fbac8f;}.cls-2{fill:#fb5012;}.cls-3{fill:#fbdace;}.cls-4{fill:#fff;}.cls-5{opacity:0.35;}.cls-6,.cls-7{fill:none;stroke:#a2aacd;stroke-miterlimit:10;stroke-width:2px;}.cls-6{stroke-linecap:round;}</style></defs><g id="Layer_2" data-name="Layer 2"><rect class="cls-1" x="33" y="47.43906" width="34" height="5.56094"/><polygon class="cls-1" points="50 38 33 47.842 67 47.842 50 38"/><rect class="cls-2" x="39" y="56" width="22" height="22" rx="10.99999"/><rect class="cls-3" x="30" y="81" width="40" height="4"/><rect class="cls-1" x="33" y="57" width="4" height="20"/><rect class="cls-1" x="63" y="57" width="4" height="20"/><circle class="cls-2" cx="50" cy="46" r="3"/><polygon class="cls-3" points="50 39 50 35 28 47.737 28 51.737 50 39"/><polygon class="cls-3" points="50 39 50 35 72 47.737 72 51.737 50 39"/><path class="cls-4" d="M49.77148,74.005a5.16434,5.16434,0,0,1-3.46-1.43164A.99957.99957,0,1,1,47.64844,71.087a3.151,3.151,0,0,0,2.10742.91406,2.51634,2.51634,0,0,0,1.13086-.26758,2.05289,2.05289,0,0,0,1.23242-1.92089c-.09961-1.04395-.71973-1.53614-2.457-1.9502-2.42969-.5791-3.667-1.86426-3.78223-3.93066a3.81586,3.81586,0,0,1,2.417-3.64063,3.897,3.897,0,0,1,1.47656-.291,5.08645,5.08645,0,0,1,3.75488,1.92968.9997.9997,0,1,1-1.50488,1.31641,3.14879,3.14879,0,0,0-2.248-1.24707,1.90017,1.90017,0,0,0-.72266.14355A1.81986,1.81986,0,0,0,47.876,63.8204c.05468.97656.45019,1.667,2.25,2.09668,1.208.28808,3.71582.88769,3.98437,3.707a4.05557,4.05557,0,0,1-2.32422,3.89551A4.42941,4.42941,0,0,1,49.77148,74.005Z"/><path class="cls-4" d="M49.773,60.19937a4.882,4.882,0,0,1,3.60522,1.86193.80008.80008,0,1,1-1.20471,1.05317,3.31475,3.31475,0,0,0-2.39856-1.31476,2.092,2.092,0,0,0-.79785.15771,2.02232,2.02232,0,0,0-1.30041,1.87421c.05822,1.03827.489,1.82342,2.40307,2.27972,1.161.27735,3.57666.85309,3.83167,3.53125A3.85462,3.85462,0,0,1,51.69653,73.341a4.25541,4.25541,0,0,1-1.92541.46325A4.99091,4.99091,0,0,1,46.445,72.42459a.79966.79966,0,1,1,1.06958-1.189,3.32082,3.32082,0,0,0,2.2406.96527,2.73566,2.73566,0,0,0,1.22155-.2887,2.25243,2.25243,0,0,0,1.3418-2.118c-.10827-1.13592-.791-1.6922-2.60986-2.12658-2.332-.55548-3.51953-1.78125-3.62964-3.74689a3.61343,3.61343,0,0,1,2.29333-3.44452,3.69354,3.69354,0,0,1,1.40064-.27679m0-.4a4.09384,4.09384,0,0,0-1.55164.30634,4.0184,4.0184,0,0,0-2.54174,3.83746c.11975,2.1358,1.44409,3.51984,3.9364,4.11347,1.84692.4411,2.22509.944,2.30432,1.77545a1.85361,1.85361,0,0,1-1.12354,1.72278,2.3198,2.3198,0,0,1-1.04162.24591,2.95716,2.95716,0,0,1-1.97315-.86274,1.19969,1.19969,0,1,0-1.60449,1.784,5.36283,5.36283,0,0,0,3.59363,1.48224,4.64159,4.64159,0,0,0,2.10534-.506,4.25663,4.25663,0,0,0,2.43311-4.09357c-.282-2.96155-2.98218-3.60657-4.13525-3.882-1.86377-.44433-2.05591-1.15869-2.09827-1.91351a1.63572,1.63572,0,0,1,1.05212-1.48145,1.69883,1.69883,0,0,1,.64673-.128,2.95541,2.95541,0,0,1,2.09741,1.178,1.20007,1.20007,0,1,0,1.80713-1.57953A5.28245,5.28245,0,0,0,49.773,59.7994Z"/><path class="cls-4" d="M50,61.60067a1.00151,1.00151,0,0,1-1-1.001V59.20028a1,1,0,1,1,2,0V60.5997A1.00151,1.00151,0,0,1,50,61.60067Z"/><path class="cls-4" d="M50.00012,58.4a.79977.79977,0,0,1,.79993.8v1.4a.8.8,0,1,1-1.6,0V59.2a.79979.79979,0,0,1,.80005-.8m0-.4a1.20139,1.20139,0,0,0-1.20007,1.2v1.4a1.2,1.2,0,1,0,2.4,0V59.2A1.20137,1.20137,0,0,0,50.00012,58Z"/><path class="cls-4" d="M50,75.79989a1.00067,1.00067,0,0,1-1-1V73.40048a1,1,0,1,1,2,0v1.39941A1.00067,1.00067,0,0,1,50,75.79989Z"/><path class="cls-4" d="M50.00012,72.6a.79973.79973,0,0,1,.79993.8v1.4a.8.8,0,1,1-1.6,0V73.4a.79976.79976,0,0,1,.80005-.8m0-.4a1.20139,1.20139,0,0,0-1.20007,1.2v1.4a1.2,1.2,0,1,0,2.4,0V73.4a1.20137,1.20137,0,0,0-1.19995-1.2Z"/><g class="cls-5"><line class="cls-6" x1="10" y1="50" x2="24" y2="50"/><line class="cls-6" x1="76" y1="50" x2="90" y2="50"/><line class="cls-6" x1="78.28427" y1="78.28427" x2="70.69127" y2="70.69127"/><line class="cls-7" x1="64.14214" y1="35.85786" x2="78.28427" y2="21.71573"/><line class="cls-7" x1="35.85786" y1="35.85786" x2="21.71573" y2="21.71573"/><line class="cls-7" x1="50" y1="10" x2="50" y2="30"/><line class="cls-6" x1="21.71573" y1="78.28427" x2="29.30873" y2="70.69127"/><path class="cls-6" d="M68.42072,42.1972a20.00847,20.00847,0,0,0-36.84127-.00039"/></g><circle class="cls-3" cx="10" cy="50" r="3"/><circle class="cls-3" cx="78.28427" cy="21.71573" r="3"/><circle class="cls-3" cx="50" cy="10.03518" r="3"/><circle class="cls-3" cx="78.28427" cy="78.28427" r="3"/><circle class="cls-3" cx="21.71573" cy="78.28427" r="3"/><circle class="cls-3" cx="90" cy="50" r="3"/><circle class="cls-3" cx="21.71573" cy="21.71573" r="3"/></g></svg>