<svg xmlns="http://www.w3.org/2000/svg" viewBox="0 0 100 100"><defs><style>.cls-1,.cls-4{fill:#0ce6a3;}.cls-1{stroke:#0ce6a3;}.cls-1,.cls-3,.cls-5,.cls-7{stroke-linecap:round;}.cls-1,.cls-5,.cls-7{stroke-linejoin:round;}.cls-1,.cls-3,.cls-5{stroke-width:2px;}.cls-2{opacity:0.35;}.cls-3,.cls-5,.cls-7{fill:none;}.cls-3{stroke:#a2aacd;stroke-miterlimit:10;}.cls-5{stroke:#09b37f;}.cls-6{fill:#c7f3e5;}.cls-7{stroke:#c7f3e5;stroke-width:4px;}</style></defs><g id="Layer_2" data-name="Layer 2"><path class="cls-1" d="M59.82007,40.14614A17.035,17.035,0,0,0,50,47.56851c2.77856,4.64178,3.00928,10.59234,0,16.28534C60.61426,60.58047,65.01074,49.96621,59.82007,40.14614Z"/><g class="cls-2"><line class="cls-3" x1="10" y1="50" x2="25" y2="50"/><line class="cls-3" x1="75" y1="50" x2="90" y2="50"/><line class="cls-3" x1="21.71573" y1="21.71573" x2="31.86063" y2="31.86063"/><line class="cls-3" x1="68.13933" y1="68.13933" x2="78.28427" y2="78.28427"/><line class="cls-3" x1="78.28427" y1="21.71573" x2="68.13937" y2="31.86063"/><line class="cls-3" x1="31.85858" y1="68.14142" x2="21.71573" y2="78.28427"/><line class="cls-3" x1="50" y1="10.03518" x2="50" y2="20.633"/><line class="cls-3" x1="50" y1="75" x2="50" y2="90"/></g><circle class="cls-4" cx="10" cy="50" r="3"/><circle class="cls-4" cx="78.28427" cy="21.71573" r="3"/><circle class="cls-4" cx="50" cy="10.03518" r="3"/><circle class="cls-4" cx="21.71573" cy="78.28427" r="3"/><circle class="cls-4" cx="78.28427" cy="78.28427" r="3"/><circle class="cls-4" cx="90" cy="50" r="3"/><circle class="cls-4" cx="21.71573" cy="21.71573" r="3"/><circle class="cls-4" cx="50" cy="90" r="3"/><path class="cls-5" d="M40.18,40.14616C50.79425,43.4195,55.19083,54.0338,50,63.85384,39.38571,60.5805,34.98912,49.9662,40.18,40.14616Z"/><path class="cls-5" d="M40.17993,40.14614C34.98926,49.96621,39.38574,60.58047,50,63.85385,55.19092,54.03378,50.79419,43.41952,40.17993,40.14614Z"/><path class="cls-5" d="M50,63.85384s-6.61477-8.5277-6.874-16.59538"/><polygon class="cls-6" points="47.333 36 55.333 30 47.333 24 47.333 36"/><path class="cls-7" d="M50,30a19.98771,19.98771,0,1,0,9.09087,2.18074"/></g></svg>