<svg xmlns="http://www.w3.org/2000/svg" viewBox="0 0 100 100"><defs><style>.cls-1,.cls-7{fill:#b2bad7;}.cls-1{opacity:0.35;}.cls-2{fill:#190b4e;}.cls-3{fill:#7d7bbd;}.cls-4{fill:#fff;}.cls-5{fill:#f9cf23;}.cls-6{fill:#c05000;}</style></defs><g id="Layer_1" data-name="Layer 1"><path class="cls-1" d="M85,50A35.00366,35.00366,0,1,0,50,85,35,35,0,0,0,85,50Z"/><circle class="cls-2" cx="58" cy="45" r="10"/><rect class="cls-3" x="27" y="10" width="26" height="26" rx="4"/><polygon class="cls-2" points="42.667 42.667 31.333 36 41.333 36 42.667 42.667"/><rect class="cls-4" x="28.26562" y="29.26507" width="5.46875" height="4" transform="translate(-0.26507 62.26507) rotate(-90)"/><rect class="cls-5" x="28.79687" y="23.79634" width="16.40625" height="4" transform="translate(11.20366 62.79634) rotate(-90)"/><rect class="cls-4" x="37.53125" y="26.53072" width="10.9375" height="4" transform="translate(14.46928 71.53072) rotate(-90)"/><rect class="cls-5" x="38.0625" y="21.06197" width="21.875" height="4" transform="translate(25.93803 72.06197) rotate(-90)"/><polygon class="cls-6" points="33.743 86.104 33.744 86.104 33.744 86.104 33.743 86.104"/><path class="cls-7" d="M67.03857,77.31738c-2.87939,1.27442-6.67675,3.05664-8.68408,4.00586A6.93461,6.93461,0,0,1,53.604,81.751L46.26025,79.7832a.99989.99989,0,1,1,.51758-1.93164l6.491,1.73926c1.90375.27539,3.918-.18542,4.48443-2.29938.70179-2.61908-1.48431-3.959-3.60571-4.5274-3.67981-.986-4.39563-1.1778-4.39563-1.1778a9.237,9.237,0,0,1-3.93231-1.80688A11.47408,11.47408,0,0,0,40.86212,67.503a11.16578,11.16578,0,0,0-8.72729.7757l-10.69006,5.298a1.51322,1.51322,0,0,0-.63854,2.11246L27.29374,86.9259a1.51324,1.51324,0,0,0,2.06711.55389l2.14987-1.24121a3.91582,3.91582,0,0,1,2.97136-.39117l14.46744,3.87653a8.17927,8.17927,0,0,0,5.77259-.59131l18.34881-9.23206a1.53713,1.53713,0,0,0,.647-.60823,1.4867,1.4867,0,0,0-1.02354-2.107A9.95962,9.95962,0,0,0,67.03857,77.31738Z"/><path class="cls-2" d="M47.15576,68.291a7.75717,7.75717,0,0,0,3.11279,1.3623l4.396,1.17871a8.41525,8.41525,0,0,1,3.76807,2.02149,4.96536,4.96536,0,0,1,1.25244,4.95507,5.60446,5.60446,0,0,1-.28369.81055c2.042-.957,4.67871-2.17969,6.82763-3.13086h.001A11.76136,11.76136,0,0,1,73,75.20691V73a14.99058,14.99058,0,0,0-28.54688-6.4082A10.04193,10.04193,0,0,1,47.15576,68.291Z"/></g></svg>