<svg xmlns="http://www.w3.org/2000/svg" viewBox="0 0 100 100"><defs><style>.cls-1{fill:#e4e7f1;}.cls-2{fill:#b2bad7;opacity:0.5;}.cls-3{fill:#fff;}.cls-4{fill:#f9cf23;}.cls-5{fill:#7d7bbd;}.cls-6{fill:#1a044e;}</style></defs><g id="Layer_1" data-name="Layer 1"><path class="cls-1" d="M77.5,45.18652V24.5a2,2,0,0,0-2-2h-51a2,2,0,0,0-2,2v51a2,2,0,0,0,2,2H45.18652Z"/><path class="cls-1" d="M67.81348,77.5H75.5a2.00006,2.00006,0,0,0,2-2V67.81348Z"/><rect class="cls-2" x="27.5" y="60.4375" width="29" height="2"/><polygon class="cls-2" points="54.249 68.438 27.5 68.438 27.5 70.438 52.249 70.438 54.249 68.438"/><rect class="cls-2" x="27.5" y="72.4375" width="17" height="2"/><rect class="cls-2" x="27.5" y="31.4375" width="34" height="2"/><rect class="cls-2" x="27.5" y="25.4375" width="26" height="4"/><rect class="cls-2" x="27.5" y="64.4375" width="23" height="2"/><rect class="cls-2" x="27.5" y="56.4375" width="28" height="2"/><rect class="cls-3" x="27.5" y="37.4375" width="18" height="14"/><polygon class="cls-4" points="40.5 43.438 38.5 47.438 34.5 39.438 29.5 49.438 37.5 49.438 39.5 49.438 43.5 49.438 40.5 43.438"/><rect class="cls-5" x="59" y="54" width="12" height="30" transform="translate(67.82843 -25.75231) rotate(45)"/><polygon class="cls-6" points="45.908 88.092 48.737 76.778 57.222 85.263 45.908 88.092"/><path class="cls-5" d="M79.26346,46.73654h4a4,4,0,0,1,4,4v8a0,0,0,0,1,0,0h-12a0,0,0,0,1,0,0v-8A4,4,0,0,1,79.26346,46.73654Z" transform="translate(61.09188 -42.01576) rotate(45)"/></g></svg>