<svg xmlns="http://www.w3.org/2000/svg" viewBox="0 0 100 100"><defs><style>.cls-1,.cls-6{fill:#b2bad7;}.cls-1{opacity:0.35;}.cls-2{fill:none;stroke:#b2bad7;stroke-miterlimit:10;stroke-width:2px;}.cls-3{fill:#7d7bbd;}.cls-4{fill:#1a044e;}.cls-5{fill:#f9cf23;}</style></defs><g id="Layer_1" data-name="Layer 1"><path class="cls-1" d="M85,50A35.00366,35.00366,0,1,0,50,85,35,35,0,0,0,85,50Z"/><path class="cls-2" d="M50,88a37.75329,37.75329,0,0,1-22.001-7.0127c-.9248-.6582-1.82617-1.3623-2.6914-2.10253A13.96658,13.96658,0,0,1,13.60938,60.93652a37.98024,37.98024,0,0,1-.001-21.87451A13.96864,13.96864,0,0,1,25.31248,21.11426,37.99923,37.99923,0,1,1,50,88Z"/><circle class="cls-3" cx="27" cy="35" r="11"/><circle class="cls-4" cx="73" cy="50" r="11"/><circle class="cls-5" cx="27" cy="65" r="11"/><path class="cls-2" d="M57,50H54a4,4,0,0,1-4-4V39a4,4,0,0,0-4-4H40"/><path class="cls-2" d="M57,50H54a4,4,0,0,0-4,4v7a4,4,0,0,1-4,4H40"/><polygon class="cls-6" points="56.125 47.008 61.306 50 56.125 52.992 56.125 47.008"/></g></svg>