<svg xmlns="http://www.w3.org/2000/svg" viewBox="0 0 100 100"><defs><style>.cls-1{fill:#632fae;}.cls-10,.cls-2,.cls-3,.cls-4,.cls-6,.cls-8,.cls-9{fill:none;}.cls-2,.cls-3,.cls-4,.cls-6{stroke:#d8c1fb;}.cls-10,.cls-2,.cls-3,.cls-6,.cls-8{stroke-linecap:round;}.cls-2,.cls-3{stroke-linejoin:round;}.cls-2{stroke-width:1.95405px;}.cls-3{stroke-width:1.93218px;}.cls-10,.cls-4,.cls-6,.cls-8,.cls-9{stroke-miterlimit:10;stroke-width:2px;}.cls-5{fill:#d8c1fb;}.cls-7{opacity:0.35;}.cls-10,.cls-8,.cls-9{stroke:#a2aacd;}.cls-10{opacity:0;}</style></defs><g id="Layer_2" data-name="Layer 2"><rect class="cls-1" x="34" y="69" width="32" height="11"/><line class="cls-2" x1="32" y1="66" x2="68" y2="66"/><line class="cls-3" x1="32" y1="53" x2="68" y2="53"/><line class="cls-4" x1="34" y1="53" x2="34" y2="63"/><line class="cls-4" x1="38" y1="53" x2="38" y2="63"/><line class="cls-4" x1="42" y1="53" x2="42" y2="63"/><line class="cls-4" x1="46" y1="53" x2="46" y2="63"/><line class="cls-4" x1="50" y1="53" x2="50" y2="63"/><line class="cls-4" x1="54" y1="53" x2="54" y2="63"/><line class="cls-4" x1="58" y1="53" x2="58" y2="63"/><line class="cls-4" x1="62" y1="53" x2="62" y2="63"/><line class="cls-4" x1="66" y1="53" x2="66" y2="63"/><path class="cls-1" d="M57.00012,14.9999c-2.89355-.77423-4.34-.58056-7.23364-4.83825-.00049,3.87066-.00049,5.8059,0,9.67675C52.66016,20.22531,54.10669,18.09634,57.00012,14.9999Z"/><path class="cls-1" d="M57.00012,14.9999c2.89356.77423,4.34058.58057,7.23389,4.8385V10.16165C61.3407,9.77432,59.89368,11.90347,57.00012,14.9999Z"/><path class="cls-5" d="M57.00012,14.9999c-2.89343,3.09644-4.34,5.22541-7.23364,4.8385,5.7876,4.6446,8.681-4.64495,14.46753,0C61.3407,15.58047,59.89368,15.77413,57.00012,14.9999Z"/><path class="cls-5" d="M57.00012,14.9999c-2.89355-.77423-4.34-.58056-7.23364-4.83825,5.7876,4.64459,8.681-4.64521,14.46753,0C61.3407,9.77432,59.89368,11.90347,57.00012,14.9999Z"/><line class="cls-6" x1="50" y1="10" x2="50" y2="35.34134"/><path class="cls-1" d="M66,50a16,16,0,0,0-32,0"/><g class="cls-7"><line class="cls-8" x1="10" y1="50" x2="30" y2="50"/><line class="cls-8" x1="70" y1="50" x2="90" y2="50"/><line class="cls-8" x1="78.28427" y1="78.28427" x2="69.78433" y2="69.78433"/><line class="cls-9" x1="64.14214" y1="35.85786" x2="78.28427" y2="21.71573"/><line class="cls-9" x1="35.85786" y1="35.85786" x2="21.71573" y2="21.71573"/><line class="cls-8" x1="21.71573" y1="78.28427" x2="30" y2="70"/><path class="cls-10" d="M70,50a19.91988,19.91988,0,0,1-1.999,8.72612"/><path class="cls-10" d="M31.999,58.7262A19.91994,19.91994,0,0,1,30,50"/><path class="cls-8" d="M30,50A20.007,20.007,0,0,1,45.96929,30.40633"/><path class="cls-8" d="M70,50A20.007,20.007,0,0,0,54.03071,30.40633"/><line class="cls-8" x1="50" y1="90" x2="50" y2="83"/></g><circle class="cls-5" cx="10" cy="50" r="3"/><circle class="cls-5" cx="78.28427" cy="21.71573" r="3"/><circle class="cls-5" cx="78.28427" cy="78.28427" r="3"/><circle class="cls-5" cx="21.71573" cy="78.28427" r="3"/><circle class="cls-5" cx="90" cy="50" r="3"/><circle class="cls-5" cx="21.71573" cy="21.71573" r="3"/><circle class="cls-5" cx="50" cy="90" r="3"/></g></svg>