<svg xmlns="http://www.w3.org/2000/svg" viewBox="0 0 100 100"><defs><style>.cls-1{fill:#87acfc;}.cls-2{fill:#fff;}.cls-2,.cls-3{stroke:#4881fc;stroke-miterlimit:10;stroke-width:4px;}.cls-2,.cls-3,.cls-6{stroke-linecap:round;}.cls-3,.cls-6{fill:none;}.cls-4{fill:#0956fc;}.cls-5{opacity:0.35;}.cls-6{stroke:#a2aacd;stroke-linejoin:round;stroke-width:2px;}.cls-7{fill:#c6d7fc;}</style></defs><g id="Layer_2" data-name="Layer 2"><g id="heart"><path class="cls-1" d="M74.85281,56.57359,50,81.42641,25.14719,56.57359A17.57359,17.57359,0,0,1,50,31.72078,17.57359,17.57359,0,0,1,74.85281,56.57359Z"/></g><circle class="cls-2" cx="50" cy="50" r="15"/><line class="cls-3" x1="60.6066" y1="60.6066" x2="72.28427" y2="72.28427"/><polygon class="cls-4" points="58 47.333 52.667 47.333 52.667 42 47.333 42 47.333 47.333 42 47.333 42 52.667 47.333 52.667 47.333 58 52.667 58 52.667 52.667 58 52.667 58 47.333"/><g class="cls-5"><line class="cls-6" x1="10" y1="50" x2="18.99949" y2="50"/><line class="cls-6" x1="81.00083" y1="50" x2="90" y2="50"/><line class="cls-6" x1="73.1253" y1="26.8747" x2="78.28427" y2="21.71573"/><line class="cls-6" x1="26.87537" y1="26.87537" x2="21.71573" y2="21.71573"/><line class="cls-6" x1="50" y1="10" x2="50" y2="27.72078"/><line class="cls-6" x1="21.71573" y1="78.28427" x2="32.2868" y2="67.7132"/><line class="cls-6" x1="50" y1="84.42641" x2="50" y2="90"/></g><circle class="cls-7" cx="10" cy="50" r="3"/><circle class="cls-7" cx="78.28427" cy="21.71573" r="3"/><circle class="cls-7" cx="50" cy="10.03518" r="3"/><circle class="cls-7" cx="21.71573" cy="78.28427" r="3"/><circle class="cls-7" cx="78.28427" cy="78.28427" r="3"/><circle class="cls-7" cx="90" cy="50" r="3"/><circle class="cls-7" cx="21.71573" cy="21.71573" r="3"/><circle class="cls-7" cx="50" cy="90" r="3"/></g></svg>