<svg xmlns="http://www.w3.org/2000/svg" viewBox="0 0 100 100"><defs><style>.cls-1,.cls-2{opacity:0.35;}.cls-2,.cls-5{fill:#b2bad7;}.cls-3{fill:#1a044e;}.cls-4{fill:#fccf20;}.cls-6{fill:#7d7bbd;}</style></defs><g id="Layer_1" data-name="Layer 1"><g class="cls-1"><path class="cls-2" d="M75,25.51483V37.25a4,4,0,0,1-4,4H29a4,4,0,0,1-4-4V25.51483a35,35,0,1,0,50,0Z"/></g><polyline class="cls-3" points="65.351 30.108 49.95 21.217 34.649 30.108 50.05 39 65.351 30.108"/><polyline class="cls-4" points="65.351 26.576 49.95 17.684 34.649 26.576 50.05 35.467 65.351 26.576"/><polyline class="cls-5" points="65.351 22.892 49.95 14 34.649 22.892 50.05 31.783 65.351 22.892"/><circle class="cls-3" cx="72" cy="62" r="10"/><path class="cls-3" d="M87,90a15,15,0,0,0-30,0"/><circle class="cls-6" cx="28" cy="62" r="10"/><path class="cls-6" d="M43,90a15,15,0,0,0-30,0"/></g></svg>