<svg xmlns="http://www.w3.org/2000/svg" viewBox="0 0 100 100"><defs><style>.cls-1,.cls-8{fill:#b2bad7;}.cls-1{opacity:0.35;}.cls-2,.cls-7{opacity:0.75;}.cls-3{fill:#7d7bbd;}.cls-4{fill:#9c9cd5;}.cls-5{fill:#fdd850;}.cls-6,.cls-7{fill:#1a044e;}.cls-8{opacity:0.5;}</style></defs><g id="Layer_1" data-name="Layer 1"><rect class="cls-1" x="20" y="15" width="55" height="75" rx="2"/><g class="cls-2"><polygon class="cls-3" points="27.783 68.263 26.167 66.646 32.117 60.695 34.975 63.552 39.309 59.217 40.925 60.834 34.975 66.784 32.117 63.928 27.783 68.263"/><polygon class="cls-3" points="36.992 58.315 43.597 56.546 41.828 63.151 36.992 58.315"/></g><path class="cls-4" d="M67.77818,78.22182l-3.88909,3.88909A5.48271,5.48271,0,0,1,65.5,86H71A10.96553,10.96553,0,0,0,67.77818,78.22182Z"/><path class="cls-5" d="M60.95492,80.58433a5.48632,5.48632,0,0,1,2.93417,1.52658l3.88909-3.88909a10.97241,10.97241,0,0,0-5.86834-3.05317Z"/><path class="cls-6" d="M61.90984,75.16865A10.99174,10.99174,0,0,0,49,86h5.5a5.49584,5.49584,0,0,1,6.45492-5.41567Z"/><rect class="cls-6" x="48.26562" y="37.2031" width="5.46875" height="4" transform="translate(11.7969 90.2031) rotate(-90)"/><rect class="cls-7" x="48.79687" y="31.73438" width="16.40625" height="4" transform="translate(23.26562 90.73438) rotate(-90)"/><rect class="cls-5" x="57.53125" y="34.46875" width="10.9375" height="4" transform="translate(26.53125 99.46875) rotate(-90)"/><g class="cls-2"><rect class="cls-4" x="67" y="20.0625" width="4" height="21.875"/></g><rect class="cls-8" x="25" y="47.9375" width="15" height="2"/><rect class="cls-8" x="25" y="35.9375" width="18" height="2"/><rect class="cls-8" x="25" y="39.9375" width="20" height="2"/><rect class="cls-8" x="25" y="43.9375" width="18" height="2"/><rect class="cls-8" x="49" y="66" width="15" height="2"/><rect class="cls-8" x="49" y="46" width="15" height="2"/><rect class="cls-8" x="49" y="50" width="20" height="2"/><rect class="cls-8" x="49" y="54" width="18" height="2"/><rect class="cls-8" x="49" y="58" width="20" height="2"/><rect class="cls-8" x="49" y="62" width="18" height="2"/><rect class="cls-8" x="25" y="84" width="15" height="2"/><rect class="cls-8" x="25" y="76" width="15" height="2"/><rect class="cls-8" x="25" y="80" width="18" height="2"/><path class="cls-6" d="M31.546,33.95419a7.5,7.5,0,1,1,7.50021-7.49979A7.50854,7.50854,0,0,1,31.546,33.95419Zm0-12.99981a5.50021,5.50021,0,1,0,5.5,5.5A5.50634,5.50634,0,0,0,31.546,20.95438Z"/><rect class="cls-6" x="34.86463" y="27.27248" width="2" height="6.99946" transform="translate(-11.25473 34.3731) rotate(-45.00001)"/><path class="cls-6" d="M78,10H27a2,2,0,0,0-2,2H75a2,2,0,0,1,2,2V85h1a2,2,0,0,0,2-2V12A2,2,0,0,0,78,10Z"/></g></svg>