<svg xmlns="http://www.w3.org/2000/svg" viewBox="0 0 100 100"><defs><style>.cls-1,.cls-4,.cls-7{fill:#b2bad7;}.cls-1{opacity:0.35;}.cls-2{fill:#fff;}.cls-3{fill:#1a044e;}.cls-4,.cls-6{opacity:0.5;}.cls-5{font-size:20px;fill:#f9cf23;font-family:MyriadPro-Bold, Myriad Pro;font-weight:700;}</style></defs><g id="Layer_1" data-name="Layer 1"><rect class="cls-1" x="20" y="15" width="55" height="75" rx="2"/><circle class="cls-2" cx="59.5" cy="60.5" r="10.5"/><path class="cls-3" d="M78,10H27a2,2,0,0,0-2,2H75a2,2,0,0,1,2,2V85h1a2,2,0,0,0,2-2V12A2,2,0,0,0,78,10Z"/><rect class="cls-4" x="25" y="47.9375" width="15" height="2"/><rect class="cls-4" x="25" y="60.9375" width="15" height="2"/><rect class="cls-4" x="25" y="64.9375" width="12" height="2"/><rect class="cls-4" x="25" y="35.9375" width="18" height="2"/><rect class="cls-4" x="25" y="23.9375" width="18" height="2"/><rect class="cls-4" x="25" y="17.9375" width="26" height="4"/><rect class="cls-4" x="25" y="51.9375" width="18" height="2"/><rect class="cls-4" x="25" y="68.9375" width="16" height="2"/><rect class="cls-4" x="25" y="39.9375" width="20" height="2"/><rect class="cls-4" x="25" y="43.9375" width="18" height="2"/><path class="cls-3" d="M59.5,73A12.5,12.5,0,1,1,72,60.5,12.5141,12.5141,0,0,1,59.5,73Zm0-23A10.5,10.5,0,1,0,70,60.5,10.51205,10.51205,0,0,0,59.5,50Z"/><rect class="cls-3" x="37.0133" y="73.49669" width="16.98023" height="1.99979" transform="translate(-39.3494 53.99532) rotate(-45)"/><text class="cls-5" transform="translate(53.95044 67)">$</text><g class="cls-6"><polygon class="cls-7" points="52.401 40.858 50.785 39.241 56.735 33.291 59.593 36.147 63.927 31.812 65.544 33.43 59.593 39.38 56.735 36.523 52.401 40.858"/><polygon class="cls-7" points="61.611 30.911 68.215 29.142 66.446 35.746 61.611 30.911"/></g></g></svg>