<svg xmlns="http://www.w3.org/2000/svg" viewBox="0 0 100 100"><defs><style>.cls-1{fill:#14003d;}.cls-2{fill:#fbd040;}.cls-3{fill:#8987ca;}.cls-4{opacity:0.35;}.cls-4,.cls-5{isolation:isolate;}.cls-5{fill:#b2bad7;fill-rule:evenodd;}</style></defs><g id="info"><polygon class="cls-1" points="56 30 46 24.226 46 35.774 56 30"/><path class="cls-2" d="M50.00012,19.43862a10.56391,10.56391,0,1,1-2.736,20.76477,10.56235,10.56235,0,0,1,2.736-20.76477m0-2a12.56211,12.56211,0,1,0,3.24927.428,12.58124,12.58124,0,0,0-3.24927-.428Z"/><path class="cls-3" d="M64.73828,32.01686A14.84289,14.84289,0,0,0,64.6958,27.713l4.46338-3.92242-4.202-7.278-5.63965,1.908a13.49882,13.49882,0,0,0-3.69226-2.1795L54.3772,10l-8.40406.00012-1.21508,6.07581a14.85676,14.85676,0,0,0-4.182,2.42675l-5.88318-1.99-4.20209,7.27808,4.77106,4.19281a14.8597,14.8597,0,0,0,.04248,4.30347L30.8407,36.20974l4.20209,7.27819,5.6405-1.90808A13.50778,13.50778,0,0,0,44.375,43.75942l1.24829,6.24048L54.0271,50l1.21509-6.07575a14.85239,14.85239,0,0,0,4.18225-2.42694l5.88269,1.99018,4.20215-7.27808Zm-2.606,1.23542A12.56236,12.56236,0,1,1,53.24939,17.8666,12.56234,12.56234,0,0,1,62.13232,33.25228Z"/><g class="cls-4"><polygon class="cls-5" points="17 56 30.6 75.267 30.6 83.2 37.4 90 37.4 75.267 51 56 17 56"/></g><rect class="cls-2" x="53" y="63" width="28" height="4"/><rect class="cls-2" x="53" y="71" width="30" height="4"/><rect class="cls-2" x="53" y="79" width="24" height="4"/></g></svg>