<svg xmlns="http://www.w3.org/2000/svg" xmlns:xlink="http://www.w3.org/1999/xlink" viewBox="0 0 100 100"><defs><style>.cls-1,.cls-17{fill:none;}.cls-2{fill:#87acfc;}.cls-3{clip-path:url(#clip-path);}.cls-4{fill:#8d8cbf;}.cls-5{fill:#e6e6e6;}.cls-6{fill:#c6d7fc;}.cls-7{clip-path:url(#clip-path-2);}.cls-8{fill:#b4c4e6;}.cls-9{clip-path:url(#clip-path-3);}.cls-10{clip-path:url(#clip-path-4);}.cls-11{fill:#a2aacd;}.cls-12,.cls-13,.cls-14,.cls-15,.cls-16{fill:#14003d;}.cls-12,.cls-15{opacity:0.25;}.cls-12,.cls-14{isolation:isolate;}.cls-13{opacity:0.5;}.cls-14{opacity:0.05;}.cls-17{stroke:#fccf20;stroke-linecap:round;stroke-miterlimit:10;stroke-width:4px;}.cls-18{fill:#9b9ad2;}</style><clipPath id="clip-path"><path class="cls-1" d="M71.35906,56.56294l-.0201,7.08925c-.00892,3.14462-2.07558,6.28435-6.20315,8.683-8.31058,4.82958-21.82867,4.83131-30.19363.00173-4.20866-2.42988-6.31027-5.61933-6.30124-8.804l.0201-7.08925c-.009,3.18471,2.09259,6.37416,6.30123,8.804,8.365,4.82951,21.88306,4.82786,30.19363-.00173C69.28346,62.84729,71.35014,59.70756,71.35906,56.56294Z"/></clipPath><clipPath id="clip-path-2"><path class="cls-1" d="M71.35906,63.65219l-.0201,7.08925c-.00892,3.14462-2.07558,6.28435-6.20315,8.683-8.31058,4.82959-21.82867,4.83131-30.19363.00173-4.20866-2.42986-6.31027-5.61932-6.30124-8.804l.0201-7.08925c-.009,3.18471,2.09259,6.37416,6.30123,8.804,8.365,4.82951,21.88306,4.82785,30.19363-.00173C69.28346,69.93654,71.35014,66.79681,71.35906,63.65219Z"/></clipPath><clipPath id="clip-path-3"><path class="cls-1" d="M28.64094,56.56294l.02011,7.08925c.00891,3.14462,2.07558,6.28435,6.20315,8.683,8.31058,4.82958,21.82867,4.83131,30.19363.00173,4.20866-2.42988,6.31027-5.61933,6.30123-8.804L71.339,56.44367c.009,3.18471-2.0926,6.37416-6.30123,8.804-8.365,4.82951-21.88306,4.82786-30.19364-.00173C30.71653,62.84729,28.64986,59.70756,28.64094,56.56294Z"/></clipPath><clipPath id="clip-path-4"><path class="cls-1" d="M28.64094,63.65219l.02011,7.08925c.00891,3.14462,2.07558,6.28435,6.20315,8.683,8.31058,4.82959,21.82867,4.83131,30.19363.00173,4.20866-2.42986,6.31027-5.61932,6.30123-8.804L71.339,63.53292c.009,3.18471-2.0926,6.37416-6.30123,8.804-8.365,4.82951-21.88306,4.82782-30.19364-.00173C30.71653,69.93654,28.64986,66.79681,28.64094,63.65219Z"/></clipPath></defs><g id="info"><path class="cls-2" d="M71.35906,56.56294l-.0201,7.08925c-.00892,3.14462-2.07558,6.28435-6.20315,8.683-8.31058,4.82958-21.82867,4.83131-30.19363.00173-4.20866-2.42988-6.31027-5.61933-6.30124-8.804l.0201-7.08925c-.009,3.18471,2.09259,6.37416,6.30123,8.804,8.365,4.82951,21.88306,4.82786,30.19363-.00173C69.28346,62.84729,71.35014,59.70756,71.35906,56.56294Z"/><g class="cls-3"><path class="cls-4" d="M71.35906,56.56294,71.339,63.65219c-.00893,3.14462-2.0756,6.28435-6.20316,8.683-8.31058,4.82958-21.82867,4.83131-30.19363.00173-4.20866-2.42988-6.31027-5.61933-6.30124-8.804l.0201-7.08925c-.009,3.18471,2.09259,6.37416,6.30123,8.804,8.365,4.82951,21.88306,4.82786,30.19363-.00173,4.12756-2.39868,6.19423-5.53839,6.20316-8.683"/></g><path class="cls-5" d="M71.35906,70.74146l-.0201,7.08925c-.00892,3.14461-2.07558,6.28437-6.20315,8.683-8.31058,4.82958-21.82867,4.83131-30.19363.00173-4.20866-2.42988-6.31027-5.61933-6.30124-8.804l.0201-7.08925c-.009,3.18471,2.09259,6.37416,6.30123,8.804,8.365,4.82951,21.88306,4.82786,30.19363-.00173C69.28346,77.02581,71.35014,73.88608,71.35906,70.74146Z"/><path class="cls-6" d="M71.35906,63.65219l-.0201,7.08925c-.00892,3.14462-2.07558,6.28435-6.20315,8.683-8.31058,4.82959-21.82867,4.83131-30.19363.00173-4.20866-2.42986-6.31027-5.61932-6.30124-8.804l.0201-7.08925c-.009,3.18471,2.09259,6.37416,6.30123,8.804,8.365,4.82951,21.88306,4.82785,30.19363-.00173C69.28346,69.93654,71.35014,66.79681,71.35906,63.65219Z"/><g class="cls-7"><path class="cls-8" d="M71.35906,63.65219,71.339,70.74144c-.00893,3.14462-2.0756,6.28435-6.20316,8.683-8.31058,4.82959-21.82867,4.83131-30.19363.00173-4.20866-2.42986-6.31027-5.61932-6.30124-8.804l.0201-7.08925c-.009,3.18471,2.09259,6.37416,6.30123,8.804,8.365,4.82951,21.88306,4.82785,30.19363-.00173,4.12756-2.39869,6.19423-5.53839,6.20316-8.683"/></g><path class="cls-2" d="M28.64094,56.56294l.02011,7.08925c.00891,3.14462,2.07558,6.28435,6.20315,8.683,8.31058,4.82958,21.82867,4.83131,30.19363.00173,4.20866-2.42988,6.31027-5.61933,6.30123-8.804L71.339,56.44367c.009,3.18471-2.0926,6.37416-6.30123,8.804-8.365,4.82951-21.88306,4.82786-30.19364-.00173C30.71653,62.84729,28.64986,59.70756,28.64094,56.56294Z"/><g class="cls-9"><path class="cls-4" d="M28.64094,56.56294l.02009,7.08925c.00893,3.14462,2.0756,6.28435,6.20316,8.683,8.31058,4.82958,21.82867,4.83131,30.19364.00173,4.20865-2.42988,6.31026-5.61933,6.30123-8.804L71.339,56.44367c.009,3.18471-2.0926,6.37416-6.30123,8.804-8.365,4.82951-21.88306,4.82786-30.19364-.00173-4.12756-2.39868-6.19422-5.53839-6.20316-8.683"/></g><path class="cls-5" d="M28.64094,70.74146l.02011,7.08925c.00891,3.14461,2.07558,6.28437,6.20315,8.683,8.31058,4.82958,21.82867,4.83131,30.19363.00173,4.20866-2.42988,6.31027-5.61933,6.30123-8.804L71.339,70.62219c.009,3.18471-2.0926,6.37416-6.30123,8.804-8.365,4.82951-21.88306,4.82786-30.19364-.00173C30.71653,77.02581,28.64986,73.88608,28.64094,70.74146Z"/><path class="cls-6" d="M28.64094,63.65219l.02011,7.08925c.00891,3.14462,2.07558,6.28435,6.20315,8.683,8.31058,4.82959,21.82867,4.83131,30.19363.00173,4.20866-2.42986,6.31027-5.61932,6.30123-8.804L71.339,63.53292c.009,3.18471-2.0926,6.37416-6.30123,8.804-8.365,4.82951-21.88306,4.82782-30.19364-.00173C30.71653,69.93654,28.64986,66.79681,28.64094,63.65219Z"/><g class="cls-10"><path class="cls-11" d="M28.64094,63.65219l.02009,7.08925c.00893,3.14462,2.0756,6.28435,6.20316,8.683,8.31058,4.82959,21.82867,4.83131,30.19364.00173,4.20865-2.42986,6.31026-5.61932,6.30123-8.804L71.339,63.53292c.009,3.18471-2.0926,6.37416-6.30123,8.804-8.365,4.82951-21.88306,4.82782-30.19364-.00173-4.12757-2.39869-6.19423-5.53839-6.20316-8.683"/></g><polyline class="cls-12" points="42.8 34.963 38 26.563 32 34.963"/><polyline class="cls-13" points="57.2 34.963 50 26.563 42.8 34.963"/><polyline class="cls-14" points="68 34.963 62 26.563 57.2 34.963"/><polygon class="cls-12" points="62 26.563 57.2 34.963 50 26.563 62 26.563"/><polygon class="cls-14" points="50 26.563 42.8 34.963 38 26.563 50 26.563"/><polygon class="cls-13" points="42.8 34.963 50 56.563 32 34.963 42.8 34.963"/><polygon class="cls-15" points="68 34.963 50 56.563 57.2 34.963 68 34.963"/><polygon class="cls-16" points="42.8 34.963 50 56.563 57.2 34.963 42.8 34.963"/><line class="cls-17" x1="41" y1="20.56294" x2="36.12518" y2="15.68811"/><line class="cls-17" x1="50" y1="16.98575" x2="50" y2="11"/><line class="cls-17" x1="59" y1="20.56294" x2="63.87482" y2="15.68811"/><path class="cls-18" d="M65.05743,47.75827a25.231,25.231,0,0,0-5.753-2.36072L50,56.5629,40.67688,45.37515a24.99656,24.99656,0,0,0-5.8103,2.38324c-8.31055,4.82959-8.26929,12.65973.0957,17.48932s21.88306,4.82782,30.1936-.00177C73.46375,60.418,73.42242,52.5878,65.05743,47.75827Z"/></g></svg>