<svg xmlns="http://www.w3.org/2000/svg" xmlns:xlink="http://www.w3.org/1999/xlink" viewBox="0 0 100 100"><defs><style>.cls-1,.cls-16,.cls-2,.cls-3{fill:none;}.cls-2{stroke:#a2aacd;}.cls-2,.cls-3{stroke-miterlimit:10;stroke-width:4px;}.cls-3{stroke:#14003d;}.cls-4{fill:#87acfc;}.cls-5{clip-path:url(#clip-path);}.cls-6{fill:#8d8cbf;}.cls-7{fill:#9b9ad2;}.cls-8{fill:#e6e6e6;}.cls-9{fill:#c6d7fc;}.cls-10{clip-path:url(#clip-path-2);}.cls-11{fill:#b4c4e6;}.cls-12{clip-path:url(#clip-path-3);}.cls-13{clip-path:url(#clip-path-4);}.cls-14{fill:#a2aacd;}.cls-15{fill:#fbd040;}.cls-16{stroke:#fff;stroke-linecap:round;stroke-linejoin:round;stroke-width:2px;}</style><clipPath id="clip-path"><path class="cls-1" d="M70.89474,33.15607l-.01967,6.93513c-.00872,3.07626-2.03046,6.14774-6.0683,8.49428-8.12991,4.72459-21.35413,4.72629-29.53725.0017-4.11716-2.37706-6.17308-5.49717-6.16425-8.61265l.01966-6.93513C29.1161,36.15487,31.172,39.275,35.28918,41.652c8.18311,4.72452,21.40733,4.7229,29.53725-.0017C68.86426,39.30381,70.886,36.23233,70.89474,33.15607Z"/></clipPath><clipPath id="clip-path-2"><path class="cls-1" d="M70.89474,40.0912l-.01967,6.93514c-.00872,3.07626-2.03046,6.14774-6.0683,8.49427-8.12991,4.7246-21.35413,4.72628-29.53725.0017-4.11716-2.377-6.17308-5.49717-6.16425-8.61264l.01966-6.93514c-.00883,3.11548,2.0471,6.23559,6.16425,8.61265,8.18311,4.72452,21.40733,4.72289,29.53725-.0017C68.86426,46.23894,70.886,43.16746,70.89474,40.0912Z"/></clipPath><clipPath id="clip-path-3"><path class="cls-1" d="M29.10527,33.15607l.01967,6.93513c.00871,3.07626,2.03046,6.14774,6.0683,8.49428,8.12991,4.72459,21.35413,4.72629,29.53725.0017,4.11716-2.37706,6.17308-5.49717,6.16425-8.61265l-.01966-6.93513c.00883,3.11547-2.04711,6.23559-6.16425,8.61264-8.18312,4.72452-21.40734,4.7229-29.53725-.0017C31.13574,39.30381,29.114,36.23233,29.10527,33.15607Z"/></clipPath><clipPath id="clip-path-4"><path class="cls-1" d="M29.10527,40.0912l.01967,6.93514c.00871,3.07626,2.03046,6.14774,6.0683,8.49427,8.12991,4.7246,21.35413,4.72628,29.53725.0017,4.11716-2.377,6.17308-5.49717,6.16425-8.61264l-.01966-6.93514c.00883,3.11548-2.04711,6.23559-6.16425,8.61265-8.18312,4.72452-21.40734,4.72286-29.53725-.0017C31.13574,46.23894,29.114,43.16746,29.10527,40.0912Z"/></clipPath></defs><g id="info"><path class="cls-2" d="M20.00126,81.99924H44"/><path class="cls-2" d="M56,81.99924H79.99874"/><circle class="cls-3" cx="50" cy="81.99924" r="6"/><line class="cls-3" x1="50" y1="75.99924" x2="50" y2="60.00063"/><path class="cls-4" d="M70.89474,33.15607l-.01967,6.93513c-.00872,3.07626-2.03046,6.14774-6.0683,8.49428-8.12991,4.72459-21.35413,4.72629-29.53725.0017-4.11716-2.37706-6.17308-5.49717-6.16425-8.61265l.01966-6.93513C29.1161,36.15487,31.172,39.275,35.28918,41.652c8.18311,4.72452,21.40733,4.7229,29.53725-.0017C68.86426,39.30381,70.886,36.23233,70.89474,33.15607Z"/><g class="cls-5"><path class="cls-6" d="M70.89474,33.15607l-.01966,6.93513c-.00873,3.07626-2.03048,6.14774-6.06831,8.49428-8.12991,4.72459-21.35413,4.72629-29.53725.0017-4.11716-2.37706-6.17308-5.49717-6.16425-8.61265l.01966-6.93513C29.1161,36.15487,31.172,39.275,35.28918,41.652c8.18311,4.72452,21.40733,4.7229,29.53725-.0017,4.03783-2.34653,6.05957-5.418,6.06831-8.49427"/></g><path class="cls-7" d="M64.73012,24.54283c8.18312,4.72452,8.22353,12.38448.09631,17.10751-8.12992,4.7246-21.35414,4.72628-29.53725.0017s-8.2235-12.38448-.09359-17.10907C43.32281,19.81993,56.547,19.8183,64.73012,24.54283Z"/><path class="cls-8" d="M70.89474,47.02636l-.01967,6.93513c-.00872,3.07626-2.03046,6.14776-6.0683,8.49428-8.12991,4.72459-21.35413,4.72629-29.53725.0017-4.11716-2.37706-6.17308-5.49717-6.16425-8.61265l.01966-6.93513c-.00883,3.11547,2.0471,6.23559,6.16425,8.61263,8.18311,4.72453,21.40733,4.72291,29.53725-.00169C68.86426,53.1741,70.886,50.10262,70.89474,47.02636Z"/><path class="cls-9" d="M70.89474,40.0912l-.01967,6.93514c-.00872,3.07626-2.03046,6.14774-6.0683,8.49427-8.12991,4.7246-21.35413,4.72628-29.53725.0017-4.11716-2.377-6.17308-5.49717-6.16425-8.61264l.01966-6.93514c-.00883,3.11548,2.0471,6.23559,6.16425,8.61265,8.18311,4.72452,21.40733,4.72289,29.53725-.0017C68.86426,46.23894,70.886,43.16746,70.89474,40.0912Z"/><g class="cls-10"><path class="cls-11" d="M70.89474,40.0912l-.01966,6.93514c-.00873,3.07626-2.03048,6.14774-6.06831,8.49427-8.12991,4.7246-21.35413,4.72628-29.53725.0017-4.11716-2.377-6.17308-5.49717-6.16425-8.61264l.01966-6.93514c-.00883,3.11548,2.0471,6.23559,6.16425,8.61265,8.18311,4.72452,21.40733,4.72289,29.53725-.0017,4.03783-2.34654,6.05957-5.418,6.06831-8.49428"/></g><path class="cls-4" d="M29.10527,33.15607l.01967,6.93513c.00871,3.07626,2.03046,6.14774,6.0683,8.49428,8.12991,4.72459,21.35413,4.72629,29.53725.0017,4.11716-2.37706,6.17308-5.49717,6.16425-8.61265l-.01966-6.93513c.00883,3.11547-2.04711,6.23559-6.16425,8.61264-8.18312,4.72452-21.40734,4.7229-29.53725-.0017C31.13574,39.30381,29.114,36.23233,29.10527,33.15607Z"/><g class="cls-12"><path class="cls-6" d="M29.10527,33.15607l.01965,6.93513c.00873,3.07626,2.03048,6.14774,6.06831,8.49428,8.12992,4.72459,21.35414,4.72629,29.53725.0017,4.11716-2.37706,6.17308-5.49717,6.16426-8.61265l-.01966-6.93513c.00883,3.11547-2.04711,6.23559-6.16425,8.61264-8.18312,4.72452-21.40734,4.7229-29.53725-.0017-4.03784-2.34653-6.05957-5.418-6.06831-8.49427"/></g><path class="cls-7" d="M35.26987,24.54283c-8.18311,4.72452-8.22352,12.38448-.0963,17.10751,8.12991,4.7246,21.35413,4.72628,29.53725.0017s8.2235-12.38448.09358-17.10907C56.67719,19.81993,43.453,19.8183,35.26987,24.54283Z"/><path class="cls-8" d="M29.10527,47.02636l.01967,6.93513c.00871,3.07626,2.03046,6.14776,6.0683,8.49428,8.12991,4.72459,21.35413,4.72629,29.53725.0017,4.11716-2.37706,6.17308-5.49717,6.16425-8.61265l-.01966-6.93513c.00883,3.11547-2.04711,6.23559-6.16425,8.61263-8.18312,4.72453-21.40734,4.72291-29.53725-.00169C31.13574,53.1741,29.114,50.10262,29.10527,47.02636Z"/><path class="cls-9" d="M29.10527,40.0912l.01967,6.93514c.00871,3.07626,2.03046,6.14774,6.0683,8.49427,8.12991,4.7246,21.35413,4.72628,29.53725.0017,4.11716-2.377,6.17308-5.49717,6.16425-8.61264l-.01966-6.93514c.00883,3.11548-2.04711,6.23559-6.16425,8.61265-8.18312,4.72452-21.40734,4.72286-29.53725-.0017C31.13574,46.23894,29.114,43.16746,29.10527,40.0912Z"/><g class="cls-13"><path class="cls-14" d="M29.10527,40.0912l.01965,6.93514c.00873,3.07626,2.03048,6.14774,6.06831,8.49427,8.12992,4.7246,21.35414,4.72628,29.53725.0017,4.11716-2.377,6.17308-5.49717,6.16426-8.61264l-.01966-6.93514c.00883,3.11548-2.04711,6.23559-6.16425,8.61265-8.18312,4.72452-21.40734,4.72286-29.53725-.0017-4.03784-2.34654-6.05957-5.418-6.06831-8.49428"/></g><path class="cls-15" d="M41.57747,13.6595h0l0,6.667c0,5.88741,3.23587,6.8884,8.42255,9.6741h0l-.00005-20-4.31718,2.54056a8.09453,8.09453,0,0,1-4.10534,1.11831Z"/><path class="cls-15" d="M58.42251,13.65927h0l0,6.66694c0,5.88749-3.2358,6.88857-8.42248,9.67442h0l-.00005-20L54.31714,12.541a8.095,8.095,0,0,0,4.10537,1.11826Z"/><polyline class="cls-16" points="45.329 20.658 48.005 23.334 54.671 16.668"/></g></svg>