<svg xmlns="http://www.w3.org/2000/svg" viewBox="0 0 100 100"><defs><style>.cls-1{fill:#15003b;}.cls-1,.cls-2{stroke:#15003b;}.cls-1,.cls-8,.cls-9{stroke-linecap:round;}.cls-1,.cls-10,.cls-2,.cls-8,.cls-9{stroke-linejoin:round;}.cls-1,.cls-10,.cls-2,.cls-9{stroke-width:4px;}.cls-10,.cls-2,.cls-8{fill:none;}.cls-3{fill:#8d8cbf;}.cls-4{fill:#9b9ad2;}.cls-5{fill:#e6e6e6;}.cls-6,.cls-9{fill:#a2aacd;}.cls-7{fill:#fbd040;}.cls-8{stroke:#fff;stroke-width:2px;}.cls-10,.cls-9{stroke:#a2aacd;}</style></defs><g id="info"><polygon class="cls-1" points="81.839 57.079 76.839 48.419 86.839 48.419 81.839 57.079"/><path class="cls-2" d="M81.839,52.74938A32.50542,32.50542,0,0,0,18.52386,42.39309"/><path class="cls-3" d="M66.71577,45.97459,66.7,51.52272c-.007,2.461-1.62436,4.91819-4.85464,6.79542-6.50393,3.77967-17.08332,3.781-23.62981.00136-3.29373-1.90164-4.93849-4.39774-4.9314-6.89012l.01573-5.54812c-.00707,2.49238,1.63768,4.98848,4.9314,6.89011C44.7778,56.551,55.35719,56.54969,61.86112,52.77,65.09139,50.8928,66.70879,48.43561,66.71577,45.97459Z"/><path class="cls-4" d="M61.78414,39.084c6.54649,3.77962,6.57882,9.90757.077,13.686-6.50394,3.77967-17.08332,3.781-23.62981.00135s-6.57881-9.90758-.07491-13.68726C44.6582,35.30569,55.2376,35.30439,61.78414,39.084Z"/><path class="cls-5" d="M66.71577,57.07084,66.7,62.619c-.007,2.461-1.62436,4.91819-4.85464,6.79542-6.50393,3.77968-17.08332,3.781-23.62981.00136-3.29373-1.90164-4.93849-4.39774-4.9314-6.89012l.01573-5.54812c-.00707,2.49238,1.63768,4.98848,4.9314,6.89012,6.54649,3.77962,17.12588,3.77832,23.62981-.00136C65.09139,61.989,66.70879,59.53184,66.71577,57.07084Z"/><path class="cls-6" d="M66.71577,51.52271,66.7,57.07084c-.007,2.461-1.62436,4.91819-4.85464,6.79542-6.50393,3.77968-17.08332,3.781-23.62981.00136-3.29373-1.90164-4.93849-4.39774-4.9314-6.89012l.01573-5.54812c-.00707,2.49238,1.63768,4.98848,4.9314,6.89012,6.54649,3.77962,17.12588,3.7783,23.62981-.00136C65.09139,56.44091,66.70879,53.98372,66.71577,51.52271Z"/><path class="cls-7" d="M42.23845,16.40866h0l0,6.667c0,5.88742,3.23588,6.88841,8.42255,9.6741h0l-.00006-20L46.3438,15.29035a8.09459,8.09459,0,0,1-4.10534,1.11831Z"/><path class="cls-7" d="M59.0835,16.40844h0v6.66694c0,5.88748-3.2358,6.88857-8.42247,9.67441h0l-.00006-20,4.31715,2.54039a8.09507,8.09507,0,0,0,4.10537,1.11826Z"/><polyline class="cls-8" points="45.99 23.407 48.666 26.083 55.332 19.417"/><polygon class="cls-9" points="18.161 48.42 23.161 57.08 13.161 57.08 18.161 48.42"/><path class="cls-10" d="M18.161,52.75021A32.50542,32.50542,0,0,0,81.47614,63.1065"/></g></svg>