<svg xmlns="http://www.w3.org/2000/svg" viewBox="0 0 100 100"><defs><style>.cls-1{fill:#b2bad7;opacity:0.35;}.cls-1,.cls-7,.cls-9{isolation:isolate;}.cls-2,.cls-7{opacity:0.75;}.cls-3{fill:#7d7bbd;}.cls-4{fill:#9c9cd5;}.cls-5{fill:#fdd850;}.cls-6,.cls-7{fill:#1a044e;}.cls-8{fill:#9b9ad2;}.cls-9{fill:#a2aacd;}</style></defs><g id="info"><rect class="cls-1" x="21.5" y="24.00002" width="45" height="66" rx="2"/><g class="cls-2"><polygon class="cls-3" points="36.564 67.131 34.948 65.514 40.898 59.563 43.756 62.42 48.09 58.085 49.706 59.702 43.756 65.652 40.898 62.796 36.564 67.131"/><polygon class="cls-3" points="45.773 57.183 52.378 55.414 50.609 62.019 45.773 57.183"/></g><path class="cls-4" d="M51.44132,75.08941,47.55223,78.9785a5.48268,5.48268,0,0,1,1.61091,3.88909h5.5A10.96546,10.96546,0,0,0,51.44132,75.08941Z"/><path class="cls-5" d="M44.61806,77.45192a5.48626,5.48626,0,0,1,2.93417,1.52658l3.88909-3.88909A10.97229,10.97229,0,0,0,45.573,72.03624Z"/><path class="cls-6" d="M45.573,72.03624A10.99174,10.99174,0,0,0,32.66314,82.86759h5.5a5.49584,5.49584,0,0,1,6.45492-5.41567Z"/><rect class="cls-6" x="32.66314" y="45.40625" width="4" height="5.46875"/><rect class="cls-7" x="38.66314" y="34.46878" width="4" height="16.40625"/><rect class="cls-5" x="44.66314" y="39.93752" width="4" height="10.9375"/><g class="cls-2"><rect class="cls-4" x="50.66314" y="29.00002" width="4" height="21.875"/></g><path class="cls-8" d="M70.5,17h-41a2,2,0,0,0-2,2v3h39a2,2,0,0,1,2,2V83h2a2,2,0,0,0,2-2V19A2,2,0,0,0,70.5,17Z"/><path class="cls-9" d="M76.5,10h-41a2,2,0,0,0-2,2v3h39a2,2,0,0,1,2,2V76h2a2,2,0,0,0,2-2V12A2,2,0,0,0,76.5,10Z"/></g></svg>