<svg xmlns="http://www.w3.org/2000/svg" xmlns:xlink="http://www.w3.org/1999/xlink" viewBox="0 0 100 100"><defs><style>.cls-1,.cls-15,.cls-17{fill:none;}.cls-2{fill:#87acfc;}.cls-3{clip-path:url(#clip-path);}.cls-4{fill:#8d8cbf;}.cls-5{fill:#9b9ad2;}.cls-6{fill:#e6e6e6;}.cls-7{fill:#c6d7fc;}.cls-8{clip-path:url(#clip-path-2);}.cls-9{fill:#b4c4e6;}.cls-10{clip-path:url(#clip-path-3);}.cls-11{clip-path:url(#clip-path-4);}.cls-12{fill:#a2aacd;}.cls-13{fill:#14003d;}.cls-14{fill:#e4e6f2;}.cls-15{stroke:#a2aacd;stroke-width:4px;}.cls-15,.cls-17{stroke-linecap:round;stroke-linejoin:round;}.cls-16{fill:#fbd040;}.cls-17{stroke:#fff;stroke-width:2px;}</style><clipPath id="clip-path"><path class="cls-1" d="M67.18012,23.99557l-.01618,5.70222c-.00717,2.52937-1.66948,5.05481-4.98949,6.98419-6.68459,3.88466-17.55784,3.886-24.28618.00139-3.38522-1.95447-5.07564-4.5199-5.06838-7.08151l.01616-5.70222c-.00726,2.56161,1.68317,5.127,5.06838,7.0815,6.72835,3.88461,17.60159,3.88328,24.28619-.00139C65.51061,29.05038,67.17294,26.52494,67.18012,23.99557Z"/></clipPath><clipPath id="clip-path-2"><path class="cls-1" d="M67.18012,29.69779,67.16394,35.4c-.00717,2.52937-1.66948,5.05481-4.98949,6.98418-6.68459,3.88467-17.55784,3.88606-24.28618.00139-3.38522-1.95445-5.07564-4.51988-5.06838-7.0815l.01616-5.70222c-.00726,2.56161,1.68317,5.127,5.06838,7.08151C44.63278,40.568,55.506,40.56664,62.19062,36.682,65.51061,34.7526,67.17294,32.22716,67.18012,29.69779Z"/></clipPath><clipPath id="clip-path-3"><path class="cls-1" d="M32.81989,23.99557l.01617,5.70222c.00717,2.52937,1.66949,5.05481,4.98949,6.98419,6.6846,3.88466,17.55784,3.886,24.28618.00139,3.38523-1.95447,5.07565-4.5199,5.06839-7.08151L67.164,23.89964c.00726,2.56161-1.68317,5.127-5.06838,7.0815-6.72834,3.88461-17.60159,3.88328-24.28618-.00139C34.48939,29.05038,32.82706,26.52494,32.81989,23.99557Z"/></clipPath><clipPath id="clip-path-4"><path class="cls-1" d="M32.81989,29.69779,32.83606,35.4c.00717,2.52937,1.66949,5.05481,4.98949,6.98418,6.6846,3.88467,17.55784,3.88606,24.28618.00139,3.38523-1.95445,5.07565-4.51988,5.06839-7.0815L67.164,29.60186c.00726,2.56161-1.68317,5.127-5.06838,7.08151C55.36723,40.568,44.494,40.56661,37.80938,36.682,34.48939,34.7526,32.82706,32.22716,32.81989,29.69779Z"/></clipPath></defs><g id="info"><path class="cls-2" d="M67.18012,23.99557l-.01618,5.70222c-.00717,2.52937-1.66948,5.05481-4.98949,6.98419-6.68459,3.88466-17.55784,3.886-24.28618.00139-3.38522-1.95447-5.07564-4.5199-5.06838-7.08151l.01616-5.70222c-.00726,2.56161,1.68317,5.127,5.06838,7.0815,6.72835,3.88461,17.60159,3.88328,24.28619-.00139C65.51061,29.05038,67.17294,26.52494,67.18012,23.99557Z"/><g class="cls-3"><path class="cls-4" d="M67.18012,23.99557,67.164,29.69779c-.00718,2.52937-1.6695,5.05481-4.9895,6.98419-6.68459,3.88466-17.55784,3.886-24.28618.00139-3.38522-1.95447-5.07564-4.5199-5.06838-7.08151l.01616-5.70222c-.00726,2.56161,1.68317,5.127,5.06838,7.0815,6.72835,3.88461,17.60159,3.88328,24.28619-.00139,3.32-1.92937,4.98231-4.4548,4.9895-6.98418"/></g><path class="cls-5" d="M62.11144,16.91357c6.72833,3.8846,6.76156,10.1828.07918,14.06618-6.6846,3.88467-17.55784,3.88605-24.28619.00139s-6.76154-10.18279-.07694-14.06745C44.50987,13.0303,55.38311,13.029,62.11144,16.91357Z"/><path class="cls-6" d="M67.18012,35.4l-.01618,5.70222c-.00717,2.52937-1.66948,5.05482-4.98949,6.98419-6.68459,3.88466-17.55784,3.886-24.28618.00139-3.38522-1.95447-5.07564-4.5199-5.06838-7.08151l.01616-5.70222c-.00726,2.56161,1.68317,5.127,5.06838,7.0815,6.72835,3.88461,17.60159,3.88328,24.28619-.00139C65.51061,40.45484,67.17294,37.9294,67.18012,35.4Z"/><path class="cls-7" d="M67.18012,29.69779,67.16394,35.4c-.00717,2.52937-1.66948,5.05481-4.98949,6.98418-6.68459,3.88467-17.55784,3.88606-24.28618.00139-3.38522-1.95445-5.07564-4.51988-5.06838-7.0815l.01616-5.70222c-.00726,2.56161,1.68317,5.127,5.06838,7.08151C44.63278,40.568,55.506,40.56664,62.19062,36.682,65.51061,34.7526,67.17294,32.22716,67.18012,29.69779Z"/><g class="cls-8"><path class="cls-9" d="M67.18012,29.69779,67.164,35.4c-.00718,2.52937-1.6695,5.05481-4.9895,6.98418-6.68459,3.88467-17.55784,3.88606-24.28618.00139-3.38522-1.95445-5.07564-4.51988-5.06838-7.0815l.01616-5.70222c-.00726,2.56161,1.68317,5.127,5.06838,7.08151C44.63278,40.568,55.506,40.56664,62.19062,36.682c3.32-1.92938,4.98231-4.4548,4.9895-6.98419"/></g><path class="cls-2" d="M32.81989,23.99557l.01617,5.70222c.00717,2.52937,1.66949,5.05481,4.98949,6.98419,6.6846,3.88466,17.55784,3.886,24.28618.00139,3.38523-1.95447,5.07565-4.5199,5.06839-7.08151L67.164,23.89964c.00726,2.56161-1.68317,5.127-5.06838,7.0815-6.72834,3.88461-17.60159,3.88328-24.28618-.00139C34.48939,29.05038,32.82706,26.52494,32.81989,23.99557Z"/><g class="cls-10"><path class="cls-4" d="M32.81989,23.99557l.01616,5.70222c.00718,2.52937,1.6695,5.05481,4.9895,6.98419,6.68459,3.88466,17.55784,3.886,24.28618.00139,3.38522-1.95447,5.07564-4.5199,5.06839-7.08151L67.164,23.89964c.00726,2.56161-1.68317,5.127-5.06838,7.0815-6.72834,3.88461-17.60159,3.88328-24.28618-.00139-3.32-1.92937-4.98231-4.4548-4.9895-6.98418"/></g><path class="cls-5" d="M37.88856,16.91357c-6.72834,3.8846-6.76156,10.1828-.07918,14.06618,6.68459,3.88467,17.55784,3.88605,24.28618.00139s6.76154-10.18279.077-14.06745C55.49013,13.0303,44.61688,13.029,37.88856,16.91357Z"/><path class="cls-6" d="M32.81989,35.4l.01617,5.70222c.00717,2.52937,1.66949,5.05482,4.98949,6.98419,6.6846,3.88466,17.55784,3.886,24.28618.00139,3.38523-1.95447,5.07565-4.5199,5.06839-7.08151L67.164,35.3041c.00726,2.56161-1.68317,5.127-5.06838,7.0815-6.72834,3.88461-17.60159,3.88328-24.28618-.00139C34.48939,40.45484,32.82706,37.9294,32.81989,35.4Z"/><path class="cls-7" d="M32.81989,29.69779,32.83606,35.4c.00717,2.52937,1.66949,5.05481,4.98949,6.98418,6.6846,3.88467,17.55784,3.88606,24.28618.00139,3.38523-1.95445,5.07565-4.51988,5.06839-7.0815L67.164,29.60186c.00726,2.56161-1.68317,5.127-5.06838,7.08151C55.36723,40.568,44.494,40.56661,37.80938,36.682,34.48939,34.7526,32.82706,32.22716,32.81989,29.69779Z"/><g class="cls-11"><path class="cls-12" d="M32.81989,29.69779,32.83605,35.4c.00718,2.52937,1.6695,5.05481,4.9895,6.98418,6.68459,3.88467,17.55784,3.88606,24.28618.00139,3.38522-1.95445,5.07564-4.51988,5.06839-7.0815L67.164,29.60186c.00726,2.56161-1.68317,5.127-5.06838,7.08151C55.36723,40.568,44.494,40.56661,37.80938,36.682c-3.32-1.92938-4.98231-4.4548-4.98949-6.98419"/></g><path class="cls-13" d="M22.0005,74.31974a10,10,0,0,0,20,0"/><path class="cls-14" d="M58.99956,74.31974a10,10,0,0,0,20,0"/><line class="cls-15" x1="60" y1="87.99924" x2="40" y2="87.99924"/><line class="cls-15" x1="68.99975" y1="56.99924" x2="32.0005" y2="56.99924"/><path class="cls-15" d="M22.0005,74.31974a10,10,0,0,0,20,0"/><path class="cls-15" d="M58.99956,74.31974a10,10,0,0,0,20,0"/><line class="cls-15" x1="50" y1="87.99924" x2="50" y2="56.99924"/><polyline class="cls-15" points="42.001 74.319 32.001 56.999 22.001 74.319"/><polyline class="cls-15" points="79 74.319 69 56.999 59 74.319"/><circle class="cls-16" cx="50" cy="20" r="10"/><polygon class="cls-17" points="48.268 22 50 25 51.732 22 48.268 22"/><line class="cls-17" x1="49.98813" y1="24.98814" x2="49.99999" y2="15"/></g></svg>