<svg xmlns="http://www.w3.org/2000/svg" viewBox="0 0 100 100"><defs><style>.cls-1{fill:#1a044e;}.cls-2{fill:#a2aacd;}.cls-3{fill:#e4e6f2;}.cls-4{fill:#cca934;}.cls-5{fill:#fbd040;}.cls-6{fill:#fff;}</style></defs><g id="info"><rect class="cls-1" x="12" y="28.7354" width="76" height="49.5207" rx="2"/><path class="cls-2" d="M11.44271,23.891C24.02634,20.32917,37.48607,21.47132,50,25.31679V77.25611c-12.1679-3.739-25.229-4.9768-37.51034-1.713A1.99073,1.99073,0,0,1,10,73.60876V25.82057A2.00225,2.00225,0,0,1,11.44271,23.891Z"/><path class="cls-3" d="M50,25.3167c12.5139-3.84563,25.97355-4.98742,38.55727-1.42578A2.00225,2.00225,0,0,1,90,25.82053q-.00008,23.89415,0,47.78824a1.99073,1.99073,0,0,1-2.48966,1.93432C75.229,72.27936,62.16776,73.51717,50,77.25618Z"/><path class="cls-4" d="M83.92981,40.89309l-.01312,4.62344c-.00581,2.05083-1.35363,4.09849-4.04553,5.66285-5.41995,3.14973-14.2361,3.15081-19.69151.00113-2.74478-1.5847-4.11541-3.66478-4.1095-5.74176l.01311-4.62344c-.00589,2.077,1.36473,4.15707,4.1095,5.74176,5.45541,3.14969,14.27156,3.1486,19.69151-.00113C82.57616,44.99159,83.924,42.94394,83.92981,40.89309Z"/><path class="cls-5" d="M79.82011,35.15094c5.45542,3.14968,5.48235,8.25631.06419,11.405-5.41995,3.14973-14.2361,3.15082-19.69151.00113s-5.48234-8.25631-.06242-11.406C65.5485,32.00234,74.36467,32.00125,79.82011,35.15094Z"/><path class="cls-6" d="M83.92981,50.14l-.01312,4.62343c-.00581,2.05084-1.35363,4.0985-4.04553,5.66285-5.41995,3.14974-14.2361,3.15082-19.69151.00114-2.74478-1.5847-4.11541-3.66479-4.1095-5.74177l.01311-4.62343c-.00589,2.077,1.36473,4.15706,4.1095,5.74176,5.45541,3.14969,14.27156,3.14861,19.69151-.00113C82.57616,54.23845,83.924,52.1908,83.92981,50.14Z"/><path class="cls-2" d="M83.92981,45.51652,83.91669,50.14c-.00581,2.05084-1.35363,4.09849-4.04553,5.66285-5.41995,3.14974-14.2361,3.15082-19.69151.00113-2.74478-1.5847-4.11541-3.66478-4.1095-5.74176l.01311-4.62343c-.00589,2.077,1.36473,4.15706,4.1095,5.74176,5.45541,3.14968,14.27156,3.14859,19.69151-.00113C82.57616,49.615,83.924,47.56736,83.92981,45.51652Z"/><rect class="cls-5" x="25" y="37.73519" width="10" height="4"/><path class="cls-5" d="M30,35.0762l3.54053,8.7666h4.314l-6-14.85644a2.00007,2.00007,0,0,0-3.709,0l-6,14.85644h4.314Z"/><rect class="cls-6" x="16" y="47.8428" width="28" height="4"/><rect class="cls-6" x="16" y="55.8428" width="28" height="4"/><rect class="cls-6" x="16" y="63.8428" width="23" height="4"/></g></svg>