<svg xmlns="http://www.w3.org/2000/svg" viewBox="0 0 100 100"><defs><style>.cls-1,.cls-2{fill:none;stroke-width:4px;}.cls-1,.cls-7{stroke:#15003b;stroke-linejoin:round;}.cls-2{stroke:#fdcf3f;stroke-miterlimit:10;}.cls-3{fill:#8d8cbf;}.cls-4{fill:#9b9ad2;}.cls-5{fill:#e6e6e6;}.cls-6{fill:#a2aacd;}.cls-7{fill:#15003b;stroke-linecap:round;stroke-width:2px;}</style></defs><g id="info"><g id="info-2" data-name="info"><path class="cls-1" d="M70.54,16.19617V38.877a5,5,0,0,1-5,5h-30a5,5,0,0,0-5,5v5"/><line class="cls-2" x1="19.54" y1="28.70002" x2="31.54" y2="16.70002"/><line class="cls-2" x1="19.54" y1="16.70002" x2="31.54" y2="28.70002"/><line class="cls-2" x1="69.54" y1="81.30003" x2="81.54" y2="69.30003"/><line class="cls-2" x1="69.54" y1="69.30003" x2="81.54" y2="81.30003"/><path class="cls-3" d="M46.6885,65.0948l-.01492,5.25885c-.00661,2.33269-1.53967,4.66176-4.60152,6.44111-6.16482,3.58261-16.1926,3.58384-22.39776.00129-3.122-1.80249-4.681-4.16844-4.67428-6.53087l.01491-5.25884c-.0067,2.36243,1.55229,4.72838,4.67428,6.53086,6.20516,3.58256,16.23294,3.58132,22.39776-.00128C45.14881,69.75658,46.68188,67.42751,46.6885,65.0948Z"/><path class="cls-4" d="M42.014,58.56349c6.20516,3.58255,6.2358,9.391.073,12.97243-6.16482,3.5826-16.1926,3.58384-22.39776.00128s-6.23579-9.391-.071-12.97361C25.781,54.98217,35.8088,54.98094,42.014,58.56349Z"/><path class="cls-5" d="M46.6885,75.6125l-.01492,5.25884c-.00661,2.33269-1.53967,4.66176-4.60152,6.44111-6.16482,3.58261-16.1926,3.58384-22.39776.00129C16.5523,85.51125,14.9933,83.1453,15,80.78287l.01491-5.25884c-.0067,2.36242,1.55229,4.72837,4.67428,6.53086,6.20516,3.58255,16.23294,3.58133,22.39776-.00128C45.14881,80.27425,46.68188,77.94518,46.6885,75.6125Z"/><path class="cls-6" d="M46.6885,70.35365l-.01492,5.25885c-.00661,2.33268-1.53967,4.66175-4.60152,6.44111-6.16482,3.58261-16.1926,3.58383-22.39776.00128C16.5523,80.2524,14.9933,77.88645,15,75.524l.01491-5.25885c-.0067,2.36243,1.55229,4.72838,4.67428,6.53087,6.20516,3.58255,16.23294,3.58131,22.39776-.00129C45.14881,75.01541,46.68188,72.68634,46.6885,70.35365Z"/><polygon class="cls-7" points="70.54 14.268 75.54 22.928 65.54 22.928 70.54 14.268"/></g></g></svg>