<svg xmlns="http://www.w3.org/2000/svg" viewBox="0 0 100 100"><defs><style>.cls-1{fill:#e4e7f1;}.cls-2,.cls-6{fill:#b2bad7;}.cls-2{isolation:isolate;}.cls-3{fill:#7d7bbd;}.cls-4{fill:#1a044e;}.cls-5{fill:#fccf20;}</style></defs><g id="info"><path class="cls-1" d="M77.5,45.82192V32a2,2,0,0,0-2-2h-51a2,2,0,0,0-2,2V73.99936a2,2,0,0,0,2,2L47.322,76Z"/><path class="cls-1" d="M69.94915,75.99972,75.5,75.99936a2.00006,2.00006,0,0,0,2-2V68.44888Z"/><rect class="cls-2" x="37.5" y="42.6649" width="34" height="2"/><rect class="cls-2" x="37.5" y="36.6649" width="26" height="4"/><polygon class="cls-2" points="37.5 54.665 68.657 54.665 66.657 56.665 37.5 56.665 37.5 54.665"/><rect class="cls-2" x="37.5" y="48.6649" width="26" height="4"/><polygon class="cls-2" points="37.5 66.665 56.657 66.665 54.657 68.665 37.5 68.665 37.5 66.665"/><polygon class="cls-2" points="37.5 60.665 62.657 60.665 58.657 64.665 37.5 64.665 37.5 60.665"/><rect class="cls-3" x="48.65895" y="64.74272" width="30.46746" height="12" transform="translate(-31.30893 65.89901) rotate(-45)"/><polygon class="cls-4" points="44.635 90 47.464 78.686 55.949 87.171 44.635 90"/><path class="cls-5" d="M83.14983,48.65715l2.82843,2.82843a4,4,0,0,1,0,5.65685L80.3214,62.79928h0L71.83612,54.314h0L77.493,48.65715A4,4,0,0,1,83.14983,48.65715Z"/><rect class="cls-5" x="48" y="10" width="4" height="16"/><polygon class="cls-3" points="64 10 56 18 64 26 64 10"/><polygon class="cls-3" points="36 26 44 18 36 10 36 26"/><path class="cls-6" d="M32.5,38.66492v4h-4v-4h4m2-2h-8v8h8v-8Z"/><path class="cls-6" d="M32.5,50.66487v4h-4v-4h4m2-2h-8v8h8v-8Z"/><path class="cls-6" d="M32.5,62.66487v4h-4v-4h4m2-2h-8v8h8v-8Z"/></g></svg>