<svg xmlns="http://www.w3.org/2000/svg" viewBox="0 0 100 100"><defs><style>.cls-1{fill:#a2aacd;opacity:0.35;}.cls-1,.cls-6{isolation:isolate;}.cls-2{fill:none;stroke:#14003d;stroke-miterlimit:10;stroke-width:4px;}.cls-3,.cls-6{fill:#14003d;}.cls-4{fill:#8987ca;}.cls-5{fill:#fbd040;}.cls-6,.cls-7{opacity:0.75;}</style></defs><g id="info"><g id="Layer_2-2" data-name="Layer 2"><rect class="cls-1" x="52" y="12.50002" width="38" height="36" rx="4.11429"/><rect class="cls-1" x="10" y="12.50002" width="38" height="36" rx="4.11429"/><polyline class="cls-2" points="79.455 27.045 70.455 36.045 65.455 31.045 56.455 40.045"/><polygon class="cls-3" points="73.986 24.052 85.545 20.955 82.448 32.514 73.986 24.052"/><path class="cls-4" d="M25.25125,77.24877,37.62562,64.87441A17.445,17.445,0,0,1,32.5,52.5H15A34.89032,34.89032,0,0,0,25.25125,77.24877Z"/><path class="cls-5" d="M46.96162,69.73171a17.45642,17.45642,0,0,1-9.336-4.8573L25.25125,77.24877a34.91182,34.91182,0,0,0,18.672,9.71463Z"/><path class="cls-3" d="M43.92323,86.9634A34.97367,34.97367,0,0,0,85,52.5H67.5A17.48683,17.48683,0,0,1,46.96162,69.73171Z"/><rect class="cls-6" x="21.0454" y="22.52209" width="7.04547" height="23.86364"/><path class="cls-3" d="M11.99993,44.38575V37.04464H19.0454v9.3411H13.99993A2,2,0,0,1,11.99993,44.38575Z"/><rect class="cls-5" x="29.90905" y="30.47665" width="7.04547" height="15.90909"/><g class="cls-7"><path class="cls-4" d="M46,30.47664v13.9091a2,2,0,0,1-2,2H38.95453V30.47664Z"/></g></g></g></svg>